<svg xmlns="http://www.w3.org/2000/svg" viewBox="0 0 367.59 220"><defs><style>.cls-1{isolation:isolate;}.cls-2{fill:#7d5534;}.cls-3{opacity:0.2;mix-blend-mode:overlay;}.cls-4{fill:#633f23;}.cls-5{fill:#c2a693;}.cls-6{fill:#5c4f41;}</style></defs><title>bear</title><g class="cls-1"><g id="Layer_1" data-name="Layer 1"><g id="_Group_" data-name="&lt;Group&gt;"><path id="_Path_" data-name="&lt;Path&gt;" class="cls-2" d="M7039.52,7157.67s-8.37-10.39-5.77-15,18.47-3.46,22.8,0C7056.55,7142.66,7046.74,7156.8,7039.52,7157.67Z" transform="translate(-7018.62 -7092.97)"/><path id="_Path_2" data-name="&lt;Path&gt;" class="cls-3" d="M7039.52,7157.67s-8.37-10.39-5.77-15,18.47-3.46,22.8,0C7056.55,7142.66,7046.74,7156.8,7039.52,7157.67Z" transform="translate(-7018.62 -7092.97)"/><path id="_Path_3" data-name="&lt;Path&gt;" class="cls-4" d="M7186.44,7304.87s32.33,6.06,41,0,30.6-42.14,34.06-53.11-44.45-3.46-44.45-3.46Z" transform="translate(-7018.62 -7092.97)"/><path id="_Path_4" data-name="&lt;Path&gt;" class="cls-4" d="M7262.29,7298.49c4.62,8.7,37.91,9.27,54,2.39,18.47-7.89-24.25-63-24.25-63l-24.53,11s7.87,13.16,9.31,25c.64,5.2.91,6.47-8.5,12.82C7261.84,7291,7260.73,7295.56,7262.29,7298.49Z" transform="translate(-7018.62 -7092.97)"/><path id="_Path_5" data-name="&lt;Path&gt;" class="cls-2" d="M7022,7217.7s12.32-10.78,12.32-38.49,16.16-40,37.72-46.18,40.79-11.54,65.42-30.79,57-3.08,89.29,0,54.65,7.7,84.67,9.24,60.08,29.92,65.18,78.92c3.08,29.51-8,37.59-15.11,75.49-7.36,39-6.09,45-16.21,45.18-33.87.72-60.16.93-36.3-18.31,0,0,6.63,3.25-12.92-31.5a12.22,12.22,0,0,0-13.37-5.92c-9.79,2.23-26.58,5.24-43.74,4.57a21.54,21.54,0,0,0-20.05,11.59c-6.68,12.95-17.51,31.65-26.79,37-14.62,8.47-41.55,3.17-41.08-2.2,1.15-13.37,13.88-14.73,14.91-17.81,2.61-7.78-21.12-19.28-29.27-58.14a13.31,13.31,0,0,0-17.44-9.76c-12.74,4.47-31.88,10.83-55.66,7.46,0,0-19.08,12.22-35.24,2.22S7022,7217.7,7022,7217.7Z" transform="translate(-7018.62 -7092.97)"/><path id="_Path_6" data-name="&lt;Path&gt;" class="cls-2" d="M7070.12,7161.13s12.7-4.91,16.16,0,.29,17.32-2.6,19.63A24,24,0,0,0,7070.12,7161.13Z" transform="translate(-7018.62 -7092.97)"/><path id="_Path_7" data-name="&lt;Path&gt;" class="cls-3" d="M7070.12,7161.13s15.78-7.09,19.24-2.18,1,17.57-5.68,21.81A24,24,0,0,0,7070.12,7161.13Z" transform="translate(-7018.62 -7092.97)"/><circle id="_Path_8" data-name="&lt;Path&gt;" class="cls-3" cx="42.69" cy="107.08" r="3.18"/><path id="_Path_9" data-name="&lt;Path&gt;" class="cls-2" d="M7386.16,7166.48c1.28,4.77-18,2-22.74,0-5.81-2.51-5.75-3-7.33-9.88s-2.49-13.61,3.68-15C7359.77,7141.59,7380.32,7144.81,7386.16,7166.48Z" transform="translate(-7018.62 -7092.97)"/><path id="_Path_10" data-name="&lt;Path&gt;" class="cls-5" d="M7033.15,7193.3c-3.08,17.35-11.13,24.4-11.13,24.4s-5.65,8.5,7.22,14.32c16.76,7.57,34.34-3.95,34.34-3.95C7055.08,7204.6,7041.56,7195.44,7033.15,7193.3Z" transform="translate(-7018.62 -7092.97)"/><path id="_Path_11" data-name="&lt;Path&gt;" class="cls-6" d="M7028.34,7231.46s8.85-9.83-1.92-15.89S7015.83,7228,7028.34,7231.46Z" transform="translate(-7018.62 -7092.97)"/></g></g></g></svg>