<svg id="Layer_1" data-name="Layer 1" xmlns="http://www.w3.org/2000/svg" viewBox="0 0 312.41 203.11"><defs><style>.cls-1{fill:#169b8e;}.cls-2{fill:#00877d;}.cls-3{fill:#57c487;}.cls-4{fill:#000e23;opacity:0.15;}.cls-5{fill:#d57a7a;}.cls-6{fill:#002638;}.cls-20,.cls-21,.cls-6{opacity:0.2;}.cls-7{fill:#006b60;}.cls-15,.cls-16,.cls-8,.cls-9{fill:none;stroke:#fff;stroke-linecap:round;}.cls-8,.cls-9{stroke-linejoin:round;}.cls-8{stroke-width:1.03px;}.cls-9{stroke-width:1.1px;}.cls-10{fill:#f9738a;}.cls-11{fill:#ffc1ac;}.cls-12,.cls-23{fill:#f89585;}.cls-12{opacity:0.3;}.cls-13{fill:#835474;}.cls-14{fill:#fff;}.cls-15,.cls-16{stroke-miterlimit:10;}.cls-15{stroke-width:0.68px;}.cls-16{stroke-width:0.65px;}.cls-17{fill:#919fb0;}.cls-18,.cls-20,.cls-22{fill:#00314e;}.cls-18{opacity:0.1;}.cls-19{fill:#b5c0cd;}.cls-24{fill:#1e2132;}.cls-25{fill:#da7b7b;}.cls-26{fill:#672d2d;opacity:0.5;}</style></defs><title>czilout3</title><path class="cls-1" d="M7120.58,7159s8.66,28.25,18.28,34.77a6.89,6.89,0,0,1-6.59-.57,93.79,93.79,0,0,0,16.57,20c-3,3.2.49,11.08.49,11.08l3.06,12.42-6-.64s5.52,34.73,10.16,38.23c0,0-37.58,2.31-70.9-5.9,0,0,7.31-21.37,12.38-35.29,0,0-7.13,5.42-14.49,3.51,0,0,23.84-31.82,27.19-45.31,0,0-3.84,1.93-7.16.76C7103.53,7192.11,7117.68,7171.2,7120.58,7159Z" transform="translate(-7043.75 -7099.13)"/><path class="cls-1" d="M7308.73,7212.81c-2.78,11.22-12.43,25-15.62,29.31,11.24-.11,22.48-.32,33.63,1.4,7.19,1.11,14.2,3,21.25,4.78l-7.24-4.42s3.78,0,11-3.43c-9.77-8.52-21.42-25.74-21.42-25.74a6.89,6.89,0,0,0,6.58.57c-9.62-6.52-18.28-34.77-18.28-34.77-2.9,12.16-17.05,33.07-17.05,33.07C7304.89,7214.74,7308.73,7212.81,7308.73,7212.81Z" transform="translate(-7043.75 -7099.13)"/><path class="cls-1" d="M7221.49,7134.84s8.66,28.25,18.28,34.77a6.89,6.89,0,0,1-6.58-.57,93.79,93.79,0,0,0,16.57,20c-3,3.2.49,11.08.49,11.08l3.06,12.42-6-.64s5.52,34.73,10.16,38.23c0,0-37.58,2.31-70.9-5.9,0,0,7.31-21.37,12.38-35.29,0,0,3.41-9.2-4-11.11,0,0,13.31-17.2,16.65-30.69,0,0-3.84,1.93-7.16.76C7204.43,7167.91,7218.59,7147,7221.49,7134.84Z" transform="translate(-7043.75 -7099.13)"/><path class="cls-1" d="M7280.18,7137.93s8.66,28.25,18.28,34.77a6.89,6.89,0,0,1-6.58-.57,93.78,93.78,0,0,0,16.57,20c-3,3.2.49,11.08.49,11.08l3.06,12.42-6-.64s5.52,34.73,10.16,38.23c0,0-37.58,2.31-70.9-5.9,0,0,7.31-21.37,12.38-35.29,0,0,3.41-9.2-4-11.11,0,0,13.31-17.2,16.65-30.69,0,0-3.84,1.93-7.16.76C7263.12,7171,7277.28,7150.09,7280.18,7137.93Z" transform="translate(-7043.75 -7099.13)"/><path class="cls-2" d="M7211.63,7256.51c7.21-4.7,24.45-28.52,24.45-28.52s-18.18,6.27-11.28.31,19.43-28.52,19.43-28.52-11.6,3.76-10,2.19,19.37-34,20.62-36.2c.95-1.77,4.28,7.43,8.18,14.2,5.58,9.69,12.25,21.11,13.14,22,1.57,1.57-10-2.19-10-2.19s12.54,22.57,19.43,28.52-11.28-.31-11.28-.31,17.24,23.82,24.45,28.52c5.07,3.31-12.17,5.84-26.12,6-13.18.61-34.57,1.2-46.27-.59C7216.16,7260.93,7207.92,7258.93,7211.63,7256.51Z" transform="translate(-7043.75 -7099.13)"/><path class="cls-1" d="M7153.53,7127.12s8.66,28.25,18.28,34.77a6.89,6.89,0,0,1-6.58-.57,93.78,93.78,0,0,0,16.57,20c-3,3.2.49,11.08.49,11.08l3.06,12.42-6-.64s5.52,34.73,10.16,38.23c0,0-37.58,2.31-70.9-5.9,0,0,7.31-21.37,12.38-35.29,0,0-7.13,5.42-14.49,3.51,0,0,23.84-31.82,27.19-45.31,0,0-3.84,1.93-7.16.76C7136.48,7160.19,7150.63,7139.28,7153.53,7127.12Z" transform="translate(-7043.75 -7099.13)"/><path class="cls-2" d="M7191.56,7142.78s-10.68,27.64-21,33.52a7.42,7.42,0,0,0,6.87-.14A94.15,94.15,0,0,1,7159,7195c2.9,3.39,9,1.94,9,1.94l-14,21.3,6.29-.24s-10.34,16.21-15.36,19.41c0,0,38.87,4.75,73.94-1.28,0,0-13.2-17.26-17.63-31.48a21.55,21.55,0,0,0,14.19,2.71s-12.79-18-15.45-31.72c0,0,3.87,2.18,7.39,1.22C7207.28,7176.9,7193.84,7155.1,7191.56,7142.78Z" transform="translate(-7043.75 -7099.13)"/><path class="cls-2" d="M7106.61,7165.94s-10.68,27.64-21,33.52a7.42,7.42,0,0,0,6.87-.14,94.15,94.15,0,0,1-18.4,18.88c2.9,3.39,9,1.94,9,1.94l-14,21.3,6.29-.24s-10.34,16.21-15.36,19.41c0,0,38.87,4.75,73.94-1.28,0,0-13.2-17.26-17.63-31.48a21.55,21.55,0,0,0,14.19,2.71s-12.79-18-15.45-31.72c0,0,3.87,2.18,7.39,1.22C7122.33,7200.07,7108.89,7178.27,7106.61,7165.94Z" transform="translate(-7043.75 -7099.13)"/><path class="cls-3" d="M7356.15,7264.91c-.2-5.51-2.31-11.68-7.1-15.32a40.05,40.05,0,0,0-13.1-6.51c-9.33-2.93-19.51-3.83-29.24-5-1-.12,4,1.84,3.07,1.72,1.09-11.86-41.42-20.22-48.78-20.81-5.83-.46-11.71-.55-17.51-1.26l2,.24a207.31,207.31,0,0,0-29.79-1.16c-4.87.13-9.73.34-14.6.52l-5.32-.2c-7.7-.25-15.41-.5-23.11-.46a63,63,0,0,0-21.39,3.33c-6.52,2.38-13.87,5.56-17.62,11.35-16.68.91-22.16-.37-45.85-.37-11.67,0-28,1.37-36.73,8.91-4.43,3.83-7.43,9.54-7.29,15.18.17,7.25,4.51,12.62,10.72,16.63,5.18,3.35,11.36,3.73,17.42,4.16,5.84.41,2.57.67,8.42.94l12.44.54c-.31.81-.28,1.34-.68,4.24a27.67,27.67,0,0,0,.72,4.54c.73,2.5,2.3,4.24,4.1,6.21a16.59,16.59,0,0,0,8.2,4.17,231,231,0,0,0,30.23,2.71c21.56.58,52.27-.48,73.8-1.42,18.4-.8,36.78-1.55,55.16-2.6,9.68-.55,19.35-.95,29-1.32,12.74-.48,26-1.12,38.35-4.31S7356.64,7278.15,7356.15,7264.91Z" transform="translate(-7043.75 -7099.13)"/><ellipse class="cls-4" cx="160.74" cy="172.54" rx="113.52" ry="11.33"/><path class="cls-5" d="M7103.25,7192.52s-3.55,77.1-1.33,78.38,11.1,1.93,12-1.28-2.22-77.74-2.22-77.74Z" transform="translate(-7043.75 -7099.13)"/><path class="cls-6" d="M7112.1,7203.89c-.23-9.45,0-13.46,0-13.46l-8.85,2.08s-.19,8.12-.75,16.67C7106,7208.23,7109.61,7206.84,7112.1,7203.89Z" transform="translate(-7043.75 -7099.13)"/><path class="cls-7" d="M7062.33,7190.1c7.21-4.7,24.45-28.52,24.45-28.52s-18.18,6.27-11.28.31,19.43-28.52,19.43-28.52-11.6,3.76-10,2.19,19.37-34,20.62-36.2c.95-1.77,4.28,7.43,8.18,14.2,5.58,9.69,12.25,21.11,13.14,22,1.57,1.57-10-2.19-10-2.19s12.54,22.57,19.43,28.52-11.28-.31-11.28-.31,17.24,23.82,24.45,28.52c5.07,3.3-12.17,5.84-26.12,6-13.18.61-34.57,1.2-46.27-.59C7066.85,7194.52,7058.62,7192.52,7062.33,7190.1Z" transform="translate(-7043.75 -7099.13)"/><path class="cls-5" d="M7306.1,7194.06s-3.55,77.1-1.33,78.38,11.1,1.93,12-1.28-2.22-77.74-2.22-77.74Z" transform="translate(-7043.75 -7099.13)"/><path class="cls-6" d="M7315.09,7208c-.54-7.64-.56-14.56-.56-14.56l-8.43.64s-.43,8.08-1,16.64C7308.65,7209.74,7311.5,7208.76,7315.09,7208Z" transform="translate(-7043.75 -7099.13)"/><path class="cls-7" d="M7265.17,7191.64c7.21-4.7,24.45-28.52,24.45-28.52s-18.18,6.27-11.28.31,19.43-28.52,19.43-28.52-11.6,3.76-10,2.19,19.37-34,20.62-36.2c.95-1.77,4.28,7.43,8.18,14.2,5.58,9.69,12.25,21.11,13.14,22,1.57,1.57-10-2.19-10-2.19s12.54,22.57,19.43,28.52-11.28-.31-11.28-.31,17.24,23.82,24.45,28.52c5.07,3.3-12.17,5.84-26.12,6-13.18.61-34.57,1.2-46.27-.59C7269.7,7196.06,7261.46,7194.06,7265.17,7191.64Z" transform="translate(-7043.75 -7099.13)"/><path class="cls-8" d="M7101.52,7218.13l11.33-.51s48.58,59.68,121.17,46.81c70.42-12.49,70.34-50.93,70.34-50.93l11.84-2.06" transform="translate(-7043.75 -7099.13)"/><path class="cls-8" d="M7304.37,7213.5s-38.87,27.29-104.25,27.8c-63.22.5-87.26-23.68-87.26-23.68" transform="translate(-7043.75 -7099.13)"/><path class="cls-8" d="M7101.78,7218.09c-.51-3.35-4.63-8.71-6.69-3.56-1.54,3.6,4.2,4.08,6.26,3.56-1.54.26-10.12,3.13-7.55,6.22,2.06,2.57,6.44-5.15,7.72-6.18" transform="translate(-7043.75 -7099.13)"/><path class="cls-8" d="M7101.74,7218.39c-3.09,7-7.42,16-12.31,21.88" transform="translate(-7043.75 -7099.13)"/><path class="cls-9" d="M7315.61,7211.91c.59-3.35,5.28-8.71,7.62-3.56,1.76,3.6-4.79,4.08-7.13,3.56,1.76.26,11.53,3.13,8.6,6.22-2.35,2.57-7.33-5.15-8.8-6.18" transform="translate(-7043.75 -7099.13)"/><path class="cls-9" d="M7315.66,7212.21c3.52,7,8.45,16,14,21.88" transform="translate(-7043.75 -7099.13)"/><path class="cls-10" d="M7147.34,7247.48l-1.8-14.67s51.23,11.58,78.51,8a240.9,240.9,0,0,0,47.88-11.33l17,14.42s-20.59,17-49.94,21.11S7175.15,7267.81,7147.34,7247.48Z" transform="translate(-7043.75 -7099.13)"/><path class="cls-11" d="M7167.92,7278.06,7161,7292.8l-13-.1,17.49,8.43a166,166,0,0,1,9.17-19.89Z" transform="translate(-7043.75 -7099.13)"/><path class="cls-12" d="M7169,7292.77c1.53-3.36,3.47-7.38,5.69-11.53l-6.79-3.18-4.56,9.77A42.47,42.47,0,0,1,7169,7292.77Z" transform="translate(-7043.75 -7099.13)"/><path class="cls-13" d="M7160.94,7291.69l1,2.1,6.75,2.38-3.5,6.08-19.19-9.41s0-1.1,1.89-1.92C7150.34,7289.84,7160.94,7291.69,7160.94,7291.69Z" transform="translate(-7043.75 -7099.13)"/><path class="cls-14" d="M7153.47,7290.72c-2.35-.19-4.59-.23-5.54.2-1.85.82-1.89,1.92-1.89,1.92l7.15,3.51C7153.36,7294.47,7153.46,7292.6,7153.47,7290.72Z" transform="translate(-7043.75 -7099.13)"/><polygon class="cls-14" points="102.82 192.43 102.29 193.7 121.48 203.11 122.29 201.68 102.82 192.43"/><polygon class="cls-13" points="115.47 192.53 118.01 189.61 120.75 192.89 117.96 196.1 115.47 192.53"/><line class="cls-15" x1="111.66" y1="191.71" x2="111.97" y2="193.8"/><line class="cls-15" x1="113.42" y1="191.86" x2="113.72" y2="193.95"/><line class="cls-15" x1="115.22" y1="192.1" x2="115.53" y2="194.19"/><path class="cls-11" d="M7153.38,7232.69l-15.49-2.1-3.62-11.93-2.73,18.45a159.52,159.52,0,0,1,20.87,2.71Q7152.9,7236.26,7153.38,7232.69Z" transform="translate(-7043.75 -7099.13)"/><path class="cls-12" d="M7140.21,7237.91c3.51.44,7.76,1.07,12.21,1.92q.48-3.57,1-7.14l-10.26-1.39A40.81,40.81,0,0,1,7140.21,7237.91Z" transform="translate(-7043.75 -7099.13)"/><path class="cls-13" d="M7138.89,7230.19l-1.63,1.55-.25,6.87-6.58-1.47,3.14-20.29s1-.28,2.3,1.19C7137.55,7219.95,7138.89,7230.19,7138.89,7230.19Z" transform="translate(-7043.75 -7099.13)"/><path class="cls-14" d="M7137.65,7223.07c-.49-2.21-1.1-4.27-1.77-5-1.28-1.46-2.3-1.19-2.3-1.19l-1.17,7.56C7134.17,7224,7135.92,7223.6,7137.65,7223.07Z" transform="translate(-7043.75 -7099.13)"/><polygon class="cls-14" points="91.15 117.85 89.83 117.72 86.69 138.01 88.23 138.34 91.15 117.85"/><polygon class="cls-13" points="94.67 129.48 98.08 130.96 95.86 134.42 92.11 132.78 94.67 129.48"/><line class="cls-16" x1="94.33" y1="125.75" x2="92.51" y2="126.63"/><line class="cls-16" x1="94.7" y1="127.4" x2="92.87" y2="128.28"/><line class="cls-16" x1="94.99" y1="129.12" x2="93.17" y2="130"/><path class="cls-17" d="M7233.84,7261.89s-32.69,2.83-44.53.77l-16.47,28.06s-7.21-.77-9.78-5.92c0,0,13.64-33.21,17.25-35.52s29.6-.51,29.6-.51l-1.29,3.09s-46.59-5.92-64.1-12.1l-1-9s73.62,7,82.63,5.41,7.72,25.74,7.72,25.74" transform="translate(-7043.75 -7099.13)"/><path class="cls-18" d="M7219.33,7262.88c8.13-.44,14.51-1,14.51-1s1.29-27.29-7.72-25.74c-2,.34-7.18.27-14-.06C7211.52,7245.16,7213.6,7255.89,7219.33,7262.88Z" transform="translate(-7043.75 -7099.13)"/><path class="cls-18" d="M7207.39,7248.61a57.87,57.87,0,0,1,4.13-12.54c-24.15-1.18-68-5.32-68-5.32l1,9c9.06,3.2,25.91,6.32,40.06,8.6C7191,7247.77,7202.37,7248.32,7207.39,7248.61Z" transform="translate(-7043.75 -7099.13)"/><path class="cls-19" d="M7162.1,7284.2s2,5.41,11.15,6.86l1.29-2.75s-7.81-3.95-10.38-7.29Z" transform="translate(-7043.75 -7099.13)"/><path class="cls-19" d="M7144.32,7229.84s-3.38,3.66-.93,10.82l2.6-.23s0-7.21,1.56-10.45Z" transform="translate(-7043.75 -7099.13)"/><path class="cls-13" d="M7260.09,7243.19a4.88,4.88,0,0,1,4.63-4.46c.86-.1,7-1.54,8.58-2.06,6.56-2.18,17.75-6.27,17.33-7.38-.51-1.37-5.32-4.63-5.32-4.63l6.52-7s12.36,7.38,13.56,14.59c.79,4.74-49.17,24-49.17,24Z" transform="translate(-7043.75 -7099.13)"/><path class="cls-20" d="M7290.64,7229.29c.3.79-5.34,3.11-11,5.16,3.4,2.34,7.84,3.07,11.95,3.39,1.58.12,3.51.39,5.53.6,5.08-2.68,8.46-5,8.25-6.24-1.2-7.21-13.56-14.59-13.56-14.59l-6.52,7S7290.12,7227.91,7290.64,7229.29Z" transform="translate(-7043.75 -7099.13)"/><path class="cls-13" d="M7271.16,7242.84c4,11.46-39.88,21.74-41.44,22.14-2.2.55-18-15.44-16-30.63,11.46-5.42,35.14-10.68,35.14-10.68s14.54-20.85,17.76-21.37,18,10.68,18,10.68-8.24.25-14.89,3.95c-5.15,2.86-9.31,8.89-8.15,11.5C7264.29,7234.41,7267.15,7231.39,7271.16,7242.84Z" transform="translate(-7043.75 -7099.13)"/><g class="cls-21"><path class="cls-22" d="M7262.43,7224.26a19.78,19.78,0,0,1,7.36-7.32c6.65-3.69,14.89-3.95,14.89-3.95s-14.8-11.2-18-10.68c-.94.15-2.85,2-5.08,4.63A47.39,47.39,0,0,0,7262.43,7224.26Z" transform="translate(-7043.75 -7099.13)"/><path class="cls-22" d="M7238.67,7251.3c-9-4.14-17.07-9.66-18.87-19.42-2.21.81-4.27,1.64-6,2.48-2.06,15.19,13.76,31.18,16,30.63.91-.23,15.92-3.75,27.68-8.9A48.55,48.55,0,0,1,7238.67,7251.3Z" transform="translate(-7043.75 -7099.13)"/></g><path class="cls-11" d="M7279.85,7232.93l-10.75,5.54a13.22,13.22,0,0,1-5.81-7.09l9.62-4.81Z" transform="translate(-7043.75 -7099.13)"/><path class="cls-12" d="M7273.31,7236.66l6.53-3.82-6.94-6.36-8.58,4.43.19.58C7266.78,7235.8,7269.73,7236.48,7273.31,7236.66Z" transform="translate(-7043.75 -7099.13)"/><path class="cls-11" d="M7290.2,7222.84s2.77-3.54-.74-9.05-7.66-9-13.74-4.26c-3.17,2.45-17.21,11.7-11.43,20.31C7271.27,7240.25,7282.69,7234.07,7290.2,7222.84Z" transform="translate(-7043.75 -7099.13)"/><path class="cls-11" d="M7281.46,7231.39s1.78,5.54,6.94-.53c3.7-4.36-4.72-5-7.38.23" transform="translate(-7043.75 -7099.13)"/><path class="cls-22" d="M7293.81,7206.74c-3.16-2.46-5.2-2.48-7-2.36a6,6,0,0,1-4.41-3.3,3,3,0,0,0,.23,2.83,3.25,3.25,0,0,1-1.65-3.86c-4.44,3.48-3.22,7.27-3.22,7.27l-2-2.38c.45,6.76,7.21,9.85,7.21,9.85l-2.25-.26a15.25,15.25,0,0,0,7.85,5.15c.19.13-1-.73-1-.73s-3.51,1.74-3.59,4.05a7.59,7.59,0,0,0,.27,3.06l-2.54,2.57,1.5,1.51,3-2.37a2.32,2.32,0,0,1,2.91.39s8.39-3.7,5.88-9.67C7296.69,7215.41,7298,7210,7293.81,7206.74Z" transform="translate(-7043.75 -7099.13)"/><path class="cls-23" d="M7269.31,7223.5c-.2-.87-.32-1.74-.44-2.62l0-.14.13-.08c1.27-.74,2.55-1.44,3.86-2.11s2.62-1.32,4-1.91c-1.22.82-2.48,1.57-3.75,2.31s-2.56,1.43-3.86,2.1l.11-.21C7269.35,7221.72,7269.36,7222.61,7269.31,7223.5Z" transform="translate(-7043.75 -7099.13)"/><path class="cls-24" d="M7280.1,7222.77s0,.1-.12.26a1,1,0,0,1-.17.28,1.9,1.9,0,0,1-.34.33,2,2,0,0,1-1.13.38,1.94,1.94,0,0,1-.69-.1,2.6,2.6,0,0,1-.65-.34,2.39,2.39,0,0,1-.49-.57,1.62,1.62,0,0,1-.23-.69,1.56,1.56,0,0,1,.05-.67,2.16,2.16,0,0,1,.24-.52,2.1,2.1,0,0,1,.84-.67s0,.11-.1.27a3.94,3.94,0,0,0-.2.64c0,.13,0,.26,0,.39a1.43,1.43,0,0,0,.08.38,1.2,1.2,0,0,0,.18.34,1.46,1.46,0,0,0,.28.29,1.6,1.6,0,0,0,.36.22,1.76,1.76,0,0,0,.4.13,1.78,1.78,0,0,0,.41,0,2.36,2.36,0,0,0,.4,0c.13,0,.23-.07.34-.1a1.43,1.43,0,0,0,.29-.13Z" transform="translate(-7043.75 -7099.13)"/><path class="cls-24" d="M7274,7217.17s0,.1-.12.26a1,1,0,0,1-.17.28,1.9,1.9,0,0,1-.34.33,2,2,0,0,1-1.13.38,1.94,1.94,0,0,1-.69-.1,2.6,2.6,0,0,1-.65-.34,2.39,2.39,0,0,1-.49-.57,1.62,1.62,0,0,1-.23-.7,1.56,1.56,0,0,1,.05-.67,2.16,2.16,0,0,1,.24-.52,2.1,2.1,0,0,1,.84-.67s0,.11-.1.27a3.93,3.93,0,0,0-.2.64c0,.13,0,.26,0,.39a1.43,1.43,0,0,0,.08.38,1.19,1.19,0,0,0,.18.34,1.46,1.46,0,0,0,.28.29,1.61,1.61,0,0,0,.36.22,1.81,1.81,0,0,0,.82.17,2.36,2.36,0,0,0,.4,0c.13,0,.23-.07.34-.1a1.43,1.43,0,0,0,.29-.13Z" transform="translate(-7043.75 -7099.13)"/><path class="cls-22" d="M7282.79,7222.31s-2.08-3-4.23-3.86c-.53-.4-1.17-1.27.48-1.57C7279.89,7216.73,7284.19,7219.39,7282.79,7222.31Z" transform="translate(-7043.75 -7099.13)"/><path class="cls-22" d="M7272.48,7212.4s2.81,1.37,3.34,3.75a1.79,1.79,0,0,0,1-1.22C7277,7214.06,7274.77,7210.36,7272.48,7212.4Z" transform="translate(-7043.75 -7099.13)"/><path class="cls-23" d="M7287.47,7230.09a3.91,3.91,0,0,0,.1-.66.87.87,0,0,0-.12-.55c-.09-.11-.27-.11-.47-.06l-.29.11a1.09,1.09,0,0,0-.3.13,5.62,5.62,0,0,0-1,.76,8.28,8.28,0,0,0-.92.93l0-.17a2.11,2.11,0,0,1,0,.62,1,1,0,0,1-.27.59.66.66,0,0,1-.63.12,1.84,1.84,0,0,1-.52-.25,2.85,2.85,0,0,0,.54.11.5.5,0,0,0,.42-.15,1.22,1.22,0,0,0,0-.94l0-.09.06-.08a8.7,8.7,0,0,1,.93-1,4.59,4.59,0,0,1,1.17-.81,1.35,1.35,0,0,1,.33-.12,2.11,2.11,0,0,1,.35-.09,1.23,1.23,0,0,1,.4,0,.59.59,0,0,1,.36.25.92.92,0,0,1,.05.75A2.48,2.48,0,0,1,7287.47,7230.09Z" transform="translate(-7043.75 -7099.13)"/><path class="cls-25" d="M7272.85,7230.58l-7.94-4.62a4.29,4.29,0,0,1,5.66-.87A4.85,4.85,0,0,1,7272.85,7230.58Z" transform="translate(-7043.75 -7099.13)"/><path class="cls-26" d="M7268.31,7226.61a4.42,4.42,0,0,1,4.64,1.85,4.71,4.71,0,0,0-2.38-3.38,4.29,4.29,0,0,0-5.66.87l2.22,1.29A2.82,2.82,0,0,1,7268.31,7226.61Z" transform="translate(-7043.75 -7099.13)"/></svg>