<svg id="Layer_1" data-name="Layer 1" xmlns="http://www.w3.org/2000/svg" viewBox="0 0 295.58 393.82"><defs><style>.cls-1{fill:#38302a;opacity:0.1;}.cls-2{fill:#b78855;}.cls-3{fill:#956a46;}.cls-4{fill:#89623f;}.cls-5{fill:#cf9f66;}.cls-6{fill:#e4ac74;}.cls-7{fill:#9e7750;}</style></defs><title>deer</title><g id="_Group_" data-name="&lt;Group&gt;"><ellipse id="_Path_" data-name="&lt;Path&gt;" class="cls-1" cx="40.68" cy="390.08" rx="36.49" ry="3.74"/><ellipse id="_Path_2" data-name="&lt;Path&gt;" class="cls-1" cx="148.24" cy="390.08" rx="36.49" ry="3.74"/><g id="_Group_2" data-name="&lt;Group&gt;"><path id="_Path_3" data-name="&lt;Path&gt;" class="cls-2" d="M7314.22,7124.75c2,2.31,3.93,4.69,5.74,7.16,4.21-4.65,13.69-15.67,15.64-22.74,0,0-19.38-3.92-28.81,8.85C7309.83,7119.39,7312.1,7122.3,7314.22,7124.75Z" transform="translate(-7098.92 -7004.52)"/><path id="_Path_4" data-name="&lt;Path&gt;" class="cls-3" d="M7179.71,7274.5s14.2,23.35-3.79,40.71c0,0-15.46,12.62-16.41,18.93,0,0,2.76,45.47,5.95,59.15a1.94,1.94,0,0,1-1.89,2.38h-9.12a1.94,1.94,0,0,1-1.94-1.88c-.25-9.09-1.64-48.4-7.21-58.7,0,0,12-23.35,0-52.7C7145.31,7282.39,7166.77,7266,7179.71,7274.5Z" transform="translate(-7098.92 -7004.52)"/><path id="_Path_5" data-name="&lt;Path&gt;" class="cls-3" d="M7258,7287.44v106.3a1.94,1.94,0,0,0,1.94,1.94h8.65a1.94,1.94,0,0,0,1.93-2.13c-1-9.45-4.34-47.75,2-63.19,7.26-17.67,19.56-33.13,20.51-68.48Z" transform="translate(-7098.92 -7004.52)"/><path id="_Path_6" data-name="&lt;Path&gt;" class="cls-4" d="M7300.62,7121s3-6.32.3-17.7-5-23.79-2.11-25.6,3.7-1.32,4.48,12,5.44,17.75,12,13.93,12.1-19,13.36-24.32,4.06-9.4,5.59-4.55-1.67,17.88-3.67,19.21,14.38-1,17.73-16-5-32.76-1.29-33.44,11,21.41,9.73,32.22c0,0,13.42-6.3,4.27-23.55s-12.26-24.63-8.22-25.36,2.91,2,6.85,9.9,8.35,14.51,13.54,11.32-1.47-20.49-4.82-26.39c-4.49-7.92-.24-10.17,1.79-9,4.32,2.5,13.68,21.72,11.52,32.7,0,0,7.07-6.1,4.58-21-2.83-17-6.74-18.5-3.79-20.64,3.79-2.75,23.58,25.85,2.58,53.1s-26.28,34.09-65,50.12c-4.54,1.88-9.5,2-12.94,14.79Z" transform="translate(-7098.92 -7004.52)"/><path id="_Path_7" data-name="&lt;Path&gt;" class="cls-5" d="M7335.59,7147a80.82,80.82,0,0,1-15.78-15.46s-8.25-14.83-12-14.83c0,0-17.21-4.8-31.56,5.68,0,0-13.88-9.47-25.56-9.15,0,0-2.84,8.52,14.83,22.72,0,0,6.31,35.66-24.3,51.12s-40.71,17-50.17,17-46.07-8.84-69.74,16.41a50.79,50.79,0,0,0-22.4,34.08s.63,9.47,4.42,16.09a15.05,15.05,0,0,0,7.89-8.84s-5.36,19.56,8.2,43.86c0,0,.32,11.68-11,22.09,0,0-.32,4.73,5,15.78,4.65,9.58,3.85,41.69,3.55,50.06a1.94,1.94,0,0,0,1.94,2h9.78a1.94,1.94,0,0,0,1.93-2.08c-.76-10.46-4-57-1.74-62.61,2.52-6.31,20.83-19.56,25.56-31.56s2.84-19.88,2.84-19.88,18.93-1.26,30.29,6.63,35,12.94,35,12.94a342.35,342.35,0,0,0,7.26,49.23l2.43,45.5a1.94,1.94,0,0,0,1.93,1.83h10.09a1.94,1.94,0,0,0,1.94-2c-.1-11.27-.29-68.38,5.39-93.34,0,0,27.77,0,38.18-25.88,0,0,11.68-21.77,19.56-31.56s12-26.51,4.42-43.55a44.69,44.69,0,0,1-1.26-32.5s19.88,2.21,26.82-.95S7345.69,7154.59,7335.59,7147Z" transform="translate(-7098.92 -7004.52)"/><path id="_Path_8" data-name="&lt;Path&gt;" class="cls-6" d="M7111.23,7261.88s1.1-11.75,2.76-14.59c0,0-9.47,5.21-10.65,23.43A18.63,18.63,0,0,0,7111.23,7261.88Z" transform="translate(-7098.92 -7004.52)"/><path id="_Path_9" data-name="&lt;Path&gt;" class="cls-7" d="M7289.41,7124a3.45,3.45,0,0,0,1.83-4.33,37.8,37.8,0,0,1-2.07-15.54c.69-12.83.69-26.7-2.77-28.09s-4.26-.69-2.48,13.87-2.38,20.26-10.18,17.41-16.82-18.11-19.24-23.65-6.24-9.36-6.93-3.81,5.34,19,7.76,20-15.74,1.8-22.33-13.8-1-36.41-5.2-36.41-7.63,25.31-4.16,36.75c0,0-15.74-4.16-9.26-24.62s8.39-29,3.88-29-2.76,2.69-5.45,12-6.16,17.34-12.41,14.91-2.45-22.44,0-29.47c3.29-9.45-1.74-11-3.71-9.36-4.18,3.55-10.5,26.18-6,37.62,0,0-8.84-5.2-9.1-21.84-.3-18.93,3.64-21.32,0-23.06-4.64-2.22-20.39,32.59,7.69,57.9s35.14,31.66,80.18,41.35c4.76,1,9.61.41,15.1,10a3.41,3.41,0,0,0,4.54,1.29l.22-.11Z" transform="translate(-7098.92 -7004.52)"/><path id="_Path_10" data-name="&lt;Path&gt;" class="cls-3" d="M7340.18,7152.45s-4.81,1.46-2.27,6.79c1.8,3.78,4.86,3.4,4.86,3.4S7348.66,7152.87,7340.18,7152.45Z" transform="translate(-7098.92 -7004.52)"/><circle id="_Path_11" data-name="&lt;Path&gt;" class="cls-3" cx="195.03" cy="136.46" r="2.48"/></g><path id="_Path_12" data-name="&lt;Path&gt;" class="cls-6" d="M7328.14,7208a19.56,19.56,0,0,0-8.09-12,22.28,22.28,0,0,1-9.44-21.59,36.68,36.68,0,0,1,1.87-7.33c-30.94,5-37-7.88-37-7.88-17,42.94,2.36,51.05,7.09,75.64s-30.89,65.55-30.89,65.55l1.52-.08c5.88-.43,27.65-3.5,36.61-25.77,0,0,7.06-13.16,13.9-23.61a30.58,30.58,0,0,0,14.06-21.15l1.36,1.57c3.11-6.81,0-15.41,0-15.41l5.48,1.48a21.26,21.26,0,0,0-3.68-10.45A15.15,15.15,0,0,0,7328.14,7208Z" transform="translate(-7098.92 -7004.52)"/></g></svg>