<svg xmlns="http://www.w3.org/2000/svg" viewBox="0 0 385.12 459.24"><defs><style>.cls-1{isolation:isolate;}.cls-2,.cls-3{fill:#16773c;}.cls-3{opacity:0.4;}.cls-10,.cls-11,.cls-13,.cls-14,.cls-3,.cls-4,.cls-7,.cls-8{mix-blend-mode:multiply;}.cls-4{opacity:0.8;}.cls-14,.cls-5{fill:#096634;}.cls-6{fill:#929497;}.cls-10,.cls-14,.cls-7{opacity:0.3;}.cls-10,.cls-9{fill:#895d3b;}.cls-11{opacity:0.7;}.cls-12{fill:#1f8e45;}.cls-13{fill:#17645b;opacity:0.2;}</style></defs><title>drzewo2</title><g class="cls-1"><g id="Layer_1" data-name="Layer 1"><path class="cls-2" d="M7193.28,7102.9c.12-2.88-1.85-3.12-1.85-3.12s3-4.38,1.42-6.23-4.61-2.17-4.61-2.17,2-2.37,1.26-3.66-3.73-2.45-3.73-2.45,4.05-3.71,3.08-6.83-4.73-3.24-4.73-3.24.86-2.92-.4-3.93-4.32-.61-4.32-.61-1.91-5.91-7-7.36-7.44,2.11-7.44,2.11-.23-3.15-3-4-3.76.75-3.76.75a10.75,10.75,0,0,0-5.09-5.56c-4-2.08-7.55-.4-10.15,4.11a6.61,6.61,0,0,0-5.87-.42c-3.64,1.23-2.31,4.17-2.31,4.17s-3.54.53-4.66,3.36-.11,3.76-.11,3.76a13.41,13.41,0,0,0-5.23,4.23,19.55,19.55,0,0,0-3.37-.82,9.3,9.3,0,0,0-4.09-3.11c-2.26-.63-6.49,2.73-6.49,2.73s-3.42-2.79-5.83-1.72-3.53,4.31-3.53,4.31-3.23-.79-4.69.9a5.69,5.69,0,0,0-1.3,3.79,6.79,6.79,0,0,0-3,4.38c-.38,2.79.92,3.68.92,3.68s-2.26,1.9-2.85,6.56c-.53,4.23,2.42,5.66,3,5.89h0l.07,0s-2.61,2.9-.84,5.41a7.15,7.15,0,0,0,4.73,2.8,3.32,3.32,0,0,0,0,3.93c1.37,2.37,4.14.7,4.14.7s.18,3.71,5.88,5.39,9.6-3.27,9.6-3.27,4.91,2.71,8,.12a6.32,6.32,0,0,0,.77-.78,30.57,30.57,0,0,0,4.32,2.53s3.81,6.75,10.61,6.08,9.17-4.14,9.17-4.14,1.6,4.25,4.61,4.41,4.8-3.75,4.8-3.75a6,6,0,0,0,5.34.18c2.66-1.37,4.23-5.06,4.23-5.06s3,3.52,9.26,1.94,6-6.78,6-6.78,2.76-.37,3.91-2a9.91,9.91,0,0,0,1.39-4S7193.17,7105.78,7193.28,7102.9Z" transform="translate(-7007.18 -6971.08)"/><path class="cls-3" d="M7193.29,7095.25a8.39,8.39,0,0,1-2.48.82s.25,5.2-6,6.78-9.26-1.94-9.26-1.94-1.56,3.69-4.22,5.06a6,6,0,0,1-5.34-.18s-1.79,3.91-4.8,3.75-4.61-4.41-4.61-4.41-2.36,3.47-9.17,4.14-10.61-6.08-10.61-6.08a30.61,30.61,0,0,1-4.32-2.53,6.36,6.36,0,0,1-.77.78c-3.08,2.59-8-.12-8-.12s-3.89,4.94-9.6,3.26-5.88-5.39-5.88-5.39-2.77,1.68-4.14-.7a3.32,3.32,0,0,1,0-3.93,7.15,7.15,0,0,1-4.73-2.8c-1.76-2.51.84-5.41.84-5.41l-.07,0h0c-.56-.23-3.5-1.66-3-5.89a14.33,14.33,0,0,1,.71-3,2.79,2.79,0,0,0-1.08.75,5.69,5.69,0,0,0-1.3,3.79,6.79,6.79,0,0,0-3,4.38c-.38,2.79.92,3.68.92,3.68s-2.26,1.9-2.85,6.56c-.53,4.23,2.42,5.66,3,5.89h0l.07,0s-2.61,2.9-.84,5.41a7.15,7.15,0,0,0,4.73,2.8,3.32,3.32,0,0,0,0,3.93c1.37,2.37,4.14.7,4.14.7s.18,3.71,5.88,5.39,9.6-3.27,9.6-3.27,4.91,2.71,8,.12a6.32,6.32,0,0,0,.77-.78,30.57,30.57,0,0,0,4.32,2.53s3.81,6.75,10.61,6.08,9.17-4.14,9.17-4.14,1.6,4.25,4.61,4.41,4.8-3.75,4.8-3.75a6,6,0,0,0,5.34.18c2.66-1.37,4.23-5.06,4.23-5.06s3,3.52,9.26,1.94,6-6.78,6-6.78,2.76-.37,3.91-2a9.91,9.91,0,0,0,1.39-4s3.63-.36,3.74-3.24-1.85-3.12-1.85-3.12A11.86,11.86,0,0,0,7193.29,7095.25Z" transform="translate(-7007.18 -6971.08)"/><g class="cls-4"><path class="cls-5" d="M7177.62,7082.55l.05.11c2.16,4.58.48,7.54.41,7.66a.55.55,0,0,1-1-.55h0c.06-.1,1.44-2.61-.45-6.64s-4.14-3.51-4.24-3.49l-.62.11,0-.63a5.54,5.54,0,0,0-1.73-3.58c-1.42-1.22-3.81,1.09-3.84,1.11l-.6.59-.3-.79s-.95-2.42-2.56-2.87a2.56,2.56,0,0,0-2.3.65l-.85.66,0-1.08c0-.17-.2-4.32-5.44-5.87s-7,1.68-7,1.72l-.43.82-.52-.77s-1.41-2-3-1.39-1.15,3.29-1.14,3.32l.14.77-.77-.12a3.13,3.13,0,0,0-2,.34,1.28,1.28,0,0,0-.51.88,2.47,2.47,0,0,0,1.21,2.53l1.41.73-1.56.3c-.13,0-3.13.63-2.82,2.79a.55.55,0,1,1-1.09.16c-.29-2,1.26-3.18,2.64-3.72a3.5,3.5,0,0,1-.88-3,2.36,2.36,0,0,1,1-1.61,3.71,3.71,0,0,1,2.14-.58c-.06-1.08.09-3.12,1.89-3.85a3.5,3.5,0,0,1,3.87,1.2c.92-1.07,3.28-3,7.81-1.62s5.73,4.43,6.09,6a3.29,3.29,0,0,1,2.52-.35,5.47,5.47,0,0,1,3,2.84c1-.79,3.11-2.07,4.75-.66a6.43,6.43,0,0,1,2.05,3.83C7173.84,7078.58,7176,7079.13,7177.62,7082.55Z" transform="translate(-7007.18 -6971.08)"/></g><g class="cls-4"><path class="cls-5" d="M7163,7080.5a6.45,6.45,0,0,1,.06,5.06.55.55,0,0,1-1-.47,4.93,4.93,0,0,0-1.2-5.61,4.21,4.21,0,0,0-5.19-.65l-.59.41-.24-.68a3.38,3.38,0,0,0-1.74-1.75c-1.09-.46-2.31,1.23-2.32,1.25a.55.55,0,1,1-.91-.63c.07-.1,1.73-2.44,3.65-1.63a4.39,4.39,0,0,1,2.08,1.83,5.31,5.31,0,0,1,6,1A6,6,0,0,1,7163,7080.5Z" transform="translate(-7007.18 -6971.08)"/></g><g class="cls-4"><path class="cls-5" d="M7172.89,7087.52a4.62,4.62,0,0,1,.47,1.89,5.89,5.89,0,0,1-2,4.23.55.55,0,0,1-.72-.84,4.84,4.84,0,0,0,1.6-3.37c0-1.31-.86-2.59-2.45-3.79l-.22-.17v-.28a4.09,4.09,0,0,0-.87-2.67,1.52,1.52,0,0,0-1.25-.37.55.55,0,1,1-.11-1.1,2.6,2.6,0,0,1,2.11.65,4.9,4.9,0,0,1,1.21,3.21A7.59,7.59,0,0,1,7172.89,7087.52Z" transform="translate(-7007.18 -6971.08)"/></g><ellipse class="cls-6" cx="226.18" cy="440.74" rx="146.25" ry="18.5"/><path class="cls-2" d="M7337.25,7122.82c1.13-2.84-.75-3.76-.75-3.76s4.5-3.33,3.6-5.72-3.84-3.79-3.84-3.79,2.86-1.65,2.54-3.2-2.86-3.76-2.86-3.76,5.35-2.28,5.47-5.73-3.58-4.89-3.58-4.89,1.88-2.61,1-4.06-4.09-2.13-4.09-2.13.17-6.57-4.36-9.79-8.17-.51-8.17-.51.88-3.22-1.62-5-4-.57-4-.57a11.37,11.37,0,0,0-3.13-7.34c-3.22-3.47-7.4-3.05-11.58.53,0,0-1.65-2.43-5.71-2.48s-3.77,3.35-3.77,3.35-3.72-.71-5.83,1.71-1.43,3.72-1.43,3.72a14.18,14.18,0,0,0-6.71,2.38,20.59,20.59,0,0,0-3.07-2s-.95-3.11-3-4.54-7.44.44-7.44.44-2.44-4-5.22-3.76-5,3.06-5,3.06-2.95-1.93-5-.75a6,6,0,0,0-2.63,3.32,7.19,7.19,0,0,0-4.5,3.33c-1.36,2.65-.37,4-.37,4s-2.92,1.1-5.15,5.55c-2,4,.42,6.49.9,6.92l0,0,.06.05s-3.62,2-2.74,5.1A7.57,7.57,0,0,0,7239,7097a3.51,3.51,0,0,0-1.42,3.91c.54,2.85,3.89,2.15,3.89,2.15s-1.12,3.77,4,7.44,10.72.11,10.72.11,3.94,4.43,7.93,2.93a6.78,6.78,0,0,0,1-.5,32.25,32.25,0,0,0,3.42,4s1.43,8.07,8.45,9.8,10.6-.91,10.6-.91.1,4.81,3.05,6,6.1-2.06,6.1-2.06A6.34,6.34,0,0,0,7302,7132c3.14-.43,6-3.56,6-3.56s1.78,4.58,8.56,5.19,8.35-4.66,8.35-4.66,2.88.6,4.61-.64a10.49,10.49,0,0,0,2.81-3.55S7336.12,7125.66,7337.25,7122.82Z" transform="translate(-7007.18 -6971.08)"/><path class="cls-3" d="M7339.94,7115.18a8.86,8.86,0,0,1-2.76,0s-1.57,5.28-8.36,4.66-8.56-5.19-8.56-5.19-2.85,3.13-6,3.56a6.33,6.33,0,0,1-5.26-2.06s-3.16,3.28-6.11,2.06-3.05-6-3.05-6-3.58,2.63-10.6.91-8.45-9.8-8.45-9.8a32.25,32.25,0,0,1-3.42-4,6.78,6.78,0,0,1-1,.5c-4,1.5-7.93-2.93-7.93-2.93s-5.62,3.56-10.72-.11-4-7.44-4-7.44-3.35.7-3.89-2.15a3.51,3.51,0,0,1,1.42-3.91,7.57,7.57,0,0,1-3.74-4.46c-.88-3.12,2.74-5.1,2.74-5.1l-.06-.05,0,0c-.48-.43-2.91-2.89-.9-6.92a15.13,15.13,0,0,1,1.77-2.78,3,3,0,0,0-1.34.37,6,6,0,0,0-2.63,3.32,7.19,7.19,0,0,0-4.5,3.33c-1.36,2.65-.37,4-.37,4s-2.92,1.1-5.15,5.55c-2,4,.42,6.49.9,6.92l0,0,.06.05s-3.62,2-2.74,5.1A7.57,7.57,0,0,0,7239,7097a3.51,3.51,0,0,0-1.42,3.91c.54,2.85,3.89,2.15,3.89,2.15s-1.12,3.77,4,7.44,10.72.11,10.72.11,3.94,4.43,7.93,2.93a6.78,6.78,0,0,0,1-.5,32.25,32.25,0,0,0,3.42,4s1.43,8.07,8.45,9.8,10.6-.91,10.6-.91.1,4.81,3.05,6,6.1-2.06,6.1-2.06A6.34,6.34,0,0,0,7302,7132c3.14-.43,6-3.56,6-3.56s1.78,4.58,8.56,5.19,8.35-4.66,8.35-4.66,2.88.6,4.61-.64a10.49,10.49,0,0,0,2.81-3.55s3.75.92,4.87-1.91-.75-3.76-.75-3.76A12.52,12.52,0,0,0,7339.94,7115.18Z" transform="translate(-7007.18 -6971.08)"/><g class="cls-4"><path class="cls-5" d="M7328.76,7097v.13c.54,5.33-2.17,7.7-2.28,7.79a.58.58,0,0,1-.76-.89h0c.1-.08,2.36-2.1,1.88-6.78s-2.9-5-3-5l-.66-.11.19-.64a5.86,5.86,0,0,0-.47-4.18c-1-1.72-4.19-.25-4.22-.24l-.8.38,0-.89s-.1-2.75-1.55-3.77a2.71,2.71,0,0,0-2.52-.15l-1.09.36.34-1.09c.06-.18,1.32-4.38-3.37-7.77s-7.54-.77-7.57-.74l-.71.67-.25-1s-.69-2.54-2.52-2.45-2.3,2.88-2.31,2.91l-.13.82-.73-.39a3.32,3.32,0,0,0-2.14-.37,1.35,1.35,0,0,0-.82.7,2.61,2.61,0,0,0,.32,3l1.15,1.23-1.67-.25c-.14,0-3.34-.47-3.79,1.8a.58.58,0,1,1-1.15-.23c.42-2.11,2.38-2.73,3.95-2.79a3.71,3.71,0,0,1,.16-3.27,2.5,2.5,0,0,1,1.52-1.27,3.94,3.94,0,0,1,2.34.17c.32-1.1,1.19-3.08,3.23-3.18s3,1.55,3.43,2.56c1.29-.74,4.31-1.8,8.36,1.13s4.17,6.43,4,8.11a3.48,3.48,0,0,1,2.64.54,5.78,5.78,0,0,1,2,3.88c1.28-.43,3.83-1,5,1a6.8,6.8,0,0,1,.7,4.54C7326.39,7091.71,7328.31,7093,7328.76,7097Z" transform="translate(-7007.18 -6971.08)"/></g><g class="cls-4"><path class="cls-5" d="M7314.93,7089.84a6.82,6.82,0,0,1-1.72,5.07.59.59,0,0,1-.84-.82,5.21,5.21,0,0,0,.77-6,4.46,4.46,0,0,0-5-2.47l-.74.2V7085a3.58,3.58,0,0,0-1.12-2.36c-.93-.84-2.73.42-2.75.43a.58.58,0,1,1-.68-.95c.11-.08,2.58-1.82,4.22-.35a4.65,4.65,0,0,1,1.43,2.56,5.61,5.61,0,0,1,5.63,3.14A6.32,6.32,0,0,1,7314.93,7089.84Z" transform="translate(-7007.18 -6971.08)"/></g><g class="cls-4"><path class="cls-5" d="M7322.29,7100.31a4.87,4.87,0,0,1-.19,2.06,6.23,6.23,0,0,1-3.47,3.52.58.58,0,0,1-.42-1.09,5.12,5.12,0,0,0,2.78-2.8c.42-1.32,0-2.88-1.11-4.64l-.16-.25.1-.28a4.33,4.33,0,0,0,.07-3,1.6,1.6,0,0,0-1.12-.8.58.58,0,0,1,.28-1.14,2.75,2.75,0,0,1,1.87,1.39,5.18,5.18,0,0,1,.09,3.63A8,8,0,0,1,7322.29,7100.31Z" transform="translate(-7007.18 -6971.08)"/></g><path class="cls-2" d="M7327.75,7285c.63-3-1.38-3.58-1.38-3.58s3.87-4,2.58-6.25-4.42-3.08-4.42-3.08,2.54-2.11,2-3.59-3.46-3.22-3.46-3.22,4.88-3.16,4.42-6.58-4.36-4.21-4.36-4.21,1.41-2.89.28-4.17-4.4-1.4-4.4-1.4-.95-6.51-6-8.91-8.14.89-8.14.89.31-3.33-2.45-4.67-4.06.12-4.06.12a11.37,11.37,0,0,0-4.33-6.7c-3.76-2.87-7.81-1.75-11.32,2.5,0,0-2-2.11-6-1.47s-3.15,3.94-3.15,3.94-3.79-.07-5.46,2.68-.77,3.91-.77,3.91a14.19,14.19,0,0,0-6.21,3.49,20.59,20.59,0,0,0-3.37-1.44s-1.46-2.91-3.72-4-7.25,1.7-7.25,1.7-3.08-3.51-5.78-2.82-4.44,3.87-4.44,3.87-3.23-1.4-5,.11a6,6,0,0,0-2,3.72,7.19,7.19,0,0,0-3.87,4c-.88,2.85.32,4,.32,4s-2.69,1.58-4.13,6.35c-1.3,4.32,1.52,6.33,2.06,6.67l0,0,.07,0s-3.23,2.57-1.83,5.49a7.56,7.56,0,0,0,4.44,3.75,3.51,3.51,0,0,0-.74,4.09c1,2.72,4.2,1.46,4.2,1.46s-.47,3.91,5.19,6.66,10.59-1.72,10.59-1.72,4.64,3.7,8.31,1.54a6.86,6.86,0,0,0,.94-.67,32.29,32.29,0,0,0,4.06,3.4s2.79,7.71,10,8.22,10.29-2.7,10.29-2.7.92,4.72,4,5.42,5.67-3.07,5.67-3.07a6.34,6.34,0,0,0,5.54,1.13c3-1,5.3-4.53,5.3-4.53s2.53,4.21,9.32,3.66,7.44-6,7.44-6,2.94.1,4.43-1.41a10.49,10.49,0,0,0,2.17-4S7327.12,7288,7327.75,7285Z" transform="translate(-7007.18 -6971.08)"/><path class="cls-3" d="M7329.1,7277.05a8.86,8.86,0,0,1-2.73.42s-.65,5.47-7.44,6-9.32-3.66-9.32-3.66-2.28,3.57-5.3,4.53a6.33,6.33,0,0,1-5.54-1.13s-2.55,3.77-5.67,3.07-4-5.42-4-5.42-3.08,3.2-10.29,2.7-10-8.21-10-8.21a32.24,32.24,0,0,1-4.06-3.4,6.74,6.74,0,0,1-.94.67c-3.67,2.16-8.31-1.54-8.31-1.54s-4.93,4.47-10.59,1.72-5.19-6.66-5.19-6.66-3.18,1.26-4.2-1.46a3.51,3.51,0,0,1,.73-4.09,7.57,7.57,0,0,1-4.44-3.75c-1.4-2.93,1.83-5.49,1.83-5.49l-.07,0,0,0c-.54-.34-3.36-2.35-2.06-6.67a15.17,15.17,0,0,1,1.27-3,3,3,0,0,0-1.26.59,6,6,0,0,0-2,3.72,7.19,7.19,0,0,0-3.87,4c-.88,2.85.32,4,.32,4s-2.69,1.58-4.13,6.35c-1.3,4.32,1.52,6.33,2.06,6.67l0,0,.07,0s-3.23,2.57-1.83,5.49a7.56,7.56,0,0,0,4.44,3.75,3.51,3.51,0,0,0-.74,4.09c1,2.72,4.2,1.46,4.2,1.46s-.47,3.91,5.19,6.66,10.59-1.72,10.59-1.72,4.64,3.7,8.31,1.54a6.86,6.86,0,0,0,.94-.67,32.29,32.29,0,0,0,4.06,3.4s2.79,7.71,10,8.22,10.29-2.7,10.29-2.7.92,4.72,4,5.42,5.67-3.07,5.67-3.07a6.34,6.34,0,0,0,5.54,1.13c3-1,5.3-4.53,5.3-4.53s2.53,4.21,9.32,3.66,7.44-6,7.44-6,2.94.1,4.43-1.41a10.49,10.49,0,0,0,2.17-4s3.85.27,4.48-2.72-1.38-3.58-1.38-3.58A12.52,12.52,0,0,0,7329.1,7277.05Z" transform="translate(-7007.18 -6971.08)"/><g class="cls-4"><path class="cls-5" d="M7315,7261l0,.13c1.44,5.16-.83,8-.92,8.07a.58.58,0,0,1-.9-.75h0c.08-.1,2-2.47.7-7s-3.71-4.39-3.81-4.39h-.67l.08-.67a5.86,5.86,0,0,0-1.17-4c-1.27-1.52-4.17.46-4.2.49l-.73.51-.18-.87s-.56-2.69-2.17-3.45a2.71,2.71,0,0,0-2.51.28l-1,.54.15-1.14c0-.18.55-4.54-4.64-7.08s-7.56.53-7.58.56l-.59.79-.41-.9s-1.11-2.39-2.9-2-1.78,3.23-1.78,3.26v.83l-.78-.27a3.32,3.32,0,0,0-2.17,0,1.35,1.35,0,0,0-.69.83,2.61,2.61,0,0,0,.81,2.86l1.35,1-1.69,0c-.14,0-3.37.1-3.43,2.41a.58.58,0,1,1-1.17,0c.05-2.15,1.88-3.09,3.41-3.42a3.7,3.7,0,0,1-.4-3.25,2.5,2.5,0,0,1,1.28-1.51,3.94,3.94,0,0,1,2.34-.23c.13-1.14.65-3.23,2.65-3.68s3.21,1,3.82,1.94c1.15-1,3.94-2.5,8.43-.31s5.2,5.63,5.3,7.32a3.47,3.47,0,0,1,2.69.08,5.78,5.78,0,0,1,2.6,3.49c1.19-.64,3.61-1.61,5.07.15a6.8,6.8,0,0,1,1.46,4.35C7311.75,7256.23,7313.87,7257.18,7315,7261Z" transform="translate(-7007.18 -6971.08)"/></g><g class="cls-4"><path class="cls-5" d="M7300.15,7256.34a6.82,6.82,0,0,1-.83,5.29.59.59,0,0,1-1-.66,5.21,5.21,0,0,0-.26-6.07,4.46,4.46,0,0,0-5.3-1.59l-.69.33-.13-.75a3.58,3.58,0,0,0-1.51-2.14c-1.06-.67-2.62.88-2.64.89a.58.58,0,1,1-.83-.82c.09-.09,2.23-2.24,4.1-1.06a4.65,4.65,0,0,1,1.84,2.28,5.61,5.61,0,0,1,6.09,2.14A6.32,6.32,0,0,1,7300.15,7256.34Z" transform="translate(-7007.18 -6971.08)"/></g><g class="cls-4"><path class="cls-5" d="M7309.18,7265.4a4.87,4.87,0,0,1,.16,2.06,6.24,6.24,0,0,1-2.82,4.06.58.58,0,0,1-.6-1,5.12,5.12,0,0,0,2.26-3.23c.19-1.38-.44-2.85-1.89-4.38l-.2-.21.05-.29a4.33,4.33,0,0,0-.44-2.94,1.6,1.6,0,0,0-1.24-.6.58.58,0,0,1,.08-1.17,2.75,2.75,0,0,1,2.08,1.05,5.18,5.18,0,0,1,.7,3.57A8,8,0,0,1,7309.18,7265.4Z" transform="translate(-7007.18 -6971.08)"/></g><path class="cls-2" d="M7229.45,7119.71s4.54,3.62,9,.85,4.37-5.65,4.37-5.65,5.18.49,6.11-2a10.81,10.81,0,0,0,.48-5.06s6.73,2.55,7.26.69a22.88,22.88,0,0,0,.48-5.06s7.89,1.38,9.63-2.28,1-10.12,1-10.12,3.7-4,3.82-8.1-8-9.85-8-9.85,3.53-6.85.47-10.49-9.48-4.25-9.48-4.25,0-5.75-3.78-7.54a11.66,11.66,0,0,0-7.52-.71s-4.09-3.74-9.36-3.29-6.3,3-6.3,3-4.5-3.06-13.3-2.22-9.43,7.48-9.43,7.48-6.49-3.25-10.27.7a11.46,11.46,0,0,0-3,9.06s-3.49-1.77-7.2,1.47.62,7.24.62,7.24-6.71,1.76-7.16,12,10.36,14.87,10.36,14.87-2.71,9.32,3.43,13.49a12.33,12.33,0,0,0,12.21.92s2.33,5.73,6,6.07,8.28-1.84,8.28-1.84S7226.19,7124.66,7229.45,7119.71Z" transform="translate(-7007.18 -6971.08)"/><g class="cls-7"><path class="cls-2" d="M7256.21,7106a5.56,5.56,0,0,1-1.53,3.26c1,.08,1.82-.06,2-.66a14.12,14.12,0,0,0,.39-2.56C7256.54,7106,7256.21,7106,7256.21,7106Z" transform="translate(-7007.18 -6971.08)"/><path class="cls-2" d="M7262.8,7098.93a11.17,11.17,0,0,1-.37,4.7c1.83-.24,3.61-.89,4.33-2.41a9,9,0,0,0,.4-1.06A28.17,28.17,0,0,1,7262.8,7098.93Z" transform="translate(-7007.18 -6971.08)"/><path class="cls-2" d="M7209.89,7121c3.63.34,8.28-1.84,8.28-1.84s8,5.55,11.28.59c0,0,4.54,3.62,9,.85s4.37-5.65,4.37-5.65,5.18.49,6.11-2c0-.11.07-.22.1-.33a9.32,9.32,0,0,1-6.17-1.84c-3.26,5-11.28-.59-11.28-.59s-4.65,2.19-8.28,1.84-6-6.07-6-6.07a12.32,12.32,0,0,1-12.2-.92c-6.14-4.17-3.43-13.49-3.43-13.49s-10.81-4.62-10.36-14.87,7.16-12,7.16-12-4.33-4-.62-7.24,7.2-1.47,7.2-1.47a9.33,9.33,0,0,1-.07-1.41,5,5,0,0,0-.11.6s-6.49-3.25-10.27.7a11.46,11.46,0,0,0-3,9.06s-3.49-1.77-7.2,1.47.62,7.24.62,7.24-6.71,1.76-7.16,12,10.36,14.87,10.36,14.87-2.71,9.32,3.43,13.49a12.33,12.33,0,0,0,12.21.92S7206.26,7120.62,7209.89,7121Z" transform="translate(-7007.18 -6971.08)"/></g><g class="cls-8"><path class="cls-2" d="M7187.59,7089.12a8.46,8.46,0,0,1,2.78-5.56c1.54-1.38,4.41-2.92,9.26-2.41a1,1,0,0,1,.93,1.05,1,1,0,0,1-1.14.84c-3.21-.34-5.83.31-7.59,1.89a6.81,6.81,0,0,0-2.17,5.84,7,7,0,0,0,3.88,5.62,1,1,0,0,1,.61.78.91.91,0,0,1-.41.86c-1,.69-3.1,2.55-2.6,3.62.6,1.31,3.6.73,3.63.72a1.11,1.11,0,0,1,1,.32.89.89,0,0,1,.17,1s-1.17,2.64.56,4.16c1.53,1.34,5.42.81,6.79.5a1.1,1.1,0,0,1,1.18.48,8.46,8.46,0,0,0,5.21,3.43,4.58,4.58,0,0,0,4.86-2.28,1.07,1.07,0,0,1,1.39-.43.93.93,0,0,1,.49,1.28,6.6,6.6,0,0,1-7.18,3.28,10.66,10.66,0,0,1-6.15-3.77c-1.73.31-5.85.78-8-1.13a4.94,4.94,0,0,1-1.51-4.79c-1.68,0-3.63-.39-4.4-2.06-.88-1.93.87-3.9,2.14-5a8.83,8.83,0,0,1-3.78-6.43A9.51,9.51,0,0,1,7187.59,7089.12Z" transform="translate(-7007.18 -6971.08)"/></g><g class="cls-8"><path class="cls-2" d="M7202.81,7066.4a5.09,5.09,0,0,1,.55-1.89A7.21,7.21,0,0,1,7209,7061c.27-2.31,1.71-8.39,9.58-8.82,6.64-.36,9.82,3.24,11.15,5.5a9.49,9.49,0,0,1,6.8-3c4.79-.2,7,2.56,7.54,4a.93.93,0,0,1-.68,1.19,1.07,1.07,0,0,1-1.3-.63c-.05-.14-1.12-2.87-5.43-2.69a7,7,0,0,0-6.16,3.44,1.08,1.08,0,0,1-2-.16c-.08-.25-2-6.25-9.81-5.83a7.68,7.68,0,0,0-7.71,7.8,1,1,0,0,1-1,.95c-.13,0-3.43,0-4.72,2.52s1.26,6.3,1.29,6.34a.9.9,0,0,1-.3,1.31,1.11,1.11,0,0,1-1.44-.3C7204.68,7072.55,7202.52,7069.46,7202.81,7066.4Z" transform="translate(-7007.18 -6971.08)"/></g><path class="cls-9" d="M7228.85,7410s5-26.16,5.4-37-2.08-21.17-5.4-36.95,0-21.17-17-35.7-28.23-23.66-49.82-33.21-21.59-16.19-52.31-22-41.93-8.72-41.93-8.72-23.25.45-27.4-3.09,19.1-18.49,35.7-18.49a95.76,95.76,0,0,1,34.46,6c5.81,2.26,36.95,12.68,41.52,12.45s7.89,5.21,9.13,0-26.16-29.29-26.16-32.2,2.06-6.64,2.06-6.64,10.39,7.06,16.62,12.46,16.19,10.38,22.83,18.68,13.28,10.79,18.27,17.44,18.27,17,24.5,18.68,15.45,4.58,15-2.48-3-20.35-4.61-23.26-19.93-8.3-27.82-17.85-15.36-20.76-15.36-23.67-1.25-12-1.25-12,4.89-3.28,5.14,0-1.41,11.59,4,17,10,7,17.44,10.37,14.53,8.31,16.19,5.41,4.57-25.74.83-37,.83-6.33-10-19.36-24.08-22.16-24.5-26.73S7199,7121,7199,7121s11.63-.42,18.27,9.55,18.68,20.34,19.93,17,2.91-30.72,2.91-30.72,5.81-2.76,8.72-2.84,12.87-1.32,9.13,8.65-5.81,13.29-6.23,23.25-4.57,36.53,1.66,34.87,21.59-10.38,29.89-13.7,13.29-13.29,24.91-13.7,40.69-13.7,43.59-10.38-1.66,12.46-2.91,13.7-46.08,19.93-48.16,21.59-29.06,14.53-32,22.42-7.47,11.61-1.25,9.13,33.21,0,36.95,0,37.78,3.33,37.78,6.65-.41,4.15-17,1.66-46.5,1.71-53.14,2.72-12-1.89-12,5.16-3.74,32.38,2.49,47.74,22.83,64.77,27.4,76.81,2.49,53.86,12,61.18.83,6.49-22.83,7.74-61.44-.41-58.12-2.08S7228.85,7410,7228.85,7410Z" transform="translate(-7007.18 -6971.08)"/><path class="cls-10" d="M7308.15,7153.43c-8.69.31-13.67,6-19.1,10.18-6,5.47-10.29,9.46-11.18,10.07-3.38,2.33-26.42,39.26-26.28,54.46s4.71,64.52,9,87.73,11,46.92,23.69,67.59c6.85,11.19,8.21,25.08,8,35.47,13.4-.65,17.16-1.37,9.67-7.12-9.55-7.32-7.47-49.14-12-61.18s-21.17-61.44-27.4-76.81-2.49-40.69-2.49-47.74,5.4-4.15,12-5.16,36.53-5.21,53.14-2.72,17,1.66,17-1.66-34-6.64-37.78-6.65-30.72-2.48-36.95,0-1.66-1.24,1.25-9.13,29.89-20.76,32-22.42,46.91-20.34,48.16-21.59,5.81-10.38,2.91-13.7S7319.77,7153,7308.15,7153.43Z" transform="translate(-7007.18 -6971.08)"/><g class="cls-11"><path class="cls-9" d="M7258.53,7351.06c-5.76-36.21,5.06-58.44-20.42-70.2s-66.76-13.55-88.3-27.65c-12.17-8-30.73-22.76-44.59-34.13a99.38,99.38,0,0,0-29.15-4.2c-16.61,0-39.86,14.95-35.7,18.49s27.4,3.09,27.4,3.09,11.21,2.91,41.93,8.72,30.72,12.45,52.31,22,32.8,18.68,49.82,33.21,13.7,19.93,17,35.7,5.81,26.16,5.4,36.95-5.4,37-5.4,37-4.57,5.81-7.89,7.47c-2.44,1.22,17.23,2.44,37.23,2.51C7260.17,7402.09,7262.15,7373.8,7258.53,7351.06Z" transform="translate(-7007.18 -6971.08)"/><path class="cls-9" d="M7176.38,7225.48c-6.64-8.18-16.49-13.13-22.67-18.49s-16.62-12.46-16.62-12.46-2.06,3.74-2.06,6.64c0,1.06,3.67,5,8.26,9.73l13.38,1.73Z" transform="translate(-7007.18 -6971.08)"/><path class="cls-9" d="M7229.56,7225.8c-4.43-2.72-25.29-11.35-37.11-20.1,2.68,3.94,6,8.37,9.42,12.5,7.89,9.55,26.16,14.95,27.82,17.85s4.15,16.19,4.61,23.26a4.15,4.15,0,0,1-.93,3.3s6.34,3.68,4.75-8.42S7234.7,7229,7229.56,7225.8Z" transform="translate(-7007.18 -6971.08)"/><path class="cls-9" d="M7218.89,7159c10.79,13,6.23,8.15,10,19.36s.83,34-.83,37c0,0,6.67,5.31,7.09-13.8s.16-40.22-.26-42c-.36-1.5-17.95-5.92-29.09-14.23A158.64,158.64,0,0,1,7218.89,7159Z" transform="translate(-7007.18 -6971.08)"/></g><path class="cls-2" d="M7344.14,7173.83s-4.32,1.65-6.76-1.76-1.57-5.68-1.57-5.68-3.9-1-3.87-3.23A10,10,0,0,1,7333,7159s-5.6.2-5.46-1.43a21.2,21.2,0,0,1,1.09-4.16s-6.11-1-6.34-4.43,2.17-8.32,2.17-8.32-1.54-4.22-.48-7.48,8.56-5.68,8.56-5.68-.62-6.41,2.63-8.47,8.08-.81,8.08-.81,1.65-4.57,4.88-5a8.31,8.31,0,0,1,5.65,1.48s4-1.86,7.72-.07,3.72,4.09,3.72,4.09,4.13-1.21,10.28,1.85,4.72,8.52,4.72,8.52,5.63-.82,7.25,3.35a10.44,10.44,0,0,1-.43,8s3-.46,4.81,3.13-2.5,5.59-2.5,5.59,4.36,3.22,1.79,11.5-11.72,9-11.72,9-.67,8.15-6.31,9.8a8.86,8.86,0,0,1-9.11-2.59s-3.31,3.92-6,3.21-5.48-3.72-5.48-3.72S7345.1,7178.66,7344.14,7173.83Z" transform="translate(-7007.18 -6971.08)"/><g class="cls-7"><path class="cls-2" d="M7328.63,7155.62a5,5,0,0,0,.19,3c-.76-.21-1.3-.54-1.25-1.06a13,13,0,0,1,.44-2.14C7328.38,7155.55,7328.63,7155.62,7328.63,7155.62Z" transform="translate(-7007.18 -6971.08)"/><path class="cls-2" d="M7325.84,7148.23a10.24,10.24,0,0,0-1.07,3.84,4.09,4.09,0,0,1-2.46-3.09,8,8,0,0,1,0-1A20.26,20.26,0,0,0,7325.84,7148.23Z" transform="translate(-7007.18 -6971.08)"/><path class="cls-2" d="M7358,7180.15c-2.73-.71-5.48-3.72-5.48-3.72s-7.39,2.24-8.34-2.6c0,0-4.32,1.65-6.76-1.76s-1.57-5.68-1.57-5.68-3.9-1-3.87-3.23c0-.1,0-.2,0-.3a6.74,6.74,0,0,0,5,.22c1,4.83,8.35,2.59,8.35,2.59s2.75,3,5.48,3.72,6-3.21,6-3.21a8.86,8.86,0,0,0,9.11,2.59c5.64-1.65,6.31-9.8,6.31-9.8s9.14-.74,11.72-9-1.78-11.5-1.78-11.5,4.27-2,2.5-5.59-4.8-3.13-4.8-3.13a8.42,8.42,0,0,0,.45-1.11,4.46,4.46,0,0,1-.09.51s5.63-.82,7.25,3.35a10.44,10.44,0,0,1-.43,8s3-.46,4.81,3.13-2.5,5.59-2.5,5.59,4.36,3.22,1.79,11.5-11.72,9-11.72,9-.67,8.15-6.31,9.8a8.86,8.86,0,0,1-9.11-2.59S7360.69,7180.86,7358,7180.15Z" transform="translate(-7007.18 -6971.08)"/></g><g class="cls-8"><path class="cls-2" d="M7383.16,7160.87a7.54,7.54,0,0,0-.44-5.18c-.73-1.52-2.37-3.52-6-4.43a.77.77,0,0,0-1,.59.8.8,0,0,0,.59,1,7.08,7.08,0,0,1,5,3.57,6.14,6.14,0,0,1-.08,5.24,5.7,5.7,0,0,1-4.41,3.42.81.81,0,0,0-.61,1.25c.55.83,1.52,2.88.86,3.59-.81.88-2.82-.4-2.84-.41a.81.81,0,0,0-1.25.71s.1,2.42-1.59,3.16c-1.49.65-4.16-.83-5.07-1.45a.81.81,0,0,0-1,.06,6.47,6.47,0,0,1-4.75,1.31c-2.56-.34-2.88-3.11-2.88-3.13a.81.81,0,0,0-1.6.17,5.1,5.1,0,0,0,4.27,4.56,8,8,0,0,0,5.53-1.32c1.17.71,4,2.21,6.14,1.28a4.36,4.36,0,0,0,2.45-3.4,3.27,3.27,0,0,0,3.77-.45c1.19-1.29.48-3.34-.13-4.57a7.42,7.42,0,0,0,4.56-4.09A8.43,8.43,0,0,0,7383.16,7160.87Z" transform="translate(-7007.18 -6971.08)"/></g><g class="cls-8"><path class="cls-2" d="M7378.56,7138.65a4.66,4.66,0,0,0,.14-1.65,5.64,5.64,0,0,0-3.07-4.32c.46-1.91,1.13-7.15-4.45-9.62a8.52,8.52,0,0,0-9.64,1.35,7.24,7.24,0,0,0-4.09-4.21c-3.42-1.46-5.82.13-6.61,1.17a.81.81,0,0,0,1.28,1c.08-.09,1.62-2,4.7-.67a5.55,5.55,0,0,1,3.49,4.42.81.81,0,0,0,1.46.4,7,7,0,0,1,8.76-2c5.47,2.43,3.47,8.06,3.38,8.31a.81.81,0,0,0,.48,1,4.3,4.3,0,0,1,2.71,3.29c.24,2.39-2.7,4.67-2.73,4.7a.81.81,0,0,0,1,1.28A9.65,9.65,0,0,0,7378.56,7138.65Z" transform="translate(-7007.18 -6971.08)"/></g><path class="cls-2" d="M7238.75,7191.28c.15-3.75-2.4-4.06-2.4-4.06s3.87-5.7,1.84-8.11-6-2.83-6-2.83,2.65-3.08,1.64-4.76-4.86-3.2-4.86-3.2,5.28-4.84,4-8.89-6.16-4.21-6.16-4.21,1.12-3.8-.52-5.12-5.62-.8-5.62-.8-2.48-7.7-9.06-9.59-9.69,2.75-9.69,2.75-.3-4.1-3.93-5.16-4.9,1-4.9,1a14,14,0,0,0-6.63-7.25c-5.15-2.71-9.83-.52-13.22,5.35,0,0-2.91-2.14-7.64-.54s-3,5.43-3,5.43-4.61.69-6.07,4.38-.14,4.9-.14,4.9-4.55,2-6.81,5.51a25.54,25.54,0,0,0-4.38-1.06s-2.37-3.23-5.32-4.05-8.45,3.55-8.45,3.55-4.46-3.63-7.6-2.24-4.6,5.61-4.6,5.61-4.21-1-6.11,1.17a7.41,7.41,0,0,0-1.7,4.93s-3.38,2.07-3.87,5.71,1.2,4.79,1.2,4.79-2.94,2.47-3.71,8.55c-.69,5.51,3.14,7.37,3.87,7.67l0,0,.09,0s-3.39,3.78-1.09,7a9.31,9.31,0,0,0,6.16,3.64s-1.84,2-.05,5.12,5.39.91,5.39.91.23,4.84,7.66,7,12.49-4.25,12.49-4.25,6.39,3.53,10.4.16a8.2,8.2,0,0,0,1-1,39.78,39.78,0,0,0,5.63,3.29s5,8.79,13.82,7.92,11.93-5.39,11.93-5.39,2.09,5.54,6,5.75,6.25-4.88,6.25-4.88a7.79,7.79,0,0,0,7,.24c3.47-1.78,5.5-6.58,5.5-6.58s3.93,4.58,12.06,2.53,7.79-8.83,7.79-8.83,3.59-.48,5.09-2.62a12.92,12.92,0,0,0,1.82-5.27S7238.6,7195,7238.75,7191.28Z" transform="translate(-7007.18 -6971.08)"/><path class="cls-3" d="M7238.76,7181.32a10.93,10.93,0,0,1-3.23,1.07s.33,6.77-7.79,8.83-12.06-2.53-12.06-2.53-2,4.8-5.5,6.58a7.8,7.8,0,0,1-7-.24s-2.33,5.09-6.25,4.88-6-5.75-6-5.75-3.08,4.52-11.94,5.39-13.82-7.92-13.82-7.92a39.77,39.77,0,0,1-5.63-3.29,8.27,8.27,0,0,1-1,1c-4,3.37-10.4-.16-10.4-.16s-5.07,6.43-12.5,4.25-7.66-7-7.66-7-3.6,2.18-5.39-.91.05-5.12.05-5.12a9.31,9.31,0,0,1-6.16-3.64c-2.3-3.26,1.09-7,1.09-7l-.09,0h0c-.73-.3-4.56-2.16-3.87-7.66a18.6,18.6,0,0,1,.92-3.95,3.64,3.64,0,0,0-1.41,1,7.41,7.41,0,0,0-1.7,4.93s-3.38,2.07-3.87,5.71,1.2,4.79,1.2,4.79-2.94,2.47-3.71,8.55c-.69,5.51,3.14,7.37,3.87,7.67l0,0,.09,0s-3.39,3.78-1.09,7a9.31,9.31,0,0,0,6.16,3.64s-1.84,2-.05,5.12,5.39.91,5.39.91.23,4.84,7.66,7,12.49-4.25,12.49-4.25,6.39,3.53,10.4.16a8.2,8.2,0,0,0,1-1,39.78,39.78,0,0,0,5.63,3.29s5,8.79,13.82,7.92,11.93-5.39,11.93-5.39,2.09,5.54,6,5.75,6.25-4.88,6.25-4.88a7.79,7.79,0,0,0,7,.24c3.47-1.78,5.5-6.58,5.5-6.58s3.93,4.58,12.06,2.53,7.79-8.83,7.79-8.83,3.59-.48,5.09-2.62a12.92,12.92,0,0,0,1.82-5.27s4.72-.46,4.87-4.21-2.4-4.06-2.4-4.06S7238.57,7183.95,7238.76,7181.32Z" transform="translate(-7007.18 -6971.08)"/><g class="cls-4"><path class="cls-5" d="M7218.36,7164.79l.07.15c2.81,6,.63,9.82.53,10a.72.72,0,0,1-1.24-.72h0c.08-.14,1.88-3.4-.59-8.64s-5.4-4.57-5.52-4.54l-.81.15,0-.83a7.21,7.21,0,0,0-2.25-4.66c-1.85-1.59-5,1.42-5,1.45l-.78.77-.39-1s-1.24-3.15-3.34-3.74a3.34,3.34,0,0,0-3,.85l-1.11.86,0-1.41c0-.23-.26-5.63-7.09-7.64s-9.06,2.19-9.09,2.23l-.55,1.07-.68-1s-1.84-2.67-3.93-1.81-1.49,4.29-1.49,4.32l.18,1-1-.16a4.08,4.08,0,0,0-2.64.44,1.67,1.67,0,0,0-.67,1.15,3.22,3.22,0,0,0,1.57,3.3l1.84,1-2,.39c-.17,0-4.07.82-3.67,3.63a.72.72,0,1,1-1.42.2c-.38-2.62,1.64-4.14,3.44-4.85a4.56,4.56,0,0,1-1.15-3.86,3.08,3.08,0,0,1,1.25-2.1,4.83,4.83,0,0,1,2.79-.76c-.07-1.41.12-4.06,2.46-5s4.11.57,5,1.57c1.2-1.39,4.27-3.85,10.16-2.11s7.46,5.77,7.93,7.79a4.28,4.28,0,0,1,3.28-.46c2,.55,3.25,2.52,3.87,3.7,1.31-1,4-2.7,6.18-.86a8.37,8.37,0,0,1,2.67,5C7213.44,7159.61,7216.21,7160.32,7218.36,7164.79Z" transform="translate(-7007.18 -6971.08)"/></g><g class="cls-4"><path class="cls-5" d="M7199.38,7162.12a8.39,8.39,0,0,1,.08,6.59.72.72,0,0,1-1.31-.61,6.41,6.41,0,0,0-1.56-7.31,5.48,5.48,0,0,0-6.76-.84l-.77.54-.32-.88a4.4,4.4,0,0,0-2.27-2.28c-1.42-.59-3,1.6-3,1.62a.72.72,0,1,1-1.18-.82c.09-.13,2.25-3.17,4.75-2.13a5.73,5.73,0,0,1,2.71,2.39,6.91,6.91,0,0,1,7.82,1.35A7.75,7.75,0,0,1,7199.38,7162.12Z" transform="translate(-7007.18 -6971.08)"/></g><g class="cls-4"><path class="cls-5" d="M7212.2,7171.26a6,6,0,0,1,.62,2.47,7.67,7.67,0,0,1-2.59,5.51.72.72,0,0,1-.93-1.09,6.3,6.3,0,0,0,2.08-4.38c-.05-1.71-1.12-3.37-3.18-4.93l-.29-.22v-.37a5.32,5.32,0,0,0-1.13-3.48,2,2,0,0,0-1.62-.48.72.72,0,1,1-.14-1.43,3.39,3.39,0,0,1,2.74.85,6.38,6.38,0,0,1,1.58,4.18A9.9,9.9,0,0,1,7212.2,7171.26Z" transform="translate(-7007.18 -6971.08)"/></g><path class="cls-2" d="M7261.26,7134.78s2.4-3.36,0-6.23-4.55-2.64-4.55-2.64,0-3.59-1.92-4.07a8.89,8.89,0,0,0-3.84,0s1.44-4.8,0-5a18.85,18.85,0,0,0-3.84,0s.48-5.51-2.4-6.47-7.67,0-7.67,0-3.3-2.28-6.35-2.1-6.83,6.11-6.83,6.11-5.39-2-7.91.36-2.52,6.8-2.52,6.8-4.32.39-5.39,3.09a7.41,7.41,0,0,0,0,5.21s-2.52,3.06-1.8,6.65,2.7,4.14,2.7,4.14-2,3.3-.72,9.29,6.29,6,6.29,6-2,4.68,1.26,7a9.31,9.31,0,0,0,7,1.44s-1.08,2.52,1.62,4.85,5.39-.9,5.39-.9,1.8,4.5,9.53,4.14,10.43-8.09,10.43-8.09,7.19,1.26,9.89-3.24a7.91,7.91,0,0,0-.18-8.45s4.13-2,4.13-4.49-2-5.57-2-5.57S7265.21,7136.69,7261.26,7134.78Z" transform="translate(-7007.18 -6971.08)"/><g class="cls-7"><path class="cls-2" d="M7249,7117.28a4.48,4.48,0,0,1,2.55.84c0-.7-.18-1.25-.64-1.32a11.63,11.63,0,0,0-1.95-.1C7249,7117,7249,7117.28,7249,7117.28Z" transform="translate(-7007.18 -6971.08)"/><path class="cls-2" d="M7243.28,7113.2a9.16,9.16,0,0,1,3.55-.05,3.65,3.65,0,0,0-2.12-2.82,7.16,7.16,0,0,0-.82-.21A17.94,17.94,0,0,1,7243.28,7113.2Z" transform="translate(-7007.18 -6971.08)"/><path class="cls-2" d="M7263.59,7148.14c0-2.52-2-5.57-2-5.57s3.6-5.87-.36-7.79c0,0,2.4-3.36,0-6.23s-4.55-2.64-4.55-2.64,0-3.59-1.92-4.07l-.26,0a6,6,0,0,1-.94,4.36c4,1.92.36,7.79.36,7.79s2,3.06,2,5.57-4.14,4.5-4.14,4.5a7.91,7.91,0,0,1,.18,8.45c-2.7,4.5-9.89,3.24-9.89,3.24s-2.7,7.73-10.43,8.09-9.53-4.14-9.53-4.14-2.7,3.24-5.39.9-1.62-4.86-1.62-4.86a7.72,7.72,0,0,1-1.06.14,3.93,3.93,0,0,0,.46,0s-2,4.68,1.26,7a9.31,9.31,0,0,0,7,1.44s-1.08,2.52,1.62,4.85,5.39-.9,5.39-.9,1.8,4.5,9.53,4.14,10.43-8.09,10.43-8.09,7.19,1.26,9.89-3.24a7.91,7.91,0,0,0-.18-8.45S7263.59,7150.66,7263.59,7148.14Z" transform="translate(-7007.18 -6971.08)"/></g><g class="cls-8"><path class="cls-2" d="M7241.27,7165.55a6.72,6.72,0,0,1-4.37-1.55,7.58,7.58,0,0,1-2.47-6.21.69.69,0,0,1,.73-.71.72.72,0,0,1,.71.73,6.31,6.31,0,0,0,2,5.1,5.48,5.48,0,0,0,4.54,1.11,5.09,5.09,0,0,0,3.94-3,.72.72,0,0,1,1.21-.24c.59.66,2.14,2,2.9,1.55.94-.5.29-2.53.29-2.54a.72.72,0,0,1,.9-.92s2.07.63,3.08-.66c.9-1.14.22-3.78-.11-4.7a.72.72,0,0,1,.28-.85,5.77,5.77,0,0,0,2.2-3.8,3.18,3.18,0,0,0-2.06-3.19.72.72,0,0,1,.51-1.35,4.55,4.55,0,0,1,3,4.72,7.17,7.17,0,0,1-2.39,4.48c.35,1.17,1,4-.28,5.59a3.9,3.9,0,0,1-3.49,1.35,2.92,2.92,0,0,1-1.23,3.16c-1.39.73-3-.34-3.92-1.15a6.63,6.63,0,0,1-4.56,3A7.71,7.71,0,0,1,7241.27,7165.55Z" transform="translate(-7007.18 -6971.08)"/></g><g class="cls-8"><path class="cls-2" d="M7223.12,7156.57a4.18,4.18,0,0,1-1.46-.25,5,5,0,0,1-3-3.63c-1.75,0-6.43-.63-7.31-6a7.6,7.6,0,0,1,3.34-8,6.47,6.47,0,0,1-2.71-4.48c-.49-3.28,1.42-5,2.5-5.45a.72.72,0,0,1,.56,1.33c-.1,0-2.08,1-1.64,3.91a5,5,0,0,0,3,4,.72.72,0,0,1,0,1.36,6.22,6.22,0,0,0-3.68,7.12c.87,5.27,6.18,4.81,6.41,4.79a.72.72,0,0,1,.79.65,3.84,3.84,0,0,0,2.23,3.08c2,.75,4.64-1.28,4.67-1.3a.72.72,0,0,1,.89,1.13A8.6,8.6,0,0,1,7223.12,7156.57Z" transform="translate(-7007.18 -6971.08)"/></g><path class="cls-12" d="M7133.18,7036.37c-.42-3.73,2.11-4.22,2.11-4.22s-4.26-5.41-2.42-8,5.78-3.25,5.78-3.25-2.86-2.88-2-4.63,4.62-3.54,4.62-3.54-5.61-4.45-4.64-8.58,5.84-4.64,5.84-4.64-1.39-3.71.15-5.15,5.55-1.2,5.55-1.2,1.92-7.86,8.35-10.21,9.86,2,9.86,2,0-4.11,3.55-5.42,5,.62,5,.62a14,14,0,0,1,6.1-7.7c4.95-3.07,9.77-1.22,13.57,4.39,0,0,2.75-2.34,7.58-1.08s3.39,5.2,3.39,5.2,4.65.36,6.37,3.93.49,4.87.49,4.87,4.68,1.65,7.19,5a25.47,25.47,0,0,1,4.29-1.37s2.14-3.39,5-4.42,8.68,2.94,8.68,2.94,4.19-3.94,7.42-2.77,5,5.26,5,5.26,4.12-1.33,6.17.73a7.4,7.4,0,0,1,2,4.8s3.52,1.83,4.27,5.41-.86,4.86-.86,4.86,3.11,2.26,4.31,8.26c1.08,5.44-2.61,7.57-3.31,7.92l0,0-.08,0s3.65,3.52,1.59,6.94a9.31,9.31,0,0,1-5.89,4.07s2,1.89.41,5.1-5.31,1.29-5.31,1.29.11,4.84-7.14,7.54-12.77-3.35-12.77-3.35-6.12,4-10.37.9a8.45,8.45,0,0,1-1.07-.94,39.82,39.82,0,0,1-5.38,3.69s-4.32,9.12-13.22,8.88-12.29-4.52-12.29-4.52-1.68,5.67-5.58,6.16-6.58-4.43-6.58-4.43a7.8,7.8,0,0,1-6.92.74c-3.58-1.53-6-6.17-6-6.17s-3.6,4.85-11.85,3.38-8.4-8.25-8.4-8.25-3.61-.22-5.26-2.25a12.9,12.9,0,0,1-2.19-5.13S7133.6,7040.1,7133.18,7036.37Z" transform="translate(-7007.18 -6971.08)"/><path class="cls-13" d="M7132.46,7026.43a10.91,10.91,0,0,0,3.3.84s.15,6.78,8.4,8.25,11.85-3.38,11.85-3.38,2.37,4.64,6,6.18a7.8,7.8,0,0,0,6.92-.74s2.68,4.92,6.58,4.43,5.58-6.16,5.58-6.16,3.39,4.29,12.29,4.52,13.22-8.88,13.22-8.88a39.79,39.79,0,0,0,5.38-3.69,8.36,8.36,0,0,0,1.07.94c4.24,3.08,10.37-.9,10.37-.9s5.51,6.05,12.77,3.35,7.14-7.54,7.14-7.54,3.75,1.92,5.31-1.29-.41-5.1-.41-5.1a9.31,9.31,0,0,0,5.88-4.07c2.06-3.42-1.59-6.94-1.59-6.94l.09,0,0,0c.7-.35,4.4-2.48,3.31-7.92a18.55,18.55,0,0,0-1.2-3.87,3.65,3.65,0,0,1,1.47.87,7.4,7.4,0,0,1,2,4.8s3.52,1.83,4.27,5.41-.86,4.86-.86,4.86,3.11,2.26,4.31,8.26c1.08,5.44-2.61,7.57-3.31,7.92l0,0-.08,0s3.65,3.52,1.59,6.94a9.31,9.31,0,0,1-5.89,4.07s2,1.89.41,5.1-5.31,1.29-5.31,1.29.11,4.84-7.14,7.54-12.77-3.35-12.77-3.35-6.12,4-10.37.9a8.45,8.45,0,0,1-1.07-.94,39.82,39.82,0,0,1-5.38,3.69s-4.32,9.12-13.22,8.88-12.29-4.52-12.29-4.52-1.68,5.67-5.58,6.16-6.58-4.43-6.58-4.43a7.8,7.8,0,0,1-6.92.74c-3.58-1.53-6-6.17-6-6.17s-3.6,4.85-11.85,3.38-8.4-8.25-8.4-8.25-3.61-.22-5.26-2.25a12.9,12.9,0,0,1-2.19-5.13s-4.75-.13-5.16-3.86,2.11-4.22,2.11-4.22S7132.84,7029,7132.46,7026.43Z" transform="translate(-7007.18 -6971.08)"/><g class="cls-4"><path class="cls-5" d="M7151.64,7008.48l-.06.15c-2.38,6.15.07,9.84.18,10a.72.72,0,0,0,1.19-.81h0c-.09-.13-2.11-3.26,0-8.66,2-5.25,5.06-4.94,5.18-4.92l.82.09,0-.83a7.19,7.19,0,0,1,1.91-4.81c1.73-1.72,5.05,1.06,5.09,1.09l.84.71.32-1s1-3.23,3.06-4a3.33,3.33,0,0,1,3,.64l1.17.78-.05-1.41c0-.23-.14-5.63,6.52-8.13s9.2,1.54,9.22,1.58l.63,1,.61-1s1.64-2.79,3.79-2.09,1.79,4.17,1.79,4.21l-.11,1,1-.23a4.08,4.08,0,0,1,2.66.25,1.66,1.66,0,0,1,.75,1.1,3.21,3.21,0,0,1-1.33,3.4l-1.77,1.08,2.06.24c.17,0,4.12.52,3.92,3.36a.72.72,0,1,0,1.43.1c.19-2.64-1.93-4-3.78-4.59a4.56,4.56,0,0,0,.87-3.93,3.07,3.07,0,0,0-1.4-2,4.83,4.83,0,0,0-2.84-.56c0-1.41-.41-4-2.81-4.82s-4.06.86-4.91,1.92c-1.29-1.3-4.53-3.53-10.29-1.38s-7,6.28-7.36,8.34a4.27,4.27,0,0,0-3.31-.22c-1.92.69-3.07,2.75-3.6,4-1.38-.93-4.23-2.4-6.23-.42a8.38,8.38,0,0,0-2.31,5.16C7156.17,7003,7153.46,7003.88,7151.64,7008.48Z" transform="translate(-7007.18 -6971.08)"/></g><g class="cls-4"><path class="cls-5" d="M7170.37,7004.47a8.39,8.39,0,0,0,.39,6.57.72.72,0,0,0,1.26-.7,6.41,6.41,0,0,1,1-7.4,5.48,5.48,0,0,1,6.68-1.32l.81.48.25-.9a4.38,4.38,0,0,1,2.1-2.44c1.38-.69,3.11,1.38,3.13,1.4a.72.72,0,0,0,1.12-.9c-.1-.12-2.47-3-4.89-1.78a5.72,5.72,0,0,0-2.53,2.57,6.91,6.91,0,0,0-7.71,1.9A7.78,7.78,0,0,0,7170.37,7004.47Z" transform="translate(-7007.18 -6971.08)"/></g><g class="cls-4"><path class="cls-5" d="M7158.24,7014.5a6,6,0,0,0-.44,2.51,7.68,7.68,0,0,0,3,5.31.72.72,0,0,0,.85-1.16,6.31,6.31,0,0,1-2.39-4.23c-.07-1.71.88-3.44,2.83-5.14l.27-.24,0-.36a5.33,5.33,0,0,1,.88-3.55,2,2,0,0,1,1.59-.59.72.72,0,0,0,0-1.44,3.38,3.38,0,0,0-2.67,1,6.38,6.38,0,0,0-1.28,4.29A9.91,9.91,0,0,0,7158.24,7014.5Z" transform="translate(-7007.18 -6971.08)"/></g><path class="cls-12" d="M7178.48,7150.86c.28-4.67,3.49-4.73,3.49-4.73s-4.08-7.55-1.27-10.28,7.79-2.75,7.79-2.75-2.89-4.15-1.44-6.1,6.42-3.35,6.42-3.35-5.94-6.66-3.86-11.51,8.16-4.45,8.16-4.45-.91-4.84,1.28-6.28,7.06-.28,7.06-.28,4-9.23,12.42-10.74,11.67,4.62,11.67,4.62.89-5,5.51-5.9,6,1.82,6,1.82a17.42,17.42,0,0,1,9.12-8.15c6.72-2.71,12.25.59,15.71,8.29,0,0,3.87-2.29,9.54.29s3.05,7.1,3.05,7.1,5.63,1.44,7,6.18-.44,6.09-.44,6.09,5.39,3,7.75,7.68a31.73,31.73,0,0,1,5.56-.77s3.35-3.7,7.1-4.35,10,5.46,10,5.46,6-3.94,9.69-1.82,5,7.52,5,7.52,5.34-.75,7.42,2.21a9.22,9.22,0,0,1,1.49,6.32s3.92,3,4.08,7.55-2.09,5.78-2.09,5.78,3.34,3.43,3.52,11.06c.17,6.91-4.82,8.73-5.75,9h0l-.11,0s3.73,5.1.47,8.86a11.6,11.6,0,0,1-8.09,3.74s2,2.75-.58,6.35-6.79.45-6.79.45-.9,6-10.37,7.73-14.95-6.83-14.95-6.83-8.36,3.58-12.91-1.1a10.28,10.28,0,0,1-1.12-1.38,49.55,49.55,0,0,1-7.39,3.38s-7.25,10.26-18.11,8.08-14.12-8.17-14.12-8.17-3.28,6.6-8.16,6.37S7230,7187,7230,7187s-4.57,2.07-8.65-.57-6-8.85-6-8.85-5.45,5.19-15.26,1.62-8.55-11.91-8.55-11.91-4.39-1-6-3.89a16.06,16.06,0,0,1-1.59-6.75S7178.19,7155.53,7178.48,7150.86Z" transform="translate(-7007.18 -6971.08)"/><path class="cls-13" d="M7179.71,7138.51a13.61,13.61,0,0,0,3.87,1.73s-1.26,8.35,8.55,11.91,15.26-1.62,15.26-1.62,1.92,6.2,6,8.85,8.65.57,8.65.57,2.24,6.61,7.13,6.83,8.16-6.37,8.16-6.37,3.25,6,14.11,8.17,18.11-8.08,18.11-8.08a49.63,49.63,0,0,0,7.39-3.38,10.45,10.45,0,0,0,1.12,1.38c4.55,4.68,12.91,1.1,12.91,1.1s5.48,8.6,15,6.83,10.37-7.73,10.37-7.73,4.19,3.15,6.79-.45.58-6.35.58-6.35a11.59,11.59,0,0,0,8.09-3.74c3.26-3.76-.47-8.86-.47-8.86l.12,0h0c.94-.28,5.92-2.1,5.76-9a23.21,23.21,0,0,0-.65-5,4.55,4.55,0,0,1,1.62,1.39,9.22,9.22,0,0,1,1.49,6.32s3.92,3,4.08,7.55-2.09,5.78-2.09,5.78,3.34,3.43,3.52,11.06c.17,6.91-4.82,8.73-5.75,9h0l-.11,0s3.73,5.1.47,8.86a11.6,11.6,0,0,1-8.09,3.74s2,2.75-.58,6.35-6.79.45-6.79.45-.9,6-10.37,7.73-14.95-6.83-14.95-6.83-8.36,3.58-12.91-1.1a10.28,10.28,0,0,1-1.12-1.38,49.55,49.55,0,0,1-7.39,3.38s-7.25,10.26-18.11,8.08-14.12-8.17-14.12-8.17-3.28,6.6-8.16,6.37S7230,7187,7230,7187s-4.57,2.07-8.65-.57-6-8.85-6-8.85-5.45,5.19-15.26,1.62-8.55-11.91-8.55-11.91-4.39-1-6-3.89a16.06,16.06,0,0,1-1.59-6.75s-5.8-1.17-5.51-5.84,3.49-4.73,3.49-4.73S7179.63,7141.8,7179.71,7138.51Z" transform="translate(-7007.18 -6971.08)"/><g class="cls-4"><path class="cls-5" d="M7207.07,7120.58l-.1.17c-4.23,7-2,12.09-1.91,12.3a.9.9,0,0,0,1.63-.74h0c-.08-.18-1.9-4.45,1.82-10.63,3.54-6,7.26-5,7.41-4.94l1,.29.16-1a9,9,0,0,1,3.37-5.5c2.49-1.74,6,2.38,6,2.42l.87,1,.61-1.22s1.93-3.75,4.61-4.21a4.15,4.15,0,0,1,3.59,1.43l1.27,1.2.23-1.74c0-.28,1-6.94,9.74-8.58s11,3.85,11,3.91l.55,1.4,1-1.16s2.61-3.07,5.1-1.76,1.31,5.5,1.3,5.54l-.35,1.22,1.26-.07a5.09,5.09,0,0,1,3.21.88,2.07,2.07,0,0,1,.68,1.51,4,4,0,0,1-2.36,3.89l-2.4.95,2.47.74c.21.06,4.95,1.52,4.09,5a.89.89,0,1,0,1.74.43c.8-3.2-1.52-5.34-3.65-6.44a5.68,5.68,0,0,0,1.91-4.64,3.82,3.82,0,0,0-1.29-2.75,6,6,0,0,0-3.36-1.29c.27-1.74.36-5-2.42-6.51s-5.16.19-6.44,1.31c-1.31-1.87-4.8-5.3-12.33-3.88s-10,6.21-10.81,8.66a5.32,5.32,0,0,0-4-1c-2.5.44-4.35,2.72-5.26,4.1-1.49-1.43-4.68-3.85-7.56-1.84a10.44,10.44,0,0,0-3.93,5.84C7213.82,7114.79,7210.3,7115.32,7207.07,7120.58Z" transform="translate(-7007.18 -6971.08)"/></g><g class="cls-4"><path class="cls-5" d="M7230.92,7119.65a10.46,10.46,0,0,0-.92,8.15.9.9,0,0,0,1.69-.59,8,8,0,0,1,2.85-8.86,6.83,6.83,0,0,1,8.48-.2l.89.76.5-1.06a5.47,5.47,0,0,1,3.1-2.54c1.84-.56,3.52,2.36,3.54,2.39a.89.89,0,0,0,1.56-.87c-.1-.17-2.39-4.21-5.62-3.23a7.14,7.14,0,0,0-3.65,2.62,8.6,8.6,0,0,0-9.86.69A9.69,9.69,0,0,0,7230.92,7119.65Z" transform="translate(-7007.18 -6971.08)"/></g><g class="cls-4"><path class="cls-5" d="M7213.89,7129.37a7.55,7.55,0,0,0-1.07,3c-.51,3.94,2.39,7,2.52,7.15a.9.9,0,0,0,1.29-1.24s-2.44-2.61-2-5.7c.28-2.11,1.81-4,4.56-5.71l.39-.24,0-.45c.07-.83.54-3.19,1.83-4.17a2.47,2.47,0,0,1,2.07-.38.9.9,0,0,0,.35-1.76,4.22,4.22,0,0,0-3.5.71c-1.77,1.33-2.33,3.93-2.49,5A12.37,12.37,0,0,0,7213.89,7129.37Z" transform="translate(-7007.18 -6971.08)"/></g><path class="cls-12" d="M7238.11,7204.92a3.21,3.21,0,0,1,3-3.29s-3.51-5.26-1.09-7.16,6.72-1.92,6.72-1.92-2.5-2.89-1.24-4.25S7251,7186,7251,7186s-5.12-4.63-3.33-8,7-3.1,7-3.1-.79-3.37,1.11-4.37,6.09-.2,6.09-.2,3.48-6.43,10.71-7.48,10.06,3.21,10.06,3.21a5.64,5.64,0,0,1,4.76-4.11c4-.6,5.13,1.27,5.13,1.27s2.07-3.78,7.87-5.67,10.57.41,13.55,5.77c0,0,3.34-1.59,8.22.2s2.63,4.94,2.63,4.94,4.85,1,6,4.3-.38,4.24-.38,4.24,4.64,2.1,6.69,5.35a33.57,33.57,0,0,1,4.8-.53,13.62,13.62,0,0,1,6.13-3c3.24-.46,8.65,3.8,8.65,3.8s5.15-2.74,8.36-1.27,4.3,5.24,4.3,5.24,4.61-.52,6.4,1.54a5.41,5.41,0,0,1,1.28,4.4s3.38,2.08,3.52,5.26-1.8,4-1.8,4,2.88,2.39,3,7.7c.15,4.81-4.15,6.08-5,6.28h0l-.1,0s3.22,3.55.41,6.17a11.35,11.35,0,0,1-7,2.61s1.75,1.91-.5,4.42-5.86.31-5.86.31-.77,4.15-8.95,5.38a14.33,14.33,0,0,1-12.89-4.76s-7.21,2.49-11.14-.77a7.69,7.69,0,0,1-1-1,48.45,48.45,0,0,1-6.37,2.35s-6.25,7.15-15.62,5.63-12.17-5.69-12.17-5.69-2.82,4.6-7,4.43-6.14-4.76-6.14-4.76a10.17,10.17,0,0,1-7.46-.4c-3.51-1.84-5.17-6.16-5.17-6.16s-4.7,3.61-13.16,1.13-7.37-8.29-7.37-8.29-3.78-.72-5.16-2.71a9.38,9.38,0,0,1-1.37-4.7S7237.87,7208.17,7238.11,7204.92Z" transform="translate(-7007.18 -6971.08)"/><path class="cls-13" d="M7239.18,7196.32a13.38,13.38,0,0,0,3.33,1.21s-1.08,5.81,7.38,8.29,13.16-1.13,13.16-1.13,1.65,4.32,5.17,6.16a10.18,10.18,0,0,0,7.46.4s1.94,4.6,6.15,4.76,7-4.44,7-4.44,2.8,4.17,12.17,5.69,15.62-5.63,15.62-5.63a48.39,48.39,0,0,0,6.37-2.35,7.82,7.82,0,0,0,1,1c3.93,3.26,11.14.77,11.14.77a14.34,14.34,0,0,0,12.89,4.76c8.17-1.23,8.94-5.38,8.94-5.38s3.61,2.2,5.86-.31.5-4.42.5-4.42a11.35,11.35,0,0,0,7-2.61c2.81-2.62-.41-6.17-.41-6.17l.1,0h0c.81-.2,5.11-1.46,5-6.27a13.22,13.22,0,0,0-.56-3.48,3.81,3.81,0,0,1,1.4,1,5.41,5.41,0,0,1,1.28,4.4s3.38,2.08,3.52,5.26-1.8,4-1.8,4,2.88,2.39,3,7.7c.15,4.81-4.15,6.08-5,6.28h0l-.1,0s3.22,3.55.41,6.17a11.35,11.35,0,0,1-7,2.61s1.75,1.91-.5,4.42-5.86.31-5.86.31-.77,4.15-8.95,5.38a14.33,14.33,0,0,1-12.89-4.76s-7.21,2.49-11.14-.77a7.69,7.69,0,0,1-1-1,48.45,48.45,0,0,1-6.37,2.35s-6.25,7.15-15.62,5.63-12.17-5.69-12.17-5.69-2.82,4.6-7,4.43-6.14-4.76-6.14-4.76a10.17,10.17,0,0,1-7.46-.4c-3.51-1.84-5.17-6.16-5.17-6.16s-4.7,3.61-13.16,1.13-7.37-8.29-7.37-8.29-3.78-.72-5.16-2.71a9.38,9.38,0,0,1-1.37-4.7s-5-.81-4.76-4.06a3.21,3.21,0,0,1,3-3.29S7239.11,7198.61,7239.18,7196.32Z" transform="translate(-7007.18 -6971.08)"/><g class="cls-4"><path class="cls-5" d="M7262.77,7183.84l-.09.12c-3.65,4.9-1.74,8.41-1.65,8.56a.85.85,0,0,0,1,.31.58.58,0,0,0,.38-.82h0c-.07-.12-1.64-3.1,1.56-7.4s6.26-3.47,6.39-3.44l.85.2.14-.71a6,6,0,0,1,2.91-3.83c2.15-1.21,5.15,1.66,5.18,1.69l.75.73.53-.85s1.66-2.61,4-2.93a4.07,4.07,0,0,1,3.1,1l1.1.84.2-1.21c0-.2.88-4.83,8.4-6s9.45,2.68,9.47,2.72l.48,1,.83-.81s2.25-2.14,4.4-1.22,1.13,3.83,1.12,3.86l-.3.85,1.09-.05a5.23,5.23,0,0,1,2.77.61,1.34,1.34,0,0,1,.59,1.05c.14,2-2,2.7-2,2.71l-2.07.66,2.13.52c.18,0,4.27,1.06,3.53,3.45a.63.63,0,0,0,.56.76.8.8,0,0,0,.93-.45c.69-2.23-1.31-3.72-3.15-4.48a3.64,3.64,0,0,0,1.64-3.23,2.49,2.49,0,0,0-1.11-1.92,6,6,0,0,0-2.9-.9,3.79,3.79,0,0,0-2.08-4.53,5.72,5.72,0,0,0-5.55.91c-1.13-1.3-4.14-3.69-10.63-2.7s-8.6,4.32-9.32,6a5.47,5.47,0,0,0-3.46-.68,7.58,7.58,0,0,0-4.54,2.85c-1.29-1-4-2.68-6.52-1.28a7.33,7.33,0,0,0-3.39,4.07C7268.59,7179.8,7265.55,7180.18,7262.77,7183.84Z" transform="translate(-7007.18 -6971.08)"/></g><g class="cls-4"><path class="cls-5" d="M7283.34,7183.19a6,6,0,0,0-.8,5.67.83.83,0,0,0,1,.38.61.61,0,0,0,.48-.79c-.06-.16-1.54-3.79,2.46-6.17a7,7,0,0,1,7.31-.14l.77.53.43-.74a4.51,4.51,0,0,1,2.67-1.77c1.59-.39,3,1.64,3.05,1.66a.87.87,0,0,0,1,.24.56.56,0,0,0,.3-.85c-.08-.12-2.06-2.93-4.85-2.25a6.23,6.23,0,0,0-3.15,1.82,8.9,8.9,0,0,0-8.5.48A7.58,7.58,0,0,0,7283.34,7183.19Z" transform="translate(-7007.18 -6971.08)"/></g><g class="cls-4"><path class="cls-5" d="M7268.65,7190a4.64,4.64,0,0,0-.92,2.08c-.44,2.75,2.06,4.89,2.17,5a.91.91,0,0,0,1.09,0,.54.54,0,0,0,0-.88s-2.11-1.82-1.75-4c.24-1.47,1.57-2.8,3.94-4l.34-.16,0-.32a4.24,4.24,0,0,1,1.58-2.9,2.54,2.54,0,0,1,1.79-.27.78.78,0,0,0,.91-.49.64.64,0,0,0-.6-.74,4.34,4.34,0,0,0-3,.5,5.2,5.2,0,0,0-2.14,3.47A10,10,0,0,0,7268.65,7190Z" transform="translate(-7007.18 -6971.08)"/></g><path class="cls-12" d="M7088.45,7192.68s7.55,6.69,15.64,3,9.53-9,9.53-9,3.78,4.56,7.55,3.48,4.32-6.65,4.32-6.65a7.8,7.8,0,0,0,6.65-2c2.7-2.82,3.06-8,3.06-8s5.21,3.05,12.23-1.54,4.49-10.88,4.49-10.88,3.24-1.62,4-4.14a12.92,12.92,0,0,0,0-5.57s4.32-2,3.24-5.57-3.6-3.06-3.6-3.06,1.8-6.65-.9-8.27-6.59-.72-6.59-.72,1.5-3.78,0-5-5.63-1.44-5.63-1.44,3.42-6.29.9-9.71-7.19-2-7.19-2-.18-4-2.16-4.67-5.57,1.08-5.57,1.08-4.86-6.47-11.69-6.11-8.27,5.75-8.27,5.75-1.62-3.78-5.39-3.6-4.32,2.52-4.32,2.52a14,14,0,0,0-8.63-4.69c-5.75-.88-9.47,2.71-10.76,9.36,0,0-3.45-1.08-7.4,2s-1.08,6.11-1.08,6.11-4.14,2.16-4.32,6.11,1.47,4.67,1.47,4.67-4.52,4.14-4.88,8.81,3.42,8.36,3.42,8.36-.66,3.69,1.47,5.48a3.22,3.22,0,0,0,3.93.54s-2.7,3.42-.18,6.65,6.65,1.8,6.65,1.8-10.07,6.17-8.45,15.76S7088.45,7192.68,7088.45,7192.68Z" transform="translate(-7007.18 -6971.08)"/><path class="cls-14" d="M7155.44,7153.83c-7,4.59-12.23,1.54-12.23,1.54s-.36,5.2-3.06,8a7.8,7.8,0,0,1-6.65,2s-.54,5.57-4.31,6.65-7.55-3.48-7.55-3.48-1.44,5.28-9.53,9-15.64-3-15.64-3-16.9-1.62-18.52-11.21,8.45-15.76,8.45-15.76-4.13,1.44-6.65-1.8.18-6.65.18-6.65a3.22,3.22,0,0,1-3.93-.54c-2.13-1.8-1.47-5.48-1.47-5.48s-3.78-3.69-3.42-8.36S7076,7116,7076,7116a2,2,0,0,1-.64-.62,10.51,10.51,0,0,0-3.45,1.81c-4,3.06-1.08,6.11-1.08,6.11s-4.14,2.16-4.32,6.11,1.47,4.67,1.47,4.67-4.52,4.14-4.88,8.81,3.42,8.36,3.42,8.36-.66,3.69,1.47,5.48a3.22,3.22,0,0,0,3.93.54s-2.7,3.42-.18,6.65,6.65,1.8,6.65,1.8-10.07,6.17-8.45,15.76,18.52,11.21,18.52,11.21,7.55,6.69,15.64,3,9.53-9,9.53-9,3.78,4.56,7.55,3.48,4.32-6.65,4.32-6.65a7.8,7.8,0,0,0,6.65-2c2.7-2.82,3.06-8,3.06-8s5.21,3.05,12.23-1.54,4.49-10.88,4.49-10.88,3.24-1.62,4-4.14a10.55,10.55,0,0,0,.28-3.58C7155.92,7153.49,7155.7,7153.66,7155.44,7153.83Z" transform="translate(-7007.18 -6971.08)"/><g class="cls-4"><path class="cls-5" d="M7112.34,7182.19h-.16c-6.6-.06-9.12-3.7-9.22-3.85a.72.72,0,0,1,1.19-.81h0c.09.13,2.25,3.17,8,3.22,5.61.1,6.46-2.87,6.49-3l.22-.8.76.32a7.18,7.18,0,0,0,5.18,0c2.24-1,.88-5.09.87-5.13l-.35-1,1.09.09s3.38.26,4.82-1.38a3.33,3.33,0,0,0,.53-3.06l-.29-1.38,1.29.57c.21.09,5.18,2.21,10-3.06s2-9.12,1.94-9.15l-.73-1,1.2-.18s3.2-.5,3.34-2.75-3.21-3.21-3.25-3.22l-1-.27.58-.84a4.08,4.08,0,0,0,.75-2.57,1.66,1.66,0,0,0-.75-1.1,3.21,3.21,0,0,0-3.65,0l-1.66,1.24.53-2c0-.17,1-4-1.68-4.88a.72.72,0,1,1,.43-1.37c2.53.8,3,3.28,2.87,5.2a4.56,4.56,0,0,1,4,.64,3.07,3.07,0,0,1,1.35,2,4.85,4.85,0,0,1-.53,2.84c1.3.55,3.6,1.87,3.45,4.39s-2.3,3.45-3.6,3.85c.73,1.68,1.61,5.51-2.52,10.07s-8.44,4.22-10.46,3.76a4.28,4.28,0,0,1-1,3.16c-1.35,1.53-3.68,1.84-5,1.88.35,1.62.67,4.82-1.91,5.94a8.38,8.38,0,0,1-5.64.24C7119.14,7180,7117.29,7182.19,7112.34,7182.19Z" transform="translate(-7007.18 -6971.08)"/></g><g class="cls-4"><path class="cls-5" d="M7123,7166.26a8.4,8.4,0,0,1-6-2.79.72.72,0,0,1,1.11-.91,6.41,6.41,0,0,0,7.26,1.77,5.48,5.48,0,0,0,3.7-5.72l-.15-.93.93.1a4.4,4.4,0,0,0,3-1.05c1.15-1-.14-3.4-.15-3.42a.72.72,0,1,1,1.25-.71c.08.14,1.88,3.4-.15,5.21a5.74,5.74,0,0,1-3.33,1.4,6.91,6.91,0,0,1-4.61,6.46A7.76,7.76,0,0,1,7123,7166.26Z" transform="translate(-7007.18 -6971.08)"/></g><g class="cls-4"><path class="cls-5" d="M7109.18,7173.83a6,6,0,0,1-2.49-.52,7.66,7.66,0,0,1-3.84-4.73.72.72,0,0,1,1.39-.37,6.3,6.3,0,0,0,3,3.78c1.56.7,3.52.45,5.82-.73l.33-.17.33.16a5.35,5.35,0,0,0,3.62.49,2,2,0,0,0,1.13-1.26.72.72,0,0,1,1.35.5,3.38,3.38,0,0,1-2,2.1,6.38,6.38,0,0,1-4.46-.39A9.91,9.91,0,0,1,7109.18,7173.83Z" transform="translate(-7007.18 -6971.08)"/></g><g class="cls-4"><path class="cls-5" d="M7110.81,7123.36a8.39,8.39,0,0,1,3.68,5.47.72.72,0,0,1-1.42.21,6.41,6.41,0,0,0-5.32-5.26,5.48,5.48,0,0,0-6.12,3l-.35.87-.75-.56a4.4,4.4,0,0,0-3.15-.67c-1.52.29-1.63,3-1.64,3a.72.72,0,0,1-1.44,0c0-.16.14-3.88,2.81-4.39a5.72,5.72,0,0,1,3.57.51,6.91,6.91,0,0,1,7.28-3.16A7.77,7.77,0,0,1,7110.81,7123.36Z" transform="translate(-7007.18 -6971.08)"/></g><g class="cls-4"><path class="cls-5" d="M7126.54,7124a6,6,0,0,1,1.87,1.73,7.67,7.67,0,0,1,.86,6,.72.72,0,0,1-1.38-.4,6.3,6.3,0,0,0-.66-4.81c-1-1.4-2.79-2.2-5.37-2.37l-.36,0-.2-.31a5.34,5.34,0,0,0-2.85-2.29,2,2,0,0,0-1.62.49.72.72,0,0,1-.9-1.12,3.39,3.39,0,0,1,2.76-.79,6.37,6.37,0,0,1,3.62,2.63A9.89,9.89,0,0,1,7126.54,7124Z" transform="translate(-7007.18 -6971.08)"/></g><path class="cls-2" d="M7203.24,7267.55c1.39-3.49-.92-4.63-.92-4.63s5.54-4.1,4.43-7-4.72-4.66-4.72-4.66,3.52-2,3.13-3.94-3.52-4.63-3.52-4.63,6.59-2.81,6.74-7-4.41-6-4.41-6,2.32-3.21,1.21-5-5-2.62-5-2.62.21-8.09-5.36-12.05-10.06-.63-10.06-.63,1.08-4-2-6.17-4.95-.71-4.95-.71a14,14,0,0,0-3.85-9c-4-4.27-9.1-3.76-14.25.66,0,0-2-3-7-3s-4.64,4.12-4.64,4.12-4.58-.88-7.18,2.11-1.75,4.57-1.75,4.57-4.94.36-8.26,2.93a25.41,25.41,0,0,0-3.78-2.46s-1.17-3.83-3.68-5.59-9.15.55-9.15.55-3-4.9-6.42-4.63-6.2,3.76-6.2,3.76-3.63-2.37-6.15-.93a7.41,7.41,0,0,0-3.24,4.09s-3.87.83-5.54,4.1-.45,4.92-.45,4.92-3.6,1.35-6.33,6.83c-2.48,5,.52,8,1.11,8.52l0,0,.07.06s-4.45,2.43-3.37,6.28a9.31,9.31,0,0,0,4.6,5.48s-2.41,1.3-1.75,4.81,4.79,2.65,4.79,2.65-1.38,4.64,4.9,9.16,13.2.14,13.2.14,4.85,5.45,9.76,3.61a8.27,8.27,0,0,0,1.28-.62,39.77,39.77,0,0,0,4.22,5s1.76,9.93,10.4,12.06,13-1.12,13-1.12.13,5.92,3.76,7.42,7.51-2.53,7.51-2.53a7.8,7.8,0,0,0,6.48,2.53c3.86-.53,7.38-4.38,7.38-4.38s2.19,5.63,10.54,6.39,10.28-5.74,10.28-5.74,3.54.74,5.67-.78a12.91,12.91,0,0,0,3.46-4.37S7201.86,7271,7203.24,7267.55Z" transform="translate(-7007.18 -6971.08)"/><path class="cls-3" d="M7206.56,7258.15a10.92,10.92,0,0,1-3.4-.06s-1.94,6.5-10.28,5.74-10.54-6.39-10.54-6.39-3.51,3.85-7.38,4.38a7.8,7.8,0,0,1-6.48-2.54s-3.88,4-7.51,2.53-3.76-7.41-3.76-7.41-4.41,3.24-13,1.12-10.4-12.06-10.4-12.06a39.8,39.8,0,0,1-4.21-5,8.3,8.3,0,0,1-1.28.62c-4.91,1.85-9.76-3.61-9.76-3.61s-6.91,4.38-13.2-.14-4.9-9.16-4.9-9.16-4.12.86-4.79-2.65,1.75-4.81,1.75-4.81a9.31,9.31,0,0,1-4.6-5.48c-1.08-3.84,3.37-6.28,3.37-6.28l-.07-.06,0,0c-.59-.53-3.59-3.55-1.11-8.52a18.63,18.63,0,0,1,2.18-3.42,3.64,3.64,0,0,0-1.65.45,7.41,7.41,0,0,0-3.24,4.09s-3.87.83-5.54,4.1-.45,4.92-.45,4.92-3.6,1.35-6.33,6.83c-2.48,5,.52,8,1.11,8.52l0,0,.07.06s-4.45,2.43-3.37,6.28a9.31,9.31,0,0,0,4.6,5.48s-2.41,1.3-1.75,4.81,4.79,2.65,4.79,2.65-1.38,4.64,4.9,9.16,13.2.14,13.2.14,4.85,5.45,9.76,3.61a8.27,8.27,0,0,0,1.28-.62,39.77,39.77,0,0,0,4.22,5s1.76,9.93,10.4,12.06,13-1.12,13-1.12.13,5.92,3.76,7.42,7.51-2.53,7.51-2.53a7.8,7.8,0,0,0,6.48,2.53c3.86-.53,7.38-4.38,7.38-4.38s2.19,5.63,10.54,6.39,10.28-5.74,10.28-5.74,3.54.74,5.67-.78a12.91,12.91,0,0,0,3.46-4.37s4.61,1.13,6-2.36-.92-4.63-.92-4.63S7205.5,7260.57,7206.56,7258.15Z" transform="translate(-7007.18 -6971.08)"/><g class="cls-4"><path class="cls-5" d="M7192.8,7235.78c0,.05,0,.11,0,.16.67,6.56-2.67,9.47-2.81,9.59a.72.72,0,0,1-.93-1.09h0c.12-.1,2.9-2.59,2.31-8.35-.52-5.59-3.57-6.1-3.7-6.12l-.82-.13.23-.79a7.21,7.21,0,0,0-.57-5.15c-1.22-2.11-5.15-.31-5.19-.29l-1,.46,0-1.09s-.12-3.38-1.91-4.63a3.34,3.34,0,0,0-3.1-.19l-1.34.44.42-1.34c.07-.22,1.62-5.39-4.15-9.56s-9.28-.94-9.31-.91l-.88.83-.31-1.17s-.85-3.13-3.1-3-2.83,3.55-2.84,3.58l-.16,1-.89-.49a4.08,4.08,0,0,0-2.64-.46,1.67,1.67,0,0,0-1,.87,3.21,3.21,0,0,0,.39,3.63l1.42,1.51-2.05-.31c-.17,0-4.11-.58-4.67,2.21a.72.72,0,0,1-1.41-.28c.51-2.6,2.92-3.36,4.86-3.43a4.56,4.56,0,0,1,.2-4,3.08,3.08,0,0,1,1.87-1.56,4.84,4.84,0,0,1,2.88.21c.4-1.36,1.46-3.79,4-3.91s3.69,1.91,4.23,3.15c1.59-.92,5.3-2.21,10.29,1.39s5.13,7.92,4.9,10a4.28,4.28,0,0,1,3.25.66c1.67,1.17,2.23,3.46,2.42,4.78,1.57-.53,4.71-1.2,6.12,1.24a8.37,8.37,0,0,1,.86,5.58C7189.88,7229.26,7192.25,7230.86,7192.8,7235.78Z" transform="translate(-7007.18 -6971.08)"/></g><g class="cls-4"><path class="cls-5" d="M7175.79,7227a8.39,8.39,0,0,1-2.11,6.24.72.72,0,0,1-1-1,6.41,6.41,0,0,0,1-7.42,5.48,5.48,0,0,0-6.1-3l-.91.25v-.94a4.39,4.39,0,0,0-1.38-2.91c-1.15-1-3.37.51-3.39.53a.72.72,0,1,1-.84-1.17c.13-.09,3.17-2.24,5.19-.43a5.73,5.73,0,0,1,1.76,3.15,6.91,6.91,0,0,1,6.93,3.87A7.76,7.76,0,0,1,7175.79,7227Z" transform="translate(-7007.18 -6971.08)"/></g><g class="cls-4"><path class="cls-5" d="M7184.84,7239.84a6,6,0,0,1-.24,2.53,7.67,7.67,0,0,1-4.27,4.34.72.72,0,0,1-.52-1.34,6.3,6.3,0,0,0,3.42-3.44c.52-1.63.06-3.55-1.37-5.71l-.2-.3.13-.34a5.32,5.32,0,0,0,.09-3.65,2,2,0,0,0-1.37-1,.72.72,0,0,1,.34-1.4,3.38,3.38,0,0,1,2.3,1.71,6.38,6.38,0,0,1,.1,4.47A9.88,9.88,0,0,1,7184.84,7239.84Z" transform="translate(-7007.18 -6971.08)"/></g><path class="cls-2" d="M7210.35,7089.55s1.84-2.58,0-4.79-3.5-2-3.5-2,0-2.76-1.47-3.13a6.82,6.82,0,0,0-2.95,0s1.1-3.68,0-3.87a14.46,14.46,0,0,0-2.95,0s.37-4.23-1.84-5-5.89,0-5.89,0a9.32,9.32,0,0,0-4.88-1.61c-2.35.14-5.25,4.7-5.25,4.7s-4.14-1.52-6.08.28-1.93,5.22-1.93,5.22-3.31.3-4.14,2.37a5.69,5.69,0,0,0,0,4,6.8,6.8,0,0,0-1.38,5.11c.55,2.76,2.07,3.18,2.07,3.18s-1.52,2.53-.55,7.13,4.83,4.6,4.83,4.6-1.52,3.59,1,5.39a7.15,7.15,0,0,0,5.38,1.1A3.32,3.32,0,0,0,7182,7116c2.07,1.79,4.14-.69,4.14-.69s1.38,3.45,7.32,3.18,8-6.21,8-6.21,5.52,1,7.6-2.49a6.08,6.08,0,0,0-.14-6.49s3.18-1.52,3.18-3.45a9.83,9.83,0,0,0-1.52-4.28S7213.39,7091,7210.35,7089.55Z" transform="translate(-7007.18 -6971.08)"/><g class="cls-7"><path class="cls-2" d="M7201,7076.11a3.44,3.44,0,0,1,2,.65c0-.54-.14-1-.49-1a9,9,0,0,0-1.5-.08C7201,7075.94,7201,7076.11,7201,7076.11Z" transform="translate(-7007.18 -6971.08)"/><path class="cls-2" d="M7196.54,7073a7,7,0,0,1,2.73,0,2.8,2.8,0,0,0-1.63-2.17,5.34,5.34,0,0,0-.63-.16A13.74,13.74,0,0,1,7196.54,7073Z" transform="translate(-7007.18 -6971.08)"/><path class="cls-2" d="M7212.14,7099.82a9.83,9.83,0,0,0-1.52-4.28s2.76-4.51-.28-6c0,0,1.84-2.58,0-4.79s-3.5-2-3.5-2,0-2.76-1.47-3.13l-.2,0a4.62,4.62,0,0,1-.72,3.35c3,1.47.28,6,.28,6a9.82,9.82,0,0,1,1.52,4.28c0,1.93-3.18,3.45-3.18,3.45a6.07,6.07,0,0,1,.14,6.49c-2.07,3.45-7.59,2.49-7.59,2.49s-2.07,5.94-8,6.21-7.32-3.18-7.32-3.18-2.07,2.49-4.14.69a3.32,3.32,0,0,1-1.24-3.73,6,6,0,0,1-.81.11,3,3,0,0,0,.35,0s-1.52,3.59,1,5.39a7.15,7.15,0,0,0,5.38,1.1A3.32,3.32,0,0,0,7182,7116c2.07,1.79,4.14-.69,4.14-.69s1.38,3.45,7.32,3.18,8-6.21,8-6.21,5.52,1,7.6-2.49a6.08,6.08,0,0,0-.14-6.49S7212.14,7101.75,7212.14,7099.82Z" transform="translate(-7007.18 -6971.08)"/></g><g class="cls-8"><path class="cls-2" d="M7195,7113.19a5.17,5.17,0,0,1-3.36-1.19,5.82,5.82,0,0,1-1.9-4.77.53.53,0,0,1,.56-.55.55.55,0,0,1,.54.56,4.85,4.85,0,0,0,1.5,3.91,4.21,4.21,0,0,0,3.49.85,3.92,3.92,0,0,0,3-2.33.55.55,0,0,1,.93-.19c.45.5,1.64,1.51,2.23,1.19s.22-1.94.22-2a.56.56,0,0,1,.13-.57.55.55,0,0,1,.56-.14s1.59.48,2.37-.51.17-2.9-.09-3.61a.55.55,0,0,1,.21-.65,4.43,4.43,0,0,0,1.69-2.92,2.44,2.44,0,0,0-1.58-2.45.55.55,0,0,1,.39-1,3.49,3.49,0,0,1,2.29,3.62,5.51,5.51,0,0,1-1.84,3.44c.27.9.77,3-.21,4.29a3,3,0,0,1-2.68,1,2.25,2.25,0,0,1-.95,2.42c-1.07.56-2.3-.26-3-.88a5.09,5.09,0,0,1-3.51,2.32A5.91,5.91,0,0,1,7195,7113.19Z" transform="translate(-7007.18 -6971.08)"/></g><g class="cls-8"><path class="cls-2" d="M7181.06,7106.29a3.19,3.19,0,0,1-1.12-.19,3.86,3.86,0,0,1-2.33-2.79,5.4,5.4,0,0,1-5.62-4.62,5.84,5.84,0,0,1,2.57-6.16,5,5,0,0,1-2.08-3.44,3.73,3.73,0,0,1,1.92-4.18.55.55,0,0,1,.43,1,2.62,2.62,0,0,0-1.26,3,3.8,3.8,0,0,0,2.32,3.08.55.55,0,0,1,0,1,4.78,4.78,0,0,0-2.82,5.47c.67,4,4.75,3.7,4.92,3.68a.55.55,0,0,1,.61.5,3,3,0,0,0,1.71,2.37c1.55.57,3.57-1,3.59-1a.55.55,0,0,1,.68.87A6.61,6.61,0,0,1,7181.06,7106.29Z" transform="translate(-7007.18 -6971.08)"/></g><path class="cls-2" d="M7288.46,7341.51c.17-4.34-2.78-4.7-2.78-4.7s4.47-6.6,2.13-9.38-6.94-3.27-6.94-3.27,3.06-3.57,1.9-5.51-5.62-3.7-5.62-3.7,6.11-5.6,4.64-10.28-7.12-4.87-7.12-4.87,1.29-4.39-.6-5.92-6.5-.92-6.5-.92-2.87-8.91-10.48-11.09-11.21,3.18-11.21,3.18-.35-4.74-4.54-6-5.67,1.13-5.67,1.13a16.2,16.2,0,0,0-7.67-8.38c-6-3.14-11.38-.6-15.29,6.19,0,0-3.37-2.48-8.84-.63s-3.48,6.28-3.48,6.28-5.34.8-7,5.06-.16,5.66-.16,5.66-5.26,2.29-7.88,6.37a29.36,29.36,0,0,0-5.07-1.23s-2.75-3.73-6.16-4.69-9.78,4.11-9.78,4.11-5.15-4.2-8.79-2.59-5.32,6.49-5.32,6.49-4.87-1.19-7.06,1.35a8.57,8.57,0,0,0-2,5.7s-3.91,2.39-4.47,6.6,1.39,5.54,1.39,5.54-3.41,2.86-4.29,9.89c-.8,6.37,3.64,8.52,4.48,8.87l0,0,.1,0s-3.92,4.37-1.27,8.14a10.77,10.77,0,0,0,7.13,4.22s-2.13,2.35-.06,5.92,6.24,1,6.24,1,.27,5.59,8.86,8.12,14.45-4.92,14.45-4.92,7.39,4.09,12,.19a9.61,9.61,0,0,0,1.16-1.17,45.91,45.91,0,0,0,6.51,3.81s5.74,10.16,16,9.16,13.8-6.23,13.8-6.23,2.41,6.41,6.95,6.65,7.23-5.65,7.23-5.65,4,2.34,8,.28,6.37-7.62,6.37-7.62,4.55,5.3,14,2.93,9-10.21,9-10.21,4.15-.55,5.89-3a14.94,14.94,0,0,0,2.1-6.1S7288.28,7345.84,7288.46,7341.51Z" transform="translate(-7007.18 -6971.08)"/><path class="cls-3" d="M7288.47,7330a12.64,12.64,0,0,1-3.74,1.24s.38,7.83-9,10.21-14-2.93-14-2.93-2.35,5.55-6.37,7.62-8-.28-8-.28-2.69,5.89-7.23,5.65-6.95-6.65-6.95-6.65-3.56,5.23-13.81,6.23-16-9.16-16-9.16a46.17,46.17,0,0,1-6.51-3.81,9.82,9.82,0,0,1-1.16,1.17c-4.64,3.9-12-.19-12-.19s-5.86,7.44-14.45,4.92-8.86-8.11-8.86-8.11-4.17,2.52-6.24-1,.06-5.92.06-5.92a10.77,10.77,0,0,1-7.13-4.21c-2.66-3.78,1.27-8.14,1.27-8.14l-.1,0,0,0c-.84-.35-5.28-2.5-4.48-8.87a21.57,21.57,0,0,1,1.06-4.57,4.19,4.19,0,0,0-1.63,1.13,8.57,8.57,0,0,0-2,5.7s-3.91,2.39-4.47,6.6,1.39,5.54,1.39,5.54-3.41,2.86-4.29,9.89c-.8,6.37,3.64,8.52,4.48,8.87l0,0,.1,0s-3.92,4.37-1.27,8.14a10.77,10.77,0,0,0,7.13,4.22s-2.13,2.35-.06,5.92,6.24,1,6.24,1,.27,5.59,8.86,8.12,14.45-4.92,14.45-4.92,7.39,4.09,12,.19a9.61,9.61,0,0,0,1.16-1.17,45.91,45.91,0,0,0,6.51,3.81s5.74,10.16,16,9.16,13.8-6.23,13.8-6.23,2.41,6.41,6.95,6.65,7.23-5.65,7.23-5.65,4,2.34,8,.28,6.37-7.62,6.37-7.62,4.55,5.3,14,2.93,9-10.21,9-10.21,4.15-.55,5.89-3a14.94,14.94,0,0,0,2.1-6.1s5.46-.54,5.64-4.87-2.78-4.7-2.78-4.7S7288.24,7333,7288.47,7330Z" transform="translate(-7007.18 -6971.08)"/><g class="cls-4"><path class="cls-5" d="M7264.86,7310.85l.08.17c3.25,6.9.73,11.36.62,11.54a.83.83,0,0,1-1.44-.84h0c.09-.16,2.17-3.93-.68-10-2.71-5.89-6.24-5.28-6.39-5.25l-.94.17-.05-1a8.33,8.33,0,0,0-2.6-5.4c-2.14-1.84-5.74,1.64-5.78,1.68l-.9.88-.45-1.18s-1.43-3.64-3.86-4.32a3.86,3.86,0,0,0-3.46,1l-1.29,1-.05-1.63c0-.26-.3-6.51-8.2-8.84s-10.49,2.53-10.51,2.58l-.64,1.24-.79-1.16s-2.13-3.08-4.54-2.1-1.73,5-1.72,5l.21,1.16-1.16-.19a4.71,4.71,0,0,0-3.05.51,1.93,1.93,0,0,0-.77,1.33,3.72,3.72,0,0,0,1.82,3.82l2.13,1.1-2.36.45c-.19,0-4.71.94-4.24,4.2a.83.83,0,1,1-1.65.24c-.44-3,1.9-4.79,4-5.61a5.26,5.26,0,0,1-1.33-4.46,3.55,3.55,0,0,1,1.44-2.43,5.59,5.59,0,0,1,3.23-.88c-.08-1.63.14-4.7,2.84-5.8s4.76.66,5.83,1.81c1.38-1.61,4.93-4.45,11.76-2.44s8.63,6.67,9.18,9a5,5,0,0,1,3.8-.53c2.27.64,3.77,2.92,4.48,4.28,1.51-1.18,4.68-3.12,7.15-1a9.7,9.7,0,0,1,3.09,5.76C7259.17,7304.87,7262.37,7305.69,7264.86,7310.85Z" transform="translate(-7007.18 -6971.08)"/></g><g class="cls-4"><path class="cls-5" d="M7242.91,7307.77a9.72,9.72,0,0,1,.09,7.62.83.83,0,0,1-1.51-.7,7.42,7.42,0,0,0-1.81-8.46,6.34,6.34,0,0,0-7.82-1l-.89.62-.36-1a5.1,5.1,0,0,0-2.62-2.64c-1.65-.69-3.48,1.85-3.5,1.88a.83.83,0,1,1-1.37-1c.11-.15,2.6-3.67,5.5-2.46a6.63,6.63,0,0,1,3.13,2.76,8,8,0,0,1,9,1.56A9,9,0,0,1,7242.91,7307.77Z" transform="translate(-7007.18 -6971.08)"/></g><g class="cls-4"><path class="cls-5" d="M7257.73,7318.34a7,7,0,0,1,.71,2.85c.11,3.69-2.87,6.27-3,6.38a.83.83,0,0,1-1.08-1.27s2.5-2.18,2.41-5.07c-.06-2-1.3-3.9-3.68-5.7l-.34-.25v-.42c0-.77-.2-3-1.31-4a2.29,2.29,0,0,0-1.88-.55.83.83,0,1,1-.17-1.66,3.92,3.92,0,0,1,3.17,1c1.51,1.39,1.78,3.85,1.83,4.84A11.44,11.44,0,0,1,7257.73,7318.34Z" transform="translate(-7007.18 -6971.08)"/></g><path class="cls-2" d="M7332.44,7325.86s2.77-3.88,0-7.21-5.27-3.05-5.27-3.05,0-4.16-2.22-4.71a10.28,10.28,0,0,0-4.44,0s1.66-5.55,0-5.82a21.76,21.76,0,0,0-4.44,0s.55-6.38-2.78-7.49-8.87,0-8.87,0-3.81-2.63-7.35-2.43-7.9,7.07-7.9,7.07-6.24-2.29-9.15.42-2.91,7.86-2.91,7.86-5,.46-6.24,3.57a8.58,8.58,0,0,0,0,6s-2.91,3.53-2.08,7.69,3.12,4.79,3.12,4.79-2.29,3.81-.83,10.75,7.28,6.93,7.28,6.93-2.29,5.41,1.46,8.11a10.77,10.77,0,0,0,8.11,1.66s-1.25,2.91,1.87,5.62,6.24-1,6.24-1,2.08,5.2,11,4.78,12.06-9.36,12.06-9.36,8.32,1.46,11.44-3.74a9.15,9.15,0,0,0-.21-9.78s4.78-2.29,4.78-5.2-2.29-6.45-2.29-6.45S7337,7328.08,7332.44,7325.86Z" transform="translate(-7007.18 -6971.08)"/><g class="cls-7"><path class="cls-2" d="M7318.3,7305.61a5.17,5.17,0,0,1,3,1c0-.81-.21-1.44-.74-1.53a13.54,13.54,0,0,0-2.26-.12C7318.3,7305.34,7318.3,7305.61,7318.3,7305.61Z" transform="translate(-7007.18 -6971.08)"/><path class="cls-2" d="M7311.64,7300.9a10.59,10.59,0,0,1,4.11-.06,4.22,4.22,0,0,0-2.45-3.27,8.06,8.06,0,0,0-1-.24A20.75,20.75,0,0,1,7311.64,7300.9Z" transform="translate(-7007.18 -6971.08)"/><path class="cls-2" d="M7335.15,7341.32c0-2.91-2.29-6.45-2.29-6.45s4.16-6.79-.42-9c0,0,2.77-3.88,0-7.21s-5.27-3.05-5.27-3.05,0-4.16-2.22-4.71l-.3-.06a7,7,0,0,1-1.09,5c4.58,2.22.42,9,.42,9s2.29,3.54,2.29,6.45-4.79,5.2-4.79,5.2a9.15,9.15,0,0,1,.21,9.78c-3.12,5.2-11.44,3.74-11.44,3.74s-3.12,8.95-12.06,9.36-11-4.78-11-4.78-3.12,3.74-6.24,1-1.87-5.62-1.87-5.62a9.14,9.14,0,0,1-1.22.16,4.56,4.56,0,0,0,.53,0s-2.29,5.41,1.46,8.11a10.77,10.77,0,0,0,8.11,1.66s-1.25,2.91,1.87,5.62,6.24-1,6.24-1,2.08,5.2,11,4.78,12.06-9.36,12.06-9.36,8.32,1.46,11.44-3.74a9.15,9.15,0,0,0-.21-9.78S7335.15,7344.23,7335.15,7341.32Z" transform="translate(-7007.18 -6971.08)"/></g><g class="cls-8"><path class="cls-2" d="M7309.32,7361.45a7.78,7.78,0,0,1-5.06-1.79c-1.33-1.12-2.9-3.28-2.86-7.18a.8.8,0,0,1,.84-.82.83.83,0,0,1,.82.84,7.3,7.3,0,0,0,2.27,5.9,6.34,6.34,0,0,0,5.25,1.28,5.9,5.9,0,0,0,4.56-3.51.83.83,0,0,1,1.4-.28c.68.76,2.47,2.27,3.36,1.79,1.09-.58.34-2.92.33-2.94a.84.84,0,0,1,.19-.85.83.83,0,0,1,.85-.21s2.39.73,3.57-.76c1-1.32.26-4.37-.13-5.44a.83.83,0,0,1,.32-1,6.67,6.67,0,0,0,2.55-4.4c.33-2.64-2.35-3.68-2.38-3.69a.83.83,0,0,1,.59-1.56,5.26,5.26,0,0,1,3.44,5.46,8.3,8.3,0,0,1-2.76,5.18c.41,1.35,1.16,4.59-.32,6.46a4.51,4.51,0,0,1-4,1.56c.17,1.33,0,2.92-1.43,3.65-1.61.85-3.47-.4-4.53-1.33a7.67,7.67,0,0,1-5.28,3.49A8.85,8.85,0,0,1,7309.32,7361.45Z" transform="translate(-7007.18 -6971.08)"/></g><g class="cls-8"><path class="cls-2" d="M7288.32,7351.06a4.8,4.8,0,0,1-1.69-.29,5.82,5.82,0,0,1-3.52-4.2c-2,0-7.44-.73-8.46-7a8.8,8.8,0,0,1,3.86-9.28,7.48,7.48,0,0,1-3.14-5.19c-.57-3.8,1.65-5.78,2.9-6.3a.83.83,0,0,1,.64,1.53c-.11,0-2.41,1.1-1.89,4.52a5.73,5.73,0,0,0,3.5,4.64.83.83,0,0,1,0,1.57,7.19,7.19,0,0,0-4.25,8.24c1,6.1,7.15,5.57,7.42,5.55a.84.84,0,0,1,.91.75,4.44,4.44,0,0,0,2.58,3.56c2.33.87,5.37-1.48,5.4-1.5a.83.83,0,0,1,1,1.31A10,10,0,0,1,7288.32,7351.06Z" transform="translate(-7007.18 -6971.08)"/></g><path class="cls-2" d="M7070.58,7263.71s5.58,4.46,11.06,1,5.38-7,5.38-7,6.38.61,7.52-2.43a13.31,13.31,0,0,0,.59-6.23s8.29,3.14,8.93.85a28.17,28.17,0,0,0,.59-6.23s9.71,1.7,11.85-2.8,1.18-12.46,1.18-12.46,4.55-5,4.7-10-9.79-12.12-9.79-12.12,4.34-8.43.58-12.91-11.67-5.23-11.67-5.23,0-7.07-4.65-9.28a14.34,14.34,0,0,0-9.25-.88s-5-4.6-11.52-4-7.75,3.68-7.75,3.68-5.54-3.77-16.37-2.73-11.6,9.21-11.6,9.21-8-4-12.63.86a14.11,14.11,0,0,0-3.63,11.15s-4.3-2.18-8.86,1.81.76,8.91.76,8.91-8.25,2.16-8.81,14.78,12.75,18.3,12.75,18.3-3.34,11.47,4.22,16.6a15.17,15.17,0,0,0,15,1.13s2.87,7,7.34,7.47,10.19-2.27,10.19-2.27S7066.57,7269.82,7070.58,7263.71Z" transform="translate(-7007.18 -6971.08)"/><g class="cls-7"><path class="cls-2" d="M7103.52,7246.81a6.86,6.86,0,0,1-1.89,4c1.25.1,2.24-.08,2.44-.81a17.46,17.46,0,0,0,.48-3.15C7103.93,7246.85,7103.52,7246.81,7103.52,7246.81Z" transform="translate(-7007.18 -6971.08)"/><path class="cls-2" d="M7111.63,7238.15a13.72,13.72,0,0,1-.45,5.78c2.26-.3,4.44-1.09,5.33-3a11.1,11.1,0,0,0,.5-1.3A34.75,34.75,0,0,1,7111.63,7238.15Z" transform="translate(-7007.18 -6971.08)"/><path class="cls-2" d="M7046.51,7265.26c4.47.42,10.19-2.27,10.19-2.27s9.87,6.83,13.88.73c0,0,5.58,4.46,11.06,1s5.38-7,5.38-7,6.38.61,7.52-2.43c.05-.14.08-.27.13-.41a11.47,11.47,0,0,1-7.6-2.26c-4,6.1-13.88-.73-13.88-.73s-5.73,2.7-10.19,2.27-7.34-7.47-7.34-7.47a15.17,15.17,0,0,1-15-1.13c-7.56-5.14-4.22-16.6-4.22-16.6s-13.3-5.68-12.75-18.3,8.81-14.78,8.81-14.78-5.33-4.92-.76-8.91,8.86-1.81,8.86-1.81a11.58,11.58,0,0,1-.09-1.74,6.1,6.1,0,0,0-.14.74s-8-4-12.63.86a14.11,14.11,0,0,0-3.63,11.15s-4.3-2.18-8.86,1.81.76,8.91.76,8.91-8.25,2.16-8.81,14.78,12.75,18.3,12.75,18.3-3.34,11.47,4.22,16.6a15.17,15.17,0,0,0,15,1.13S7042,7264.83,7046.51,7265.26Z" transform="translate(-7007.18 -6971.08)"/></g><g class="cls-8"><path class="cls-2" d="M7019.07,7226.08a10.41,10.41,0,0,1,3.42-6.84c1.9-1.7,5.42-3.59,11.4-3a1.17,1.17,0,0,1,1.15,1.3,1.23,1.23,0,0,1-1.4,1c-3.95-.42-7.18.38-9.34,2.32a8.39,8.39,0,0,0-2.67,7.19,8.59,8.59,0,0,0,4.78,6.91,1.21,1.21,0,0,1,.74,1,1.12,1.12,0,0,1-.5,1.06c-1.25.84-3.81,3.14-3.2,4.45.74,1.61,4.43.9,4.47.89a1.37,1.37,0,0,1,1.28.39,1.1,1.1,0,0,1,.21,1.22s-1.43,3.25.7,5.12c1.88,1.65,6.67,1,8.36.61a1.35,1.35,0,0,1,1.46.59,10.41,10.41,0,0,0,6.41,4.22,5.63,5.63,0,0,0,6-2.8,1.32,1.32,0,0,1,1.71-.53,1.15,1.15,0,0,1,.61,1.58,8.12,8.12,0,0,1-8.83,4,13.11,13.11,0,0,1-7.57-4.64c-2.13.38-7.19,1-9.87-1.39a6.07,6.07,0,0,1-1.85-5.89c-2.07,0-4.47-.48-5.41-2.54-1.09-2.37,1.07-4.8,2.64-6.17a10.87,10.87,0,0,1-4.65-7.92A11.54,11.54,0,0,1,7019.07,7226.08Z" transform="translate(-7007.18 -6971.08)"/></g><g class="cls-8"><path class="cls-2" d="M7037.81,7198.11a6.28,6.28,0,0,1,.67-2.32c1.67-3.21,5.09-4.09,6.91-4.33.33-2.84,2.11-10.33,11.79-10.86,8.17-.45,12.08,4,13.72,6.77a11.68,11.68,0,0,1,8.37-3.65c5.9-.25,8.65,3.16,9.27,5a1.14,1.14,0,0,1-.84,1.46,1.32,1.32,0,0,1-1.6-.78c-.06-.17-1.37-3.54-6.68-3.32-5.56.23-7.5,4.08-7.58,4.24a1.33,1.33,0,0,1-2.41-.2c-.1-.31-2.46-7.69-12.07-7.17s-9.49,9.23-9.49,9.6a1.21,1.21,0,0,1-1.27,1.17c-.17,0-4.22,0-5.81,3.1s1.55,7.76,1.58,7.81a1.1,1.1,0,0,1-.37,1.62,1.36,1.36,0,0,1-1.77-.37C7040.1,7205.69,7037.45,7201.88,7037.81,7198.11Z" transform="translate(-7007.18 -6971.08)"/></g></g></g></svg>