<svg xmlns="http://www.w3.org/2000/svg" viewBox="0 0 452.3 338.77"><defs><style>.cls-1{isolation:isolate;}.cls-2{fill:#929497;}.cls-3{fill:#895d3b;}.cls-4{opacity:0.4;}.cls-4,.cls-6,.cls-7{mix-blend-mode:multiply;}.cls-5,.cls-6,.cls-7{fill:#1a9270;}.cls-6{opacity:0.8;}.cls-7{opacity:0.7;}</style></defs><title>drzewo1</title><g class="cls-1"><g id="Layer_1" data-name="Layer 1"><ellipse class="cls-2" cx="202.06" cy="320.27" rx="137.88" ry="18.5"/><path class="cls-3" d="M7093.32,7341.54s25.84-2,37-18.5,18.09-22.53,35.31-37.17,24.13-26.27,26.7-35.74,23.69-15.42,0-20-24.12-7.22-41.34-3.09-35.31,8.08-47.37,7.61-15.5,1.15-26.7-2.89-11.63-4.11-7.32-4.72,19.38,0,35.31-2,16.78-2,30.35-5,18.31-6,31.66-6.89,23.25,2.46,31.86-2.65,10.33-12.78,7.75-18.84-5.17-11.67-18.08-16-11.2-4.94-26.27-7-23.68-5.23-34-4.5-12.49,2.29-24.54,0-36.6-3.15-40.91-8.75-6.89-11.68-4.31-10.79,20.24,3.88,25.41,6,8.18-1.33,2.58-6-17.65-14.5-7.32-9.18,11.63,5.3,18.52,10.27-3,3.21,18.09,5,36.6,9.06,38.75,2.6.86-13.67-4.74-17.81,1.79-4.15-17.19-5.87-25.44,1.78-28.45-3.85-18.95-12.72-18.95-12.72,15.07,2.36,22,6,5.6,1.82,22.39,3.6,22,3.1,22,3.1-22-9.22-25.84-17.11-10.33-24.45-10.33-24.45-.86-4.42.43-3.19,9.47,18.53,15.07,23.88,10.33,6,18.95,5.66,18.52,8.58,16.36-1.9-5.6-12.36-12.49-20.24-29.28-28.29-16.36-18.3,13.35,8,15.5,10.91,3.44.44,4.74.83,18.09-12.29,18.09-12.29-2.59,6.27-5.17,14.64-.86,14.3,2.15,18,4.31,10.52,7.32,14.65,1.29,7,9.47,5.8,39.19-6.49,37.89-5.8-22.39,5.77-29.28,10.12-26.27,17.67-18.95,23.71,13.35,9.92,24.11,9.92,38.32,8,45.64,8.08,26.27-3.08,29.28-4.5,8.18,2.87-2.15,7.18-25.84,6.56-35.31,7.8-18.09,1.13-15.5,8.29,15.5,10.19,20.24,7.38,15.07-5.07,17.22-7.38,12.49-5.24,11.63-2.05-16.79,16.18-16.79,16.18,14.21.08,16.79,0,11.63-.35,18.95,0,23.25-2.74,19.38,2.9-29.71,7.36-41.77,8.65-29.28-3.07-35.31,3.2-12.06,15.83-9.47,22,2.15,8.35,14.64,12.23,12.92,5.26,32.3,6.94,21.1,5.61,36.6,4.51,28.85,4.09,29.28,4.51,12.92,9.46,0,6-52.1-2.86-54.26-3.37-27.56-2.2-44.78-2.65-32.66,9-38.72,19.36-2.19,21.53-4.77,32.73,3.88,26.54,2.15,30.06-29.71,5.68-51.24,7-51.67,2.15-58.56,0-3-10,.86-12.06" transform="translate(-6974.6 -7032.41)"/><g class="cls-4"><path class="cls-3" d="M7104.08,7125.71c3,5.63,9.47,2.12,28.45,3.85s11.59,1.72,17.19,5.87a14.25,14.25,0,0,1,5.68,10.95c1.32-6.65,14.92-15.94,20.46-19.44a50.62,50.62,0,0,1,9.4-4.07,3.74,3.74,0,0,1-3.49-2.58c-6.05,1-11.67,1.9-14.52,2.33-8.18,1.24-6.46-1.67-9.47-5.8a27.35,27.35,0,0,1-2.92-5.65,18.3,18.3,0,0,0-5.14-.67c-2,.07-3.8.09-5.45,0,.5,7.36-8.62-.31-16.64,0l-.76,0c6,7.39,24.57,15.19,24.57,15.19s-5.17-1.32-22-3.1c-3.42-.36-6.08-.57-8.22-.71,4.52,2.31,8.09,3.81,8.09,3.81s-5.17-1.32-22-3.1c-2.66-.28-4.87-.47-6.72-.61A13.55,13.55,0,0,1,7104.08,7125.71Z" transform="translate(-6974.6 -7032.41)"/><path class="cls-3" d="M7321.12,7270.33a48.46,48.46,0,0,0-4.44-3.82c-.43-.41-13.78-5.62-29.28-4.51s-17.22-2.83-36.6-4.51-19.81-3.06-32.3-6.94-12.06-6-14.64-12.23a7.89,7.89,0,0,1-.5-2c-1.14,3.62-9.44,8-11,13.77-2.58,9.47-9.48,21.1-26.7,35.74s-24.11,20.67-35.31,37.17-37,18.5-37,18.5l-3.88,2c-3.88,2-7.75,9.9-.86,12.06a47.61,47.61,0,0,0,10.16,1.14c8.86-.23,18.2-.65,26.32-1.14,21.53-1.29,49.52-3.45,51.24-7s-4.74-18.87-2.15-30.06-1.29-22.39,4.77-32.73,21.5-19.81,38.72-19.36c4.29.11,9.08.3,13.9.53a46.1,46.1,0,0,1,8.19-.53c17.22.45,42.63,2.14,44.78,2.65C7286,7269.5,7305.15,7269.33,7321.12,7270.33Z" transform="translate(-6974.6 -7032.41)"/><path class="cls-3" d="M7142.82,7077.28c2,1.94,4,3.94,5.82,5.81.49-1.55,1-3,1.44-4.38-1-.57-2.53-1.36-5-3Z" transform="translate(-6974.6 -7032.41)"/><path class="cls-3" d="M7103.65,7164.14l.73.13,1.73-.13a55.42,55.42,0,0,1,13.34.88c2.42-.26,5.06-.62,8.74-.88,10.34-.73,18.95,2.45,34,4.5s13.35,2.68,26.27,7c7.56,2.52,11.58,5.48,14.13,8.72.78-4.09,8-4.2,15.89-5.22,9.47-1.24,25-3.5,35.31-7.8,2.92-1.22,4.61-2.44,5.45-3.53a83.9,83.9,0,0,1-10.49.85,55.93,55.93,0,0,1-8.52-1.27,101.31,101.31,0,0,1-13.56,1.27c-7.32-.1-34.88-8.08-45.64-8.08s-16.79-3.88-24.11-9.92a4.22,4.22,0,0,1-1.5-2.33,19,19,0,0,1-1,4.92c-1.53,4.59-9.81,2.22-22-.16l0,.16c-2.15,6.46-17.65-.86-38.75-2.6l-4.52-.36c-.75,1.12-2.75,1.41-5.26.36a27.61,27.61,0,0,0-2.88-1c-1.39-.14-1.85-.27-2.13-.58-3.83-1-8.72-2-12.79-2.81,3.12,3.8.25,6.25-4.28,4.35a26.62,26.62,0,0,0-2.71-.91,42.61,42.61,0,0,0,3.7,5.66C7067,7161,7091.59,7161.85,7103.65,7164.14Z" transform="translate(-6974.6 -7032.41)"/><path class="cls-3" d="M7077,7231.77a41.7,41.7,0,0,0,11.89,2.72c11.45-.83,26.06-4.08,40.09-7.44,11.71-2.81,15.66-2.47,24.44-.54,15-3.32,16.44-.71,39,3.64,7,1.35,10.09,2.82,10.9,4.46.24-5.89,5.15-13.19,10.07-18.31s17.45-3.13,28.43-3a46.51,46.51,0,0,1,9.37-.5c12.8-1.27,35.65-3.12,39.27-8.39,1.15-1.67.55-2.57-1-3-6.4-.14-13,.06-15.2.13l-.82,0h-1.09c-4.69,0-14.88,0-14.88,0l.16-.13c-2.47,0-4.45.1-5.45.13-2.58.08-16.79,0-16.79,0s3.21-2.62,6.83-5.8a20.66,20.66,0,0,1-13.08-3.49,36.86,36.86,0,0,0-5.81,2.54c-3.51,2.08-11.52,1-16.48-2.69,2.28,6,.44,13.37-7.94,18.34-8.08,4.79-17.28,2.17-29.4,2.53a37.25,37.25,0,0,1-5.68.39c-11,1.11-16,3.86-28.44,6.62-13.57,3-14.42,3-30.35,5s-31,1.44-35.31,2S7065.76,7227.73,7077,7231.77Z" transform="translate(-6974.6 -7032.41)"/></g><path class="cls-5" d="M7030.88,7148.52s7.88-15.56,17.27-11.35,16.89,13.23,19.52,9.47,2.63-15.39,12.39-17.27,28.15,0,29.66,3,12,4.5,13.89,3,6-4.88,14.26-3.75,24.09,0,26.87,4.13,8.79,6,7.66,16.52,7.2,18-7.66,19.14-22.37-7.88-29.12-4.13-7.51,9.38-15,14.26-6.38,7.88-21.4,7.13-3.38-3.75-22.15-2.25-27,5.25-32.28-3-10.86-4.9-13.89-9.76-4.66-9-3-11.64S7030.88,7148.52,7030.88,7148.52Z" transform="translate(-6974.6 -7032.41)"/><path class="cls-6" d="M7171.58,7152.47c.07-.63.11-1.22.13-1.79a28.14,28.14,0,0,1-3.23.42c-14.78,1.12-22.24-7.84-29-4.11s-7.46,9.33-14.93,14.18-6.35,7.84-21.28,7.09-3.36-3.73-22-2.24-26.87,5.23-32.1-3-10.8-4.87-13.81-9.71a27.83,27.83,0,0,1-3.28-6.74c-.79,1.27-1.24,2.14-1.24,2.14s-1.34,10.77-3,13.44,0,6.74,3,11.57,8.59,1.49,13.81,9.71,13.44,4.48,32.1,3,7.09,1.49,22,2.24,13.81-2.24,21.28-7.09,8.21-10.45,14.93-14.18,14.18,5.23,29,4.11S7170.46,7162.93,7171.58,7152.47Z" transform="translate(-6974.6 -7032.41)"/><path class="cls-5" d="M7187.19,7148.11s2.72-15.09,11.92-14.7,23,5.42,27.76-2.15,7.92-11.21,23.34-8,15.62,9.13,16.85,14,5.88,9.46,16.29,10.08,16.46,2.14,18.06,9.59,7.12,9.56,10.23,15.67,5.19,8.59,3.27,14.56,1.36,13.59-9.66,10.4-15.18-8.15-22.22-6.47-4.73,7.55-23.32.84-18.85-12.23-23.33-8.41-12.89,10.73-22.71,11.49-13.62,10.15-21.65-1.39-14.85-11.09-15.56-18.8-2-11.59,2.39-14S7183,7148.19,7187.19,7148.11Z" transform="translate(-6974.6 -7032.41)"/><path class="cls-7" d="M7314.92,7187.15c1.78-5.55.12-8.09-2.62-13.32a15,15,0,0,1-4.62-.74c-11-3.18-15.17-8.15-22.22-6.47s-4.73,7.55-23.32.84-18.85-12.23-23.33-8.41-12.89,10.73-22.71,11.49-13.62,10.15-21.65-1.39c-5.05-7.26-9.62-9.77-12.5-12.56a8.17,8.17,0,0,1-3.09,4.19c-4.37,2.44-3.11,6.32-2.39,14s7.54,7.26,15.56,18.8,11.83,2.15,21.65,1.39,18.23-7.66,22.71-11.49,4.75,1.7,23.33,8.41,16.27.84,23.32-.84,11.2,3.28,22.22,6.47S7313,7193.13,7314.92,7187.15Z" transform="translate(-6974.6 -7032.41)"/><path class="cls-5" d="M6981.16,7293.42s18.27,5.37,26.87,0,14.33-6.81,16.48-7.17,15.41,2.51,23.29-3.94,16.84-12.9,31.89-12.18,20.42,2.76,21.86-.05,9.54-17.91,27.23-16.79,25.33,3.56,32.25-.06,9.31-7.11,21.5-5,12.18-8.06,27.23-7.08,25.08,8.22,35.11,10.16,29.74-3.08,40.13-5.59,36.9-10,51.23-4.64,23.65,12.16,33.68,14.67,32.25,3.13,32.25,3.13,24.36-1.33,24.72,3-1.79,5-10.75,8.24-9,6.09-14.69,7.88-7.17,9.32-20.42,2.51-28.3-6.81-31.53-6.81.36,5,7.88,7.16,15.41,6.09,15.41,7.52,13.62,3.94,15.41,10.39.72,5.9,3.58,9.94,8.24,6.9,8.24,6.9-3.22,1.43-8.6,0-11.46-4.66-16.12-5.37-14.33,1.79-18.27,1.08-10.75-4.3-20.78-4.3-23.85,4.3-29.12-2.15-14.94-11.82-25-14.33-16.12.69-21.86-3.94-15-4.66-24.36-2.15-22.89,3.94-31.87,5-19.37,2.87-27.25,5.37-18.27,7.17-31.17,4.66-21.12-5.45-25.44-3.23-12.18,5-15,6.09-8.6-.36-24,1.79-15,3.58-29,2.87-18.27,7.17-29.74,6.45-9.32-5.73-22.57-7.17-26.51-1.79-25.08-7.17A7.56,7.56,0,0,1,6981.16,7293.42Z" transform="translate(-6974.6 -7032.41)"/><path class="cls-5" d="M7032.75,7247.92s-10,8.24-20.42,6.81-26.87-2.51-22.21-6.81,13.26-5,18.27-6.09,7.17-4.22,10-7.84a172.61,172.61,0,0,1,14.33-15.09c4.66-4.3,9.67-11.11,10.75-15.41s3.58-10.39,11.47-10.39,23.29-3.22,30.45-6.09,19.35-2.15,27.95-2.15,42.73-11,71-5.09,45.13,8.67,61.25,6.16,20.42-8.6,30.81-3.23,20.78,11.11,35.83,14,43,8.24,55.18,12.9,27.95,13.62,25.08,17.92-4.3,5.49-24.72,4.18-24.36,1.67-38.69,0-39.77-7.76-40.84-7.76-21.27-3.58-28.37,1.44-10.88,9.26-29.59,8.93-46.27,3.2-51.48,0-24.56-5.59-28.86-2.6-16.84,7.57-16.84,7.57-28.59-.66-30.24,2.21-7.38,7.89-21,7.54-18.27-8.24-26.51-3.22S7032.75,7247.92,7032.75,7247.92Z" transform="translate(-6974.6 -7032.41)"/><path class="cls-6" d="M6974.71,7299.15c-1.43,5.38,11.82,5.73,25.08,7.17s11.11,6.45,22.57,7.17,15.76-7.17,29.74-6.45,13.61-.72,29-2.87,21.14-.72,24-1.79,10.73-3.87,15-6.09,12.54.72,25.44,3.23,23.29-2.15,31.17-4.66,18.27-4.3,27.25-5.37,22.55-2.51,31.87-5,18.62-2.48,24.36,2.15,11.82,1.43,21.86,3.94,19.71,7.88,25,14.33,19.09,2.15,29.12,2.15,16.84,3.58,20.78,4.3,13.62-1.79,18.27-1.08,10.75,3.94,16.12,5.37,8.6,0,8.6,0a31.28,31.28,0,0,1-3.71-2.43,10.5,10.5,0,0,1-5.59-2.11c-6.51-5.13-10.93-14.59-29.15-16.61s-15-4.86-18.63-10.11c-3.5-5,1.59-4.54,5.58-9.15-.41-.89-.13-1.51,1-1.51h1.41a15.28,15.28,0,0,1,4.47.19c6.37.44,16.44,1.88,25.65,6.61,13.26,6.81,14.69-.72,20.42-2.51s5.73-4.66,14.69-7.88c8.28-3,10.74-3.82,10.78-7.33-3.86.66-10,3.87-16.37,5.63-9.72,2.71-19.84-1.49-31.18-3.93s-21.87-5.26-33.61-5.26-39.61,13.21-51.39,18-20.69-5.89-40.53-8.85-20.65,1.34-44.54,6.61a247.7,247.7,0,0,1-53.56,5.67c-9.83,0-17.3-2-33.44-2.95s-18.28,3.76-26,9.43-26.73,10.93-39.28,10.82-19.84-1.91-42.11,3.35-33.75-7.94-33.75-7.94A7.56,7.56,0,0,0,6974.71,7299.15Z" transform="translate(-6974.6 -7032.41)"/><path class="cls-6" d="M7367.39,7209.58c-.76-.29-1.58-.58-2.46-.88,1.3,4.42,4.51,11.67,3.08,11.67-2,0-37.25-4.45-58.3-9.72s-19.44-2.84-34.92-4.86-22.18,6.07-31.72,9.35-13.8,0-27,0-25-8.54-36.75-11.78-41.3,8.5-50.54,19.44-32.47,9.31-54.75,6.48-31.18,5.67-49.81,13.77c-10.91,4.75-18.35,2.62-22.64.05-4.14.85-8.57,2.14-11.47,4.82-4.66,4.3,11.82,5.37,22.21,6.81s20.42-6.81,20.42-6.81,14.33,2.87,22.57-2.15,12.9,2.87,26.51,3.22,19.35-4.66,21-7.54,30.24-2.21,30.24-2.21,12.54-4.58,16.84-7.57,23.65-.6,28.86,2.6,32.77-.33,51.48,0,22.49-3.91,29.59-8.93,27.3-1.44,28.37-1.44,26.51,6.09,40.84,7.76,18.27-1.31,38.69,0,21.86.12,24.72-4.18S7379.57,7214.24,7367.39,7209.58Z" transform="translate(-6974.6 -7032.41)"/><path class="cls-5" d="M7117.33,7103s43.1,4.05,48.41,0,9.4-10.59,16.76-3.64,9.54,7.18,20,8.63,2.86-7,20-2.5,29.47.92,38.64,6.79,17.35,3.42,15.72,9.56,8.11,9.71-11.44,9.4-21-4.05-25.83,0-4,8.8-14.64,10.11-22.07-4.18-31.06,0-15.62,9.08-39.9,5-33.67-9.21-50-10.12-28.61,3.17-29-5.41-20-8.27-7.77-13.74,9.81-8.23,22.07-9.1S7117.33,7103,7117.33,7103Z" transform="translate(-6974.6 -7032.41)"/><path class="cls-6" d="M7276.92,7121.83c1.35-5.07-4-4.27-11.1-7.18h-.34c-19.56-.31-21-4-25.83,0s-4,8.8-14.64,10.11-22.07-4.17-31.06,0-15.62,9.08-39.9,5-33.67-9.21-50-10.12-28.61,3.17-29-5.41a5.34,5.34,0,0,0-.2-1.19,55.83,55.83,0,0,1-7.56,4c-12.26,5.47,7.36,5.16,7.77,13.74s12.67,4.5,29,5.41,25.75,6,50,10.12,30.91-.82,39.9-5,20.44,1.31,31.06,0,9.81-6,14.64-10.11,6.27-.33,25.83,0S7275.28,7128,7276.92,7121.83Z" transform="translate(-6974.6 -7032.41)"/><path class="cls-5" d="M7134.51,7099.92s-44.29,1.73-45.93,0-10.26-9.26-2.87-12.27,20.94-3.83,27.1-12.45,15.08-21.35,21.71-30,11.06-16.83,16-10.67,6.61,10.67,14.41,20.94,33.25,22,35.72,32.16,7.39,14.64,0,14.64h-23.4c-14,0-18.47-4.93-28.74-2.05S7134.51,7099.92,7134.51,7099.92Z" transform="translate(-6974.6 -7032.41)"/><path class="cls-6" d="M7160.31,7084.91c-6,11.6-35.27,0-35.73-10.67-.25-5.75,3.4-16.33,6.83-24.89-6.12,8.22-13.36,18.52-18.59,25.85-6.16,8.62-19.71,9.44-27.1,12.45s1.23,10.54,2.87,12.27,45.93,0,45.93,0,3.75,3.19,14,.32,14.73,2,28.74,2.05h23.4c7.39,0,2.46-4.52,0-14.64-.59-2.42-2.5-4.93-5.15-7.5a29.29,29.29,0,0,1-6-.82C7182.28,7077.22,7166.34,7073.31,7160.31,7084.91Z" transform="translate(-6974.6 -7032.41)"/></g></g></svg>