<svg xmlns="http://www.w3.org/2000/svg" viewBox="0 0 341.91 486.4"><defs><style>.cls-1{isolation:isolate;}.cls-2{fill:#929497;}.cls-3,.cls-4{fill:#603813;}.cls-4,.cls-9{opacity:0.3;}.cls-4,.cls-6,.cls-7,.cls-8{mix-blend-mode:multiply;}.cls-5,.cls-7{fill:#1a9270;}.cls-6{opacity:0.7;}.cls-7,.cls-8{opacity:0.8;}.cls-9{fill:#69c3a6;}</style></defs><title>drzewo3</title><g class="cls-1"><g id="Layer_1" data-name="Layer 1"><ellipse class="cls-2" cx="184.6" cy="467.9" rx="104.89" ry="18.5"/><path class="cls-3" d="M7187.6,7075.84s9.24,199.18,9.24,228.59-5.41,65.55-4.81,79.84-1.92,20.17-11.16,31.94-8.4,10.08,8,10.08,51.69,0,44.12-4.2-6.75-20.17-10.1-50.42-9.23-71.43-9.23-101.69S7194.33,7037.18,7187.6,7075.84Z" transform="translate(-7028.96 -6958.47)"/><path class="cls-4" d="M7201.27,7278c0-15.37-4.63-73.59-10.15-124.32,2.61,59.33,5.73,133.65,5.73,150.74,0,29.41-5.41,65.55-4.81,79.84s-1.92,20.17-11.16,31.94-8.4,10.08,8,10.08c6.91,0,17.17,0,26.17-.31-2-8.66-2.41-22.58-4.53-42.43C7207.15,7352.14,7201.27,7309.41,7201.27,7278Z" transform="translate(-7028.96 -6958.47)"/><path class="cls-5" d="M7366.18,7256.75c2.29-.22,6.12-4.11,4.14-4.66s-20.75.58-25.9.73-7.38,1.57-16,.75-12.49-2.23-18.44-3.42-5.16-.31-9.56-.19-16.29-7.88-15.69-7.9,17.59.26,16.12-3.49,10.35,1.53,10-4.07-9-6.42-16.63-9.24,4.29-3.76,9.68-6.18,16.59-3.2,9.4-5.42-10-.17-6.23-6,9-7.37,6.56-9.5,2.79-3-5.36-1.75-3.19-.21-12.69,1.57-15.47,5.29-19.47,3-2.84-9.17-4.75-12.6-1.31-3.6,4.85-8,12.32-1.26,17.69-4.44,18-3.23,12.88-5.67-13.84-1.58-7.67-3.27,14.69-.71,9.73-4.37,5-3.93,1-6.25-10.23-2.59-7-6.32,15-6.18,14.63-8.14-6.35.79-9.81,1.64-1.51,0-1.63-3.9-.5-7-2.33-2.06-.54,7.6-5.11,7.12-20.64-.78-15.64-6.38,18.35-5.37,15.73-6.66-7.81,2.65-10.3.29,6.16-7.45,5.49-9.71-1.4-1.17-5.1,1.81-4.12-.79-9.6,3.61-5.67,3.34-7.62,9.31-7.41,6.12-10.35,4.08-11.84-22.11-7.19-23.91,20.72-1.79,15.8-4.38-4.42-6.24-3.36-6.27,11.36-.32,8.55-3.12-3.7-2,3.19-5.09,14.7-5.57,8.42-7.82-16.54-.45-22.33-1.5-12.79-7.37-11.56-12.11,10.06-3.46,8.18-5.54.95-4,1-7-4.6-1.84-5.73-4.39,4.53-5.89,6.73-8.53-.89-4.83-3.53-1.42-5.77,5-6.86,4-3.87-2.92-1-8.92,5.08-13.48,2.64-8.56-7.35,13.7-11.74,13.67-4.39.28-5.86-3.47-2.33-2.06-4.83-4.72,11.34-6.33,5.58-6.58-8.42,2.56-8.05-.63,2.7-6.29,7.47-9.15,10.48-4.54,5.77-5-8.11,2.65-10.6.3-2.78-1.89-3.06-6.28-6.83-11-6.83-11,8.1-3,7.83-7.19-6.22-.28-3.56-7.93,7.31-9.45,3.33-11-3.33-10.52-6.26-7-6.73,8.68-9.67,6.49,4.67-11.92.88-11.83-9,9.33-9.24,5.55c-.1-1.42-.25-3.43-.47-5.12a6.39,6.39,0,0,0,2.28-3.77c1.19-5.11-4.55.18-7.06,3.75s-3.34.07-4.57-5.26c-1-4.34-1.62.15-1.95,4-1.53-1-2.59-1-2,1.48a7.85,7.85,0,0,0,.52,1.53c-1.84-1.34-5.27-6-8-6.07-3.79-.07,3.86,9.63.93,11.83s-6.75-2.89-9.7-6.45-2.25,5.4-6.23,7,.68,3.35,3.37,11-3.27,3.71-3.53,7.95,7.86,7.16,7.86,7.16-6.53,6.66-6.79,11.05-.55,3.93-3,6.29-5.89-.75-10.61-.26,1,2.15,5.79,5,7.13,5.93,7.51,9.13-2.28.4-8.05.66,8.09,3.89,5.6,6.55-3.36,1-4.81,4.73-1.45,3.45-5.84,3.5-9.34-8.71-11.8-13.62-.21,2.57,2.67,8.55.11,7.88-1,8.92-4.23-.56-6.88-4-5.73-1.2-3.52,1.43,7.89,6,6.77,8.5-5.79,1.38-5.72,4.41,2.91,4.92,1,7,7,.77,8.2,5.5-5.73,11.08-11.51,12.15-16.05-.69-22.32,1.58,1.55,4.74,8.45,7.78,6,2.27,3.21,5.08,7.51,3.06,8.57,3.09,1.58,3.68-3.34,6.29,11.16,2.54,15.81,4.32-4.17,21.88-7.1,23.93-8.38,1.92-10.36-4-2.16-4.9-7.66-9.28-5.9-.6-9.62-3.57-4.45-4-5.11-1.79,8,7.32,5.53,9.68-7.69-1.55-10.3-.25,10.74,1,15.76,6.6-11.06,5.95-15.62,6.44-3.28-2.2-5.13-7.1-2.23-1.87-2.32,2.07,1.86,4.74-1.61,3.9-9.46-3.56-9.81-1.6,11.42,4.37,14.66,8.09-3,4-7,6.35,6,2.57,1.06,6.24,3.57,2.66,9.75,4.33-2.6.85-7.66,3.3,7.52,2.46,12.9,5.62,11.52,0,17.71,4.37,6.79,4.56,4.89,8-.7,10.29-4.7,12.62-10-1.15-19.49-2.9-4.54-.26-12.7-1.52-2.87-.37-5.35,1.77,2.79,3.62,6.59,9.48,1,3.81-6.21,6.07,4,3,9.42,5.38,17.35,3.3,9.71,6.15-16.31,3.7-16.6,9.3,11.51.28,10.06,4,15.53,3.41,16.14,3.42-11.26,8.07-15.65,8-3.61-1-9.56.22-9.77,2.64-18.43,3.49-10.9-.57-16.05-.69-23.92-1.19-25.91-.63,1.86,4.44,4.16,4.65,6.45,1.67,5.33,4.37,8.59,2.18,14.48,3.23,7.53,2.15,4,3.43,15.55,2.8,14.77,3.69-8.94-.37-13.32-.93-12.52-2.58-19-4.1-4.7-.11-6.41,1.66,13.27,9.26,15.35,10.83,5,1.49,5,4.67,3.31,1.14,7.28,0,6,2.72,6.57,4.1,4.73-1.4,9.28-1.29-1.41,1.79-2.54,4.75,8.3-4.91,12.25-5-1.87,2.23,0,4.55,3.88-3.7,6.09-.91,1.57-2.24,3.42-3.71,3.54,3.88,5,5.69,3.8-6.84,4.27-7.13,3.83,4.49,6.76,2.74,9-7.06,10.65-7.93,14.58-1.31,8.75,1.73-12.86,5-16.72,8.24,4.75,4.06,3.79,6.46-6,3.49-11.21,5.79-2.4,5.1-5.34,7.6-11,4.13-14.67,4.8,6,2.12,5.21,3.76-7.84,4.51-13.22,7.56,3.26,3.11,3.68,4.33-5.95,1.52-4.51,4.89,4.79-3.83,14.66-4.34,7.06-3.62,8.28-4.07,6.34,1.09,7.15-.86,3.73-3.85,5.23-3.06,4.17,3,4.2,1.92,2.27-6.16,4.42-7.47,10.77,6.17,16.14,9.64,2.11-5.71,2.46-7.82,8.25,3.69,8.25,3.53,0-4.85.17-7,8.86,3.4,11.84,5.74-3.28-8.42-3.25-9.78,11.46,2.4,11.46,2.4,2.87-5.69,3.05-7.2,3.29,2,5.36,3.92.11-4.54.18-7.27,4.06,1.16,6.29,3.34-1.08-5.33-1.65-7.16,4.23.56,5-.52.77-6.62,2.19-9.16,5.48,5.13,8.43,8.54-.67-3.66-1.19-7.31c0-.21,0-.41-.06-.6.07.06.27-.14.57-.87a1,1,0,0,0-.57.64,4.44,4.44,0,0,1,1.49-3.53c-.11.35-.22.73-.34,1.15a16.25,16.25,0,0,1-.58,1.75,1.14,1.14,0,0,1,.63-.08,4.6,4.6,0,0,1,3.94,5.5c-.5,3.65-4.09,10.73-1.16,7.31s7-11.11,8.4-8.57,1.44,8.09,2.23,9.16,5.57-1.34,5,.5-3.83,9.35-1.62,7.17,6.2-6.09,6.27-3.36-1.86,9.15.2,7.27,5.15-5.45,5.35-3.94,3.08,7.19,3.08,7.19,11.42-3.81,11.45-2.44-6.18,12.15-3.21,9.79,11.6-7.91,11.81-5.79.19,6.82.2,7,7.88-5.68,8.24-3.57-2.87,11.3,2.49,7.81,13.94-11,16.1-9.7,4.42,6.39,4.45,7.46,2.7-1.14,4.19-1.94,4.43,1.09,5.24,3,5.92.38,7.15.83-1.57,3.56,8.3,4,13.25,7.66,14.67,4.29-5-3.65-4.53-4.87,9.06-1.32,3.67-4.35-12.44-5.87-13.25-7.51,8.86-3.13,5.2-3.79-11.74-2.25-14.69-4.74-.15-5.3-5.37-7.58-10.25-3.35-11.23-5.75,7.64-3.25,3.76-6.47-10.91-5.15-16.75-8.17,7.05-2.62,8.74-1.76,7.75,6.15,10.68,7.89,6.28-3.06,6.74-2.77,2.83,8.94,4.29,7.12,3.13-7.17,5-5.71,1.24,6.48,3.44,3.69,4.18,3.22,6.09.89-3.92-4.59,0-4.55,13.41,7.88,12.27,4.92-7.1-4.61-2.56-4.74,8.72,2.63,9.28,1.25,2.58-5.23,6.55-4.13,7.21,3.13,7.28-.05,2.94-3.12,5-4.69,17-9.12,15.31-10.89.06-3.19-6.41-1.64-14.61,3.59-19,4.17-12.53,1.87-13.31,1,18.27-2.49,14.75-3.75-1.89-2.37,4-3.45,15.6-.59,14.46-3.29S7363.89,7257,7366.18,7256.75Z" transform="translate(-7028.96 -6958.47)"/><g class="cls-6"><path class="cls-5" d="M7283.46,7324.31c-.74-.33-1.35-.56-1.87-.75a4.2,4.2,0,0,1,.27,1.05C7281.87,7325.16,7282.57,7324.84,7283.46,7324.31Z" transform="translate(-7028.96 -6958.47)"/><path class="cls-5" d="M7268.37,7316.23c-11.5-8.5,17.25-9.25-13-14.5s-37.5-7-39.25-15.5-20.25-11-18-15.25-.5-10.5-.5-10.5c-1.75-5.5-9.5-6.75-11.5,2.25s-5.5,18.5-8.75,21.75-12,1.25-12,4.5,4.25,6.75-7.25,7.25-19.5-.25-22.5,3.5-8.25,5.25-16.25,8.25-12,3.25-14.75,6.25-11.75,6.25-11,5,7.5-1.25-2-1.25a31.36,31.36,0,0,1-3.55-.21c-2.56,1.32-5.74,2.83-8.49,4.4-5.38,3.05,3.26,3.11,3.68,4.33s-5.95,1.52-4.51,4.89,4.79-3.83,14.66-4.34,7.06-3.62,8.28-4.07,6.34,1.09,7.15-.86,3.73-3.85,5.23-3.06,4.17,3,4.2,1.92,2.27-6.16,4.42-7.47,10.77,6.17,16.14,9.64,2.11-5.71,2.46-7.82,8.25,3.69,8.25,3.53,0-4.85.17-7,8.86,3.4,11.84,5.74-3.28-8.42-3.25-9.78,11.46,2.4,11.46,2.4,2.87-5.69,3.05-7.2,3.29,2,5.36,3.92.11-4.54.18-7.27,4.06,1.16,6.29,3.34-1.08-5.33-1.65-7.16,4.23.56,5-.52.77-6.62,2.19-9.16,5.48,5.13,8.43,8.54-.67-3.66-1.19-7.31c0-.21,0-.41-.06-.6.07.06.27-.14.57-.87a1,1,0,0,0-.57.64,4.44,4.44,0,0,1,1.49-3.53c-.11.35-.22.73-.34,1.15a16.25,16.25,0,0,1-.58,1.75,1.14,1.14,0,0,1,.63-.08,4.6,4.6,0,0,1,3.94,5.5c-.5,3.65-4.09,10.73-1.16,7.31s7-11.11,8.4-8.57,1.44,8.09,2.23,9.16,5.57-1.34,5,.5-3.83,9.35-1.62,7.17,6.2-6.09,6.27-3.36-1.86,9.15.2,7.27,5.15-5.45,5.35-3.94,3.08,7.19,3.08,7.19,11.42-3.81,11.45-2.44-6.18,12.15-3.21,9.79,11.6-7.91,11.81-5.79.19,6.82.2,7,7.88-5.68,8.24-3.57-2.87,11.3,2.49,7.81c3.2-2.08,7.54-5.59,11-7.81C7271.19,7318.29,7269.9,7317.36,7268.37,7316.23Z" transform="translate(-7028.96 -6958.47)"/></g><path class="cls-7" d="M7164.62,7267s-3.5-5.75-9.5-5.5-8.75,2-20.5,2.75-18.75-6.25-24,0a32.25,32.25,0,0,1-25.25,12c-11.75,0-12,1.25-17.25,0s-13.75,1-20.5-5.25a37.41,37.41,0,0,0-13.06-7.83,6.77,6.77,0,0,1-1,1.66c-1.71,1.78,13.27,9.26,15.35,10.83s5,1.49,5,4.67,3.31,1.14,7.28,0,6,2.72,6.57,4.1,4.73-1.4,9.28-1.29-1.41,1.79-2.54,4.75,8.3-4.91,12.25-5-1.87,2.23,0,4.55,3.88-3.7,6.09-.91,1.57-2.24,3.42-3.71,3.54,3.88,5,5.69,3.8-6.84,4.27-7.13,2.46,2.58,4.75,3.05a81.38,81.38,0,0,1,7.88-4.68,49,49,0,0,1,4.77-3.56c1.23-.63,8.37-1,9.94,0,5.07-.62,9.87-1.15,13.19-.45,4.75,1-6.25,7-3,7.75s6.25,1.25,11.25-2.5S7164.62,7267,7164.62,7267Z" transform="translate(-7028.96 -6958.47)"/><path class="cls-7" d="M7033.67,7253.44c2.29.21,6.45,1.67,5.33,4.37s8.59,2.18,14.48,3.23,7.53,2.15,4,3.43,15.55,2.8,14.77,3.69c4.56,1.12,2.88-.69,5.58-.94s17.8-1.25,21.18-3.75,23.37-5.75,30.37-7.32-4.25-4.43-5-4.43-25.75,5.5-32,7-27-2.75-30.75-2.57c-3.15.15-25.53-5.24-32.61-7C7028.54,7250.33,7031.68,7253.26,7033.67,7253.44Z" transform="translate(-7028.96 -6958.47)"/><g class="cls-8"><path class="cls-5" d="M7366.38,7268.11a3.75,3.75,0,0,1-.43-.54,55.77,55.77,0,0,0-6.57,1c-2.75.3-14.75,5.45-21.75,8.2s-17,3.5-25,3.5-10.75-.5-17.75-3,.5-4,6.25-4.25,23.5-.5,26.54-1.35c-.31-.35,2.55-.82,5.87-1.34,2.71-.59,6-1.28,9.26-2,.13-.15,0-.3-.37-.45-3.52-1.26-1.89-2.37,4-3.45s15.6-.59,14.46-3.29,3-4.18,5.31-4.39a7.29,7.29,0,0,0,4.14-2.77,3.32,3.32,0,0,0-3.2-.5c-3.2,1.4-19.5,5.5-28.5,8s-11.25,1.51-24.5,1.51-18-.75-32.54-4.12-44.46-11.63-44.46-12.38c0,0-16-6.25-23-11.5s-5.5-8-7.75-16.75-7.25,5.75-5.25,21.5,12.75,16.25,19.75,25.25,4.75,10.25,18.5,16.25,1.25-4.25-.5-8.25,10.5,2.75,23.25,5.75c1.92.45,3.47.87,4.74,1.25,1.18-1.14,8.82-.76,10.1-.11,1.69.86,7.75,6.15,10.68,7.89s6.28-3.06,6.74-2.77,2.83,8.94,4.29,7.12,3.13-7.17,5-5.71,1.24,6.48,3.44,3.69,4.18,3.22,6.09.89-3.92-4.59,0-4.55,13.41,7.88,12.27,4.92-7.1-4.61-2.56-4.74,8.72,2.63,9.28,1.25,2.58-5.23,6.55-4.13,7.21,3.13,7.28-.05,2.94-3.12,5-4.69S7368.09,7269.88,7366.38,7268.11Z" transform="translate(-7028.96 -6958.47)"/><path class="cls-5" d="M7278.32,7286.07l.12.05Z" transform="translate(-7028.96 -6958.47)"/></g><path class="cls-7" d="M7172.87,7206.73c.25-4.75-5-4.25-6.25-7.25s-7.25-8.5-9-12.75-2.75-10.5-4.75-17.5-16.75-5.75-32-7.5a46.13,46.13,0,0,0-4.86-.37c-.5-.3-1.2-.67-2.14-1.13-10.25-5-2-7.75-9.25-11.75-5.92-3.27-17.33-8-22.17-10.72a.75.75,0,0,0-.54.59c-.35,2,11.42,4.37,14.66,8.09s-3,4-7,6.35,6,2.57,1.06,6.24,3.57,2.66,9.75,4.33-2.6.85-7.66,3.3,7.52,2.46,12.9,5.62,11.52,0,17.71,4.37,6.79,4.56,4.89,8c-.07.13-.14.28-.2.43,4.08,2.35,2.44,5,3.62,8.67,1.28,4,9.22,15,14.47,13S7172.62,7211.48,7172.87,7206.73Z" transform="translate(-7028.96 -6958.47)"/><path class="cls-7" d="M7172.88,7240.48c-3.76-2-27.7-4.25-28.76-6.75,0,0,5.25-.5-15-10.25s-16.25-6.79-25.75-15c-6.66-5.77-13-12.41-16.64-15.17a1.69,1.69,0,0,1-.73,1.32c-2.48,2.14,2.79,3.62,6.59,9.48s1,3.81-6.21,6.07,4,3,9.42,5.38c5,2.21,15.49,3.15,11.15,5.51,3.26.8,10.92,2.85,10.92,3.69,0,1,.25,2.75-6.75,2.25s-20.17,1.5-22.21,4c-.29,5.6,11.51.28,10.06,4-1.24,3.2,10.93,3.42,14.91,3.42,7-.21,20.47-.46,30.85,1.29s15.89,2.75,19.89,4.75S7176.64,7242.48,7172.88,7240.48Z" transform="translate(-7028.96 -6958.47)"/><path class="cls-7" d="M7285.72,7242.94c-.75-.54-1.16-.88-1-.88.61,0,17.59.26,16.12-3.49-1.08-2.75,5-.64,8.19-1.54,0,0-13.83-2.93-24.62-4.8s-13.7-1.66-21.17-1.45-22.63-3.74-21.8-5,16.61.83,24.7,0,19.51-1.66,24.08-2.91a30.44,30.44,0,0,1,3.58-.73c2.66-.94,7.29-1.81,10.12-3.08,5.39-2.43,16.59-3.2,9.4-5.42s-10-.17-6.23-6c2.76-4.29,6.31-6.25,7-7.82-2.92-.41-4.33,3.82-10.21,6.69-7.09,3.46-15.78-2.7-23.87-.83s-18.47,5-18.47,5,3.74-7.89,3.32-10.79,0-12.87,1-14.53c.26-.44,2.54-1.06,5.95-1.76.93-.8,2.36-1.8,4.41-3.27,6.17-4.42,12.32-1.26,17.69-4.44s18-3.23,12.88-5.67-13.84-1.58-7.67-3.27,14.69-.71,9.73-4.37,5-3.93,1-6.25-10.23-2.59-7-6.32,15-6.18,14.63-8.14c-.3-1.66-4.65.06-8.08,1.14-2,1.11-3.78,2.25-5.1,3.11-4.43,2.91-8.72,6.23-14.74,8.3s-17.64,4.36-21.38,6.85-6.23,5.6-14.53,9.13-11.83,2.08-22.83,6.85-17.85,20.76-21,24.91c0,0,4.77,13.91,8.3,19.51s4.36,2.7,23.25,11.63,17.64,5.4,30.86,7.68C7278.89,7242.09,7282.4,7242.69,7285.72,7242.94Z" transform="translate(-7028.96 -6958.47)"/><path class="cls-7" d="M7179.35,7139c-3.11-5.81-4.36-5.6-6.47-11.62s-5.57-11-10.13-17.23-20.55-7.68-30.1-11.83c-7.68-3.34-17.1-9.22-20.49-11.4-5.49,2.23,2.12,4.65,8.86,7.62,6.9,3,6,2.27,3.21,5.08s7.51,3.06,8.57,3.09,1.58,3.68-3.34,6.29,11.16,2.54,15.81,4.32-4.17,21.88-7.1,23.93-8.38,1.92-10.36-4-2.16-4.9-7.66-9.28-5.9-.6-9.62-3.57-4.45-4-5.11-1.79,8,7.32,5.53,9.68c-1,.94-2.41.88-3.92.56h0c9.67,3.3,12.33,4.17,15.45,6s7.27,3.74,15.57,8.72,8.3,2.08,17.85,2.28,10.79,1.25,20.76,7.68,8.93,7.27,10.38,5.6S7182.47,7144.84,7179.35,7139Z" transform="translate(-7028.96 -6958.47)"/><path class="cls-7" d="M7254,7117.09c4.65-1.8,20.72-1.79,15.8-4.38s-4.42-6.24-3.36-6.27,11.36-.32,8.55-3.12-3.7-2,3.19-5.09c3.57-1.59,7.38-3,9.36-4.36a7.83,7.83,0,0,0,1.19-2.19,1.46,1.46,0,0,0-.16-.2c-1.77.16-14.24-2.26-24.92-.83s-7.31,4.67-20,5-5.33-5.67-2.33-16.13,8-14.21,15.38-22.11l0,0a17.17,17.17,0,0,1,2.58-2.68c1.5-1.54,3-3.07,4.28-4.66.45-1.93-2-2.94-4.21-.12-2.63,3.41-5.77,5-6.86,4s-3.87-2.92-1-8.92,5.08-13.48,2.64-8.56-7.35,13.7-11.74,13.67c-1,0-1.77,0-2.38,0-2.16,7.47-6.94,25.83-9.69,34.9-3.33,11-3,9-16,23s-6.67,18-6.67,26.67c0,0-3.33,10-7,22.33s.38,6.67-9,11.67-14.67-9.33-25.67-8.74,7.33,5.74,12.33,13.2,4.67,18.54,13.67,35.35,4.33-10.15,6-16.42,12.67-11.73,14.67-17.39,37.67-28,37-33.5c-.47-3.89,1.87-9.5,4.59-13.61C7252.62,7122.55,7251.91,7117.91,7254,7117.09Z" transform="translate(-7028.96 -6958.47)"/><g class="cls-8"><path class="cls-5" d="M7191.56,6965.74c0,.09,0,.16.07.25.2-.87.34-1.66.44-2.36C7191.46,6963.62,7191.2,6964.22,7191.56,6965.74Z" transform="translate(-7028.96 -6958.47)"/><path class="cls-5" d="M7185,6973c-2.93,2.2-6.75-2.89-9.7-6.45s-2.25,5.4-6.23,7,.68,3.35,3.37,11-3.27,3.71-3.53,7.95,7.86,7.16,7.86,7.16-1.23,1.26-2.64,3c2.16,2,5,4.71,8.26,7.5,6.92,6,21.91,5.4,13.21-4.8s-22.19-4.2-12-21.29c4.64-7.78,6.79-13.38,7.79-17.36-1.92-1.74-4.92-5.5-7.33-5.54C7180.33,6961.12,7188,6970.82,7185,6973Z" transform="translate(-7028.96 -6958.47)"/><path class="cls-5" d="M7211.25,7086.94c-5.7,5.42-10.8,16.52-19.19,14.72s-10.76-.3-19.18-7.5-9.31-7.2-15.61-16.19-13.2-9-13.2-13.8,1.31-12-2.14-15.54a16.28,16.28,0,0,1-2.22-2.32l-1.07-1.11c-2.34-1.86-4.49.11-2.55,2.43,2.21,2.63,7.89,6,6.77,8.5s-5.79,1.38-5.72,4.41,2.91,4.92,1,7,7,.77,8.2,5.5-5.73,11.08-11.51,12.15a23.69,23.69,0,0,1-3.1.32c9.39,2.44,24.48,6.77,28.78,9.84,6.3,4.5,12.9,16.49,20.39,17.39s9,29.09,11.7,21.29.9-10.8,4.8-18.59,16.49-16.19,18.89-24S7216.95,7081.52,7211.25,7086.94Z" transform="translate(-7028.96 -6958.47)"/><path class="cls-5" d="M7161.81,7031.53h-.16c-3.55.16.34,1.6,3.28,3.3A25,25,0,0,0,7161.81,7031.53Z" transform="translate(-7028.96 -6958.47)"/><path class="cls-5" d="M7231.69,7041.83c-.64-.8.12-1.68,1.37-2.54h0a26.5,26.5,0,0,1,1.44-3.84c-3.8.46-5.52,1.86-5.22-.75.37-3.19,2.7-6.29,7.47-9.15,1.47-.88,3-1.65,4.33-2.3.57-1,1.08-1.92,1.48-2.71h0a11.83,11.83,0,0,0-3.58.24c-5.2,4.65-12.27,12.42-16.05,14.06-4.74,2.05-15.24,4.15-18.39,9s-15.14,10.8-19,5.1c-3.42-5-11.44-5.54-17.92-11.31a1.08,1.08,0,0,1-.28.51c-2.49,2.67-3.36,1-4.81,4.73-.17.44-.32.82-.46,1.15a91.25,91.25,0,0,1,7.35,9.41c9.23,13.2,19.13,28,21.82,25.39s13.8-1.4,17.39-5.6-.37-15.29,1.31-19.49C7211.36,7050,7226.7,7047.89,7231.69,7041.83Z" transform="translate(-7028.96 -6958.47)"/></g><g class="cls-8"><path class="cls-5" d="M7222,7003.53s8.1-3,7.83-7.19-6.22-.28-3.56-7.93,7.31-9.45,3.33-11-3.33-10.52-6.26-7-6.49,8.34-9.39,6.66c-.25,7.82-.71,15.77-1.54,18.71-1.8,6.3-7.75,23.69-10.17,27.89s-13.79,20.09-10.2,16.49,18.28-6.3,21-14.09.9-11.4,8.1-15.89a13.06,13.06,0,0,1,4.85-1.92A43.25,43.25,0,0,0,7222,7003.53Z" transform="translate(-7028.96 -6958.47)"/><path class="cls-5" d="M7214.16,6970.93c1.16-3,2.5-5.89.43-5.84l-.32,0C7214.24,6966.86,7214.21,6968.83,7214.16,6970.93Z" transform="translate(-7028.96 -6958.47)"/></g><path class="cls-9" d="M7282.52,7234.6c-3.05-20.32,4.52-21,22-37.72-2.89.28-1.51-.33-8.92,1.06-9.5,1.78-15.47,5.29-19.47,3s-2.84-9.17-4.75-12.6-1.31-3.6,4.85-8,12.32-1.26,17.69-4.44,18-3.23,12.88-5.67-13.84-1.58-7.67-3.27,14.69-.71,9.73-4.37,5-3.93,1-6.25-10.23-2.59-7-6.32,15-6.18,14.63-8.14-6.35.79-9.81,1.64-1.51,0-1.63-3.9-.5-7-2.33-2.06-.54,7.6-5.11,7.12-20.64-.78-15.64-6.38,18.35-5.37,15.73-6.66-7.81,2.65-10.3.29,6.16-7.45,5.49-9.71-1.4-1.17-5.1,1.81-4.12-.79-9.6,3.61-5.67,3.34-7.62,9.31-7.41,6.12-10.35,4.08-11.84-22.11-7.19-23.91,20.72-1.79,15.8-4.38-4.42-6.24-3.36-6.27,11.36-.32,8.55-3.12-3.7-2,3.19-5.09,14.7-5.57,8.42-7.82-16.54-.45-22.33-1.5-12.79-7.37-11.56-12.11,10.06-3.46,8.18-5.54.95-4,1-7-4.6-1.84-5.73-4.39,4.53-5.89,6.73-8.53-.89-4.83-3.53-1.42-5.77,5-6.86,4-3.87-2.92-1-8.92,5.08-13.48,2.64-8.56-7.35,13.7-11.74,13.67-4.39.28-5.86-3.47-2.33-2.06-4.83-4.72,11.34-6.33,5.58-6.58-8.42,2.56-8.05-.63,2.7-6.29,7.47-9.15,10.48-4.54,5.77-5-8.11,2.65-10.6.3-2.78-1.89-3.06-6.28-6.83-11-6.83-11,8.1-3,7.83-7.19-6.22-.28-3.56-7.93,7.31-9.45,3.33-11-3.33-10.52-6.26-7-6.73,8.68-9.67,6.49,4.67-11.92.88-11.83-9,9.33-9.24,5.55c-.1-1.42-.25-3.43-.47-5.12a6.39,6.39,0,0,0,2.28-3.77c1.19-5.11-4.55.18-7.06,3.75a6.82,6.82,0,0,1-.61.75c-7.35,13.8-26.23,52.77-19.8,78.22,7.92,31.36,34.63,75.05,31.61,96.67s33.55,45.32,34.85,61.55-15,55.42,0,62S7286.25,7259.42,7282.52,7234.6Z" transform="translate(-7028.96 -6958.47)"/></g></g></svg>