<svg xmlns="http://www.w3.org/2000/svg" viewBox="0 0 285.14 177.1"><defs><style>.cls-1{isolation:isolate;}.cls-2,.cls-5,.cls-6{fill:#38302a;}.cls-3{fill:#ee8236;}.cls-4{fill:#f1eae5;}.cls-5{opacity:0.05;}.cls-6{opacity:0.31;mix-blend-mode:overlay;}</style></defs><title>fox</title><g class="cls-1"><g id="Layer_1" data-name="Layer 1"><g id="_Group_" data-name="&lt;Group&gt;"><path id="_Path_" data-name="&lt;Path&gt;" class="cls-2" d="M7217.56,7215.78s2,14.09-3.25,22.54-12.57,12.79-13.44,15.39,1.24,26.33,6.07,31.21c2.6,2.63,16,2.38,16.47,0s1.3-7.15-8.24-7.15c0,0-6.29-13,2.82-23S7239.89,7239.63,7217.56,7215.78Z" transform="translate(-7110.44 -7110.47)"/><path id="_Path_2" data-name="&lt;Path&gt;" class="cls-3" d="M7384.19,7155.22a21.8,21.8,0,0,1-6-9.93,12.63,12.63,0,0,0-6-7.75c-7.15-3.9-5.85-5.85-5.85-5.85s4.55-16.84,3.69-21.21c0,0-5.42,1.48-10.84,9.5a9.59,9.59,0,0,0-3-2.82s-6.5,2.82-11.49,16.69a67,67,0,0,0-18.42,14.31c-8.24,9.32-16.26,11.27-34.9,12.57s-41.84-1.73-56.14,2-33.6,14.7-57.44,37.26-34.9,26.46-48.34,33.18-24.28,21.24-16,47.47c0,0,13.22-12.36,28.18-10.84s47-11.92,56.58-31.86,6.72-35.33,8.89-36.63c0,0,1.08,10.84,16,34.47l-9.1,20.16s10.62,27.17,19.08,30.35,17.34,0,17.56-2.17-5-6.5-11.92-6.07-9.54-19.51-5.64-24.93,25.36-10.4,26.45-30.56c0,0,13.87,6.94,28.83,4.77,0,0-4.55,27.53-3.9,42.7s2.38,17.64,7.8,17.6,17.12-.26,7.59-8.5c0,0-4.34,1.08-3.68-11.71s10.4-35.33,10.4-35.33,3,28.18,3.25,41.19,12.79,13.44,20.81,11.27c0,0,2.38-7.15-7.8-7.8,0,0-3.9.22-2.6-23s15.17-31.21,15.17-31.21,13.87-2.38,22.11-28.61c0,0,1.73-23.84,11.05-22.76,0,0,13.4,3.42,21.24.43,0,0,9.1-4.55,3-9.1C7389.93,7160.37,7386.78,7157.6,7384.19,7155.22Z" transform="translate(-7110.44 -7110.47)"/><path id="_Path_3" data-name="&lt;Path&gt;" class="cls-4" d="M7320.31,7194.76c-.65-7.8,16-36.18,19.73-37.93,7.37-3.47,16-1.48,21.91,3.23a55.86,55.86,0,0,0,19.73,9.77,38.08,38.08,0,0,0,9.31,1c-6.66,4.51-22.55.34-22.55.34-9.32-1.08-11.05,22.76-11.05,22.76-8.24,26.23-22.11,28.61-22.11,28.61s-10.07,4.18-26.23,5.2a44.78,44.78,0,0,0,9.32-11.92C7323.78,7205.6,7321,7202.56,7320.31,7194.76Z" transform="translate(-7110.44 -7110.47)"/><path id="_Path_4" data-name="&lt;Path&gt;" class="cls-4" d="M7290.18,7215.78l-2.3,13.72c.22-1.41.35-2.23.35-2.23-15,2.17-28.83-4.77-28.83-4.77v-10.4S7271.32,7217.08,7290.18,7215.78Z" transform="translate(-7110.44 -7110.47)"/><path id="_Path_5" data-name="&lt;Path&gt;" class="cls-4" d="M7122.27,7237.67c4.87-1,10.54-1.81,14.22-1.07,0,0-5,3.69-5,5.85h5s-2.6,3.9-2.6,5.2a28.27,28.27,0,0,1,19.23,13.35c-3.87,3.21-9.71,5.69-9.29,8.87-.82,0-1.62,0-2.36-.11-15-1.52-28.18,10.84-28.18,10.84C7106.58,7259.21,7112.55,7245.6,7122.27,7237.67Z" transform="translate(-7110.44 -7110.47)"/><path id="_Path_6" data-name="&lt;Path&gt;" class="cls-2" d="M7234.25,7235l8.24,5.5c4.53,0,9.55-3.15,13.24-6.08-6.56,10.61-19.8,14.51-22.78,18.66-3.9,5.42-1.3,25.36,5.64,24.93s12.14,3.9,11.92,6.07-9.1,5.34-17.56,2.17-19.08-30.35-19.08-30.35l9.1-20.16,2.38.58Z" transform="translate(-7110.44 -7110.47)"/><path id="_Path_7" data-name="&lt;Path&gt;" class="cls-2" d="M7284.33,7270c-.65-15.17,3.9-42.7,3.9-42.7l5.64,2.23,4.77-6.3s2,4.07,3.9,4.5,14.12-9,14.12-9c-4.22,6.35-7.61,9-7.61,9,15.39-1.3,22.11-3.67,26.23-5.2-4.13,3.71-14.25,14.7-15.17,31.21-1.3,23.19,2.6,23,2.6,23,7,.45,8.07,4,8,6.15l-.24,1.65c-9.16,2.33-20.6,1.55-20.81-11.27-.22-13-3.25-41.19-3.25-41.19s-9.75,22.54-10.4,35.33,3.68,11.71,3.68,11.71a7.21,7.21,0,0,1,4.23,2.6c3.81,5.36-7.12,5.86-11.81,5.89C7286.71,7287.62,7285,7285.15,7284.33,7270Z" transform="translate(-7110.44 -7110.47)"/><g id="_Group_2" data-name="&lt;Group&gt;"><path id="_Path_8" data-name="&lt;Path&gt;" class="cls-2" d="M7356.07,7117.16a30.6,30.6,0,0,0-4.1,17.4s-1.55-1.63-7.39-.71C7349.57,7120,7356.07,7117.16,7356.07,7117.16Z" transform="translate(-7110.44 -7110.47)"/><path id="_Path_9" data-name="&lt;Path&gt;" class="cls-2" d="M7359.11,7120c5.42-8,10.84-9.5,10.84-9.5a37.21,37.21,0,0,0-7.85,18.14C7361.78,7124.75,7359.11,7120,7359.11,7120Z" transform="translate(-7110.44 -7110.47)"/></g><path id="_Path_10" data-name="&lt;Path&gt;" class="cls-2" d="M7392.71,7162.46s-2.59-.81-3.45,2.22,1.73,6.11,1.73,6.11S7400.06,7165.44,7392.71,7162.46Z" transform="translate(-7110.44 -7110.47)"/><path id="_Path_11" data-name="&lt;Path&gt;" class="cls-2" d="M7366.12,7155.07a2.57,2.57,0,0,0,2.44,1.57,2.84,2.84,0,0,0,2.44-1.57s-1.14-1.57-2.44-1.57A3.23,3.23,0,0,0,7366.12,7155.07Z" transform="translate(-7110.44 -7110.47)"/><path id="_Path_12" data-name="&lt;Path&gt;" class="cls-5" d="M7252.62,7186.14c9.46,4.34,9.83,19.73,16.12,28.18s19.49,13,19.49,13c-15,2.17-28.83-4.77-28.83-4.77C7260.47,7202.94,7252.62,7186.14,7252.62,7186.14Z" transform="translate(-7110.44 -7110.47)"/><path id="_Path_13" data-name="&lt;Path&gt;" class="cls-6" d="M7130.59,7253.13c8.38-5.63,37.57-4.2,50.58-14,11.24-8.49,22.3-30.55,25.1-36.39-.92,4.45-.06,18.15-8.2,35.18-9.54,19.94-41.62,33.38-56.58,31.86s-28.18,10.84-28.18,10.84C7113.93,7266.88,7122.2,7258.76,7130.59,7253.13Z" transform="translate(-7110.44 -7110.47)"/></g></g></g></svg>