<svg id="Layer_1" data-name="Layer 1" xmlns="http://www.w3.org/2000/svg" xmlns:xlink="http://www.w3.org/1999/xlink" viewBox="0 0 531.44 225.9"><defs><style>.cls-1,.cls-35,.cls-38{fill:none;}.cls-2{fill:#006b60;}.cls-3{fill:#169b8e;}.cls-4{fill:#00877d;}.cls-5{fill:#57c487;}.cls-6{fill:#ff9c5e;}.cls-7{fill:#f7d7bb;}.cls-8{fill:#f09f9e;opacity:0.5;}.cls-9{fill:#d99991;}.cls-10,.cls-12,.cls-19,.cls-21,.cls-30{fill:#000e23;}.cls-11{fill:#fff;}.cls-12,.cls-36{opacity:0.2;}.cls-13{fill:#835474;}.cls-14{fill:#6f7f9d;}.cls-15{fill:#8795b7;}.cls-16,.cls-17{fill:#734465;}.cls-17,.cls-27,.cls-30{opacity:0.6;}.cls-18{fill:#00314e;}.cls-19{opacity:0.8;}.cls-20{fill:#919fb0;}.cls-21,.cls-40,.cls-41{opacity:0.1;}.cls-22{fill:#98a7b8;}.cls-23{fill:#f3ba9b;}.cls-24{fill:#d8ac8a;}.cls-25{fill:#000a24;}.cls-26{fill:#e88d8d;}.cls-27{fill:#7b3838;}.cls-28{fill:#ff7664;}.cls-29{fill:#d57a7a;}.cls-31{fill:#ffc1ac;}.cls-32{fill:#bd5e5e;}.cls-33{fill:#ffd7cc;}.cls-34{fill:#f89585;opacity:0.3;}.cls-35{stroke:#00314e;stroke-linecap:round;stroke-width:0.54px;}.cls-35,.cls-38{stroke-miterlimit:10;}.cls-36,.cls-40,.cls-42{fill:#090900;}.cls-37{clip-path:url(#clip-path);}.cls-38{stroke:#fff;stroke-width:0.5px;}.cls-39{fill:#ffaa57;}</style><clipPath id="clip-path" transform="translate(-6934.62 -7088.03)"><path class="cls-1" d="M7036.08,7177.6s-5.49,8.36-.45,17.17,26,29.07,28.89,37.11,11.23,42.7,11.23,42.7l12.8-1.87s-2.77-46.18-5.93-54.66c-6.26-16.79-20.6-37.56-20.6-37.56Z"/></clipPath></defs><title>kampfire1</title><path class="cls-2" d="M7166.53,7260.47c7.73-5.74,26.22-34.79,26.22-34.79s-19.49,7.65-12.1.38,20.84-34.79,20.84-34.79-12.44,4.59-10.76,2.68,20.77-41.48,22.11-44.16c1-2.16,4.59,9.06,8.77,17.32,6,11.82,13.13,25.75,14.09,26.84,1.68,1.91-10.76-2.68-10.76-2.68s13.44,27.53,20.84,34.79-12.1-.38-12.1-.38,18.49,29.06,26.22,34.79c5.43,4-13,7.12-28,7.27-14.13.74-37.07,1.46-49.62-.72C7171.38,7265.86,7162.55,7263.42,7166.53,7260.47Z" transform="translate(-6934.62 -7088.03)"/><path class="cls-3" d="M7078.31,7122.23s-9.64,31.44-20.34,38.7a7.67,7.67,0,0,0,7.33-.63s-7.57,12.77-18.45,22.25c3.32,3.56-.54,12.34-.54,12.34l-3.4,13.83,6.71-.71s-6.15,38.66-11.31,42.55c0,0,41.83,2.57,78.91-6.57,0,0-8.14-23.79-13.78-39.28,0,0-3.79-10.24,4.41-12.36,0,0-14.81-19.14-18.53-34.16,0,0,4.28,2.15,8,.84C7097.29,7159,7081.54,7135.77,7078.31,7122.23Z" transform="translate(-6934.62 -7088.03)"/><path class="cls-3" d="M7307.53,7122.46s-9.67,32.42-20.39,39.92a7.48,7.48,0,0,0,7.33-.66s-7.59,13.17-18.47,23c3.32,3.67-.55,12.72-.55,12.72l-3.42,14.26,6.71-.74s-6.19,39.85-11.36,43.88c0,0,41.83,2.6,78.92-6.86,0,0-8.11-24.51-13.73-40.47,0,0-3.78-10.55,4.42-12.75,0,0-14.79-19.71-18.5-35.19,0,0,4.27,2.21,8,.86C7326.47,7160.38,7310.74,7136.41,7307.53,7122.46Z" transform="translate(-6934.62 -7088.03)"/><path class="cls-2" d="M7001.75,7231.8c6.66-4.34,22.59-26.35,22.59-26.35s-16.8,5.79-10.43.29,18-26.35,18-26.35-10.72,3.48-9.27,2,17.9-31.42,19.05-33.45c.88-1.64,4,6.86,7.56,13.12,5.16,9,11.31,19.51,12.14,20.33,1.45,1.45-9.27-2-9.27-2s11.58,20.85,18,26.35-10.43-.29-10.43-.29,15.93,22,22.59,26.35c4.68,3.05-11.24,5.39-24.13,5.51-12.18.56-31.94,1.11-42.75-.54C7005.93,7235.89,6998.32,7234,7001.75,7231.8Z" transform="translate(-6934.62 -7088.03)"/><path class="cls-2" d="M7196.43,7212.15c7.73-5.27,26.22-31.94,26.22-31.94s-19.49,7-12.1.35,20.84-31.94,20.84-31.94-12.44,4.21-10.76,2.46,20.77-38.08,22.11-40.54c1-2,4.59,8.32,8.77,15.9,6,10.85,13.13,23.64,14.09,24.64,1.68,1.76-10.76-2.46-10.76-2.46s13.44,25.27,20.84,31.94-12.1-.35-12.1-.35,18.49,26.68,26.22,31.94c5.43,3.7-13,6.54-28,6.67-14.13.68-37.07,1.34-49.62-.66C7201.29,7217.11,7192.46,7214.86,7196.43,7212.15Z" transform="translate(-6934.62 -7088.03)"/><path class="cls-2" d="M7329.79,7268.9c7.84-5,26.58-30.56,26.58-30.56s-19.76,6.72-12.27.34,21.13-30.56,21.13-30.56-12.61,4-10.9,2.35,21.06-36.43,22.42-38.79c1-1.9,4.65,8,8.89,15.21,6.07,10.38,13.31,22.62,14.28,23.57,1.7,1.68-10.9-2.35-10.9-2.35s13.63,24.18,21.13,30.56-11.78,8.88-11.78,8.88,18.25,16.31,26.09,21.35c5.51,3.54-13.23,6.25-28.4,6.38-14.33.65-37.58,1.29-50.3-.63C7334.71,7273.64,7325.76,7271.49,7329.79,7268.9Z" transform="translate(-6934.62 -7088.03)"/><path class="cls-4" d="M7074.11,7228.43c7.73-5.74,26.22-34.79,26.22-34.79s-19.49,7.65-12.1.38,20.84-34.79,20.84-34.79-12.44,4.59-10.76,2.68,20.77-41.48,22.11-44.16c1-2.16,4.59,9.06,8.77,17.32,6,11.82,13.13,25.75,14.09,26.84,1.68,1.91-10.76-2.68-10.76-2.68s13.44,27.53,20.84,34.79,6.16,15.21,6.16,15.21.22,13.47,8,19.2c5.43,4-13,7.12-28,7.27-14.13.74-37.07,1.46-49.62-.72C7079,7233.82,7070.14,7231.38,7074.11,7228.43Z" transform="translate(-6934.62 -7088.03)"/><path class="cls-4" d="M7298.47,7243.8c7.39-4.82,25.06-29.24,25.06-29.24s-18.64,6.43-11.57.32,19.92-29.24,19.92-29.24-11.89,3.86-10.28,2.25,19.86-34.86,21.14-37.11c1-1.82,4.38,7.62,8.38,14.56,5.73,9.94,12.55,21.64,13.47,22.56,1.61,1.61-10.28-2.25-10.28-2.25s12.85,23.14,19.92,29.24-11.57-.32-11.57-.32,17.67,24.42,25.06,29.24c5.2,3.39-12.47,6-26.78,6.11-13.51.62-35.44,1.23-47.44-.6C7303.11,7248.34,7294.67,7246.28,7298.47,7243.8Z" transform="translate(-6934.62 -7088.03)"/><path class="cls-3" d="M7131.58,7218.42c8.3-6.31,28.14-38.3,28.14-38.3s-20.93,8.42-13,.42,22.37-38.3,22.37-38.3-13.35,5.05-11.55,2.95,22.3-45.67,23.74-48.62c1.09-2.38,4.92,10,9.41,19.07,6.43,13,14.1,28.35,15.12,29.55,1.8,2.1-11.55-2.95-11.55-2.95s14.43,30.31,22.37,38.3-13-.42-13-.42,19.84,32,28.14,38.3c5.83,4.44-14,7.84-30.07,8-15.17.82-39.79,1.61-53.26-.79C7136.79,7224.36,7127.31,7221.67,7131.58,7218.42Z" transform="translate(-6934.62 -7088.03)"/><path class="cls-3" d="M7228.8,7249.08c7.39-4.82,25.06-29.24,25.06-29.24s-18.64,6.43-11.57.32,19.92-29.24,19.92-29.24-11.89,3.86-10.28,2.25,19.86-34.86,21.14-37.11c1-1.82,4.38,7.62,8.38,14.56,5.72,9.94,12.55,21.64,13.47,22.56,1.61,1.61-10.28-2.25-10.28-2.25s12.85,23.14,19.92,29.24-11.57-.32-11.57-.32,17.67,24.42,25.06,29.24c5.2,3.39-12.47,6-26.78,6.11-13.51.62-35.44,1.23-47.44-.6C7233.44,7253.61,7225,7251.56,7228.8,7249.08Z" transform="translate(-6934.62 -7088.03)"/><path class="cls-5" d="M6985.45,7234.55c-.06.19-.12.37-.16.57C6986.11,7231.48,6985.85,7232.53,6985.45,7234.55Z" transform="translate(-6934.62 -7088.03)"/><path class="cls-5" d="M7466.06,7263.84c0,5-1.76,10.61-6.12,14.06a38.08,38.08,0,0,1-12,6.33c-8.63,3-18.12,4.14-27.18,5.59l-2.7.43c1.43,10.65-32.53,17.61-39.41,18.4-5.44.62-10.94.91-16.34,1.76l1.84-.29a201.48,201.48,0,0,1-27.83,2.11c-4.56.06-9.12,0-13.67,0l-5,.37c-7.19.5-14.4,1-21.6,1.24a61.08,61.08,0,0,1-20.12-2.24c-6.18-1.92-13.16-4.51-16.88-9.59-15.64-.22-20.72,1.12-42.88,2-10.92.42-26.26-.23-34.67-6.72-4.27-3.29-7.28-8.33-7.34-13.42-.09-6.54,3.79-11.53,9.46-15.36,4.73-3.2,10.5-3.76,16.16-4.37,5.45-.58,2.38-.69,7.85-1.14l11.62-.93a19.71,19.71,0,0,1-.78-3.8,24.07,24.07,0,0,1,.52-4.12c.6-2.27,2-3.9,3.62-5.74a15.75,15.75,0,0,1,7.53-4,224.34,224.34,0,0,1,28.18-3.52c20.15-1.29,48.92-1.43,69.09-1.36,17.24.06,34.46.09,51.7.37,9.07.15,18.13.16,27.21.15,11.94,0,24.38.08,36,2.52S7466.07,7251.89,7466.06,7263.84Z" transform="translate(-6934.62 -7088.03)"/><path class="cls-5" d="M6944.48,7291.14c11.32,8,32,8.7,46.75,8.13,29.91-1.14,63-2.82,84.07-2.61,5,6.25,9.4,7.42,17.73,9.75,8.71,2.44,17.94,3,27.14,2.67,9.73-.33,24.45,1,34.15.38l6.7-.48c6.15,0,12.3,0,18.45-.12a297.28,297.28,0,0,0,37.56-2.72l-2.48.37c7.3-1.07,14.72-1.45,22.06-2.24,9.28-1,55.14-9.75,53.25-22.88l3.65-.54c12.23-1.82,25-3.3,36.7-7a53.6,53.6,0,0,0,16.27-7.86c5.89-4.28,8.29-11.23,8.32-17.37.06-14.74-16.09-23.2-32-26.19-15.7-3-32.48-3-48.59-2.94-12.24.06-24.47.08-36.71-.06-23.26-.27-46.49-.23-69.75-.23-27.22,0-66,.29-93.23,2-12.82.8-51.66,2.21-64.24,4.47a17.77,17.77,0,0,0-2.39.63c-10.06,2.39-15.51,5.85-16.33,10a10.44,10.44,0,0,0,2.27,8.15l-14.74,1.13c-7.38.58-3.24.71-10.59,1.45-7.64.77-14.67,4.62-21.07,8.59-7.67,4.76-12.92,10.93-12.83,19C6934.7,7280.89,6938.73,7287.1,6944.48,7291.14Z" transform="translate(-6934.62 -7088.03)"/><path class="cls-6" d="M7346.11,7143.82s2.78,13.87.3,21.61c0,0-3.58,1.72-13.25.42s3.65-22.2,3.65-22.2Z" transform="translate(-6934.62 -7088.03)"/><path class="cls-7" d="M7325,7165.69l1-11.25,8.6,5.19-.6,7.52,4.14,1.88s5.47,11.16-6.41,9.91a14.82,14.82,0,0,1-13.53-11.87Z" transform="translate(-6934.62 -7088.03)"/><path class="cls-8" d="M7325.86,7162.68l.15-9.06,8.6,5.19-.52,7.48A21.67,21.67,0,0,1,7325.86,7162.68Z" transform="translate(-6934.62 -7088.03)"/><path class="cls-7" d="M7344.67,7147.36c-2.71-11.54-14.12-10.22-19.09-6.39.79,6.34-.88,10-2.09,16.12,1.12,1.54.76,2.24,1.93,3.34C7335.47,7169.88,7349,7165.85,7344.67,7147.36Z" transform="translate(-6934.62 -7088.03)"/><path class="cls-6" d="M7326.79,7135.5s1.24,7,6.34,8.5c11.37,3.33,13-.18,13-.18S7343.25,7127.9,7326.79,7135.5Z" transform="translate(-6934.62 -7088.03)"/><path class="cls-6" d="M7325.46,7159.25a3.41,3.41,0,0,0,.05-2.23c-.47-2.12.39-6,.49-7.36,1.55-1.25,7.86-6.39,4-12.28-4.49-6.84-13.49.53-13.74,7.85C7315.9,7155.09,7325.59,7160.6,7325.46,7159.25Z" transform="translate(-6934.62 -7088.03)"/><path class="cls-6" d="M7317.56,7140.9a45.72,45.72,0,0,0-4.48,21.65s6.93,3.3,12.92,3.15c0,0-.62-14.62.69-19Z" transform="translate(-6934.62 -7088.03)"/><path class="cls-7" d="M7324.86,7148.94s-2.73-1.81-3.24,2a2.58,2.58,0,0,0,3.1,3.21Z" transform="translate(-6934.62 -7088.03)"/><path class="cls-6" d="M7336.12,7147.79l-1.12-.29c-.33-.07-.7-.15-1.1-.19-.19,0-.4,0-.6,0a3.9,3.9,0,0,0-.6,0,4,4,0,0,0-1.15.24,4.44,4.44,0,0,0-.51.22,3.54,3.54,0,0,0-.46.25,4.55,4.55,0,0,0-.39.24l-.3.21-.28.18s0-.11.12-.31a2.77,2.77,0,0,1,.46-.76,2.14,2.14,0,0,1,.42-.44,2.65,2.65,0,0,1,.56-.4,2.81,2.81,0,0,1,.69-.3,3.33,3.33,0,0,1,.76-.15,3.94,3.94,0,0,1,1.48.17,4.25,4.25,0,0,1,1.14.54A3.32,3.32,0,0,1,7336.12,7147.79Z" transform="translate(-6934.62 -7088.03)"/><path class="cls-6" d="M7344.22,7148.28l-1-.36c-.28-.11-.59-.22-.92-.33a5,5,0,0,0-1-.22,2.41,2.41,0,0,0-.48,0,2,2,0,0,0-.44.08,1.54,1.54,0,0,0-.41.16,1.61,1.61,0,0,0-.37.22,3.39,3.39,0,0,0-.32.23l-.24.21-.23.18s0-.1.06-.29,0-.2.09-.33a1.67,1.67,0,0,1,.2-.4,1.39,1.39,0,0,1,.34-.43,1.57,1.57,0,0,1,.52-.38,2.43,2.43,0,0,1,1.38-.26,3.49,3.49,0,0,1,1.25.42,3.82,3.82,0,0,1,.88.66A3.1,3.1,0,0,1,7344.22,7148.28Z" transform="translate(-6934.62 -7088.03)"/><path class="cls-9" d="M7338.62,7152.2a6.76,6.76,0,0,1,1.12.82,9.16,9.16,0,0,1,1,1l.11.13-.06.12c-.45.86-.91,1.73-1.44,2.56.3-.94.66-1.84,1-2.75l0,.25a9.15,9.15,0,0,1-1-1A6.74,6.74,0,0,1,7338.62,7152.2Z" transform="translate(-6934.62 -7088.03)"/><path class="cls-10" d="M7331.07,7152.66s0-.1,0-.27a1.11,1.11,0,0,1,0-.32,1.46,1.46,0,0,1,.09-.43,2.19,2.19,0,0,1,.61-.92,2.27,2.27,0,0,1,.52-.36,2.59,2.59,0,0,1,.63-.22,2.13,2.13,0,0,1,.69,0,1.44,1.44,0,0,1,.63.27,1.42,1.42,0,0,1,.43.47,2.11,2.11,0,0,1,.19.5,2.45,2.45,0,0,1-.07,1s0-.1-.09-.26a3,3,0,0,0-.25-.62,4,4,0,0,0-.24-.32,1.23,1.23,0,0,0-.33-.24,1.05,1.05,0,0,0-.4-.12,1.45,1.45,0,0,0-.45,0,2.51,2.51,0,0,0-1.51,1,2.77,2.77,0,0,0-.2.3,1,1,0,0,0-.13.27C7331.11,7152.57,7331.07,7152.66,7331.07,7152.66Z" transform="translate(-6934.62 -7088.03)"/><path class="cls-10" d="M7340,7152.33s0-.1-.06-.27a1.09,1.09,0,0,1,0-.32,1.34,1.34,0,0,1,.06-.44,1.47,1.47,0,0,1,.21-.49,1.82,1.82,0,0,1,.4-.47,2,2,0,0,1,.58-.33,1.93,1.93,0,0,1,.68-.12,2.06,2.06,0,0,1,.69.13,1.77,1.77,0,0,1,.57.37,2,2,0,0,1,.38.48,2.76,2.76,0,0,1,.19.49,2.31,2.31,0,0,1,.05.75,2.78,2.78,0,0,1,0,.28s0-.09-.11-.25a3.29,3.29,0,0,0-.3-.61c-.07-.12-.17-.22-.25-.34a2.5,2.5,0,0,0-.34-.29,1.61,1.61,0,0,0-.4-.2,1.37,1.37,0,0,0-.45-.06,1.76,1.76,0,0,0-1.48.84,2.16,2.16,0,0,0-.17.32,1,1,0,0,0-.1.29C7340,7152.23,7340,7152.33,7340,7152.33Z" transform="translate(-6934.62 -7088.03)"/><path class="cls-11" d="M7332.77,7158l9.47.12S7338,7163.66,7332.77,7158Z" transform="translate(-6934.62 -7088.03)"/><ellipse class="cls-12" cx="401.65" cy="192.55" rx="50.75" ry="7.02"/><path class="cls-7" d="M7341.88,7245.41s27.51,33,32.51,32.85,4.86-5.46,4.86-5.46l-29.75-42.26Z" transform="translate(-6934.62 -7088.03)"/><path class="cls-8" d="M7358.28,7243l-8.77-12.46-7.62,14.87s2.17,2.6,5.39,6.33A65.53,65.53,0,0,0,7358.28,7243Z" transform="translate(-6934.62 -7088.03)"/><path class="cls-13" d="M7361.4,7270.33l11.28-9.66,6.07,9.62s5.14-3.59,7.56-1.16c1.91,1.92-12.21,11.79-12.21,11.79Z" transform="translate(-6934.62 -7088.03)"/><path class="cls-7" d="M7332.85,7230.33s-2.41,16.41-12.45,24.29c-5.86,4.61-26.41,19.49-32.27,16.22s18-21.37,22.2-25.85,15.6-24,15.6-24Z" transform="translate(-6934.62 -7088.03)"/><path class="cls-8" d="M7323.8,7250l.75.45c6.58-8.39,8.3-20.09,8.3-20.09l-6.92-9.32s-7.55,12.92-12.63,20.14C7316.68,7244.24,7319.84,7247.52,7323.8,7250Z" transform="translate(-6934.62 -7088.03)"/><path class="cls-13" d="M7294.58,7255.87l10.26,10.75-9.28,6.58s3.86,4.93,1.56,7.49c-1.82,2-12.43-11.56-12.43-11.56Z" transform="translate(-6934.62 -7088.03)"/><path class="cls-14" d="M7341.46,7202.36s3.56,31.86-14.17,47.41l-14.86-10.69s11.19-18.51,13-28.77S7341.46,7202.36,7341.46,7202.36Z" transform="translate(-6934.62 -7088.03)"/><path class="cls-15" d="M7318.21,7203.64s-14.17,21.71,23.4,46.78c0,0,15.23-4.65,16.88-11.58l-15.42-27.9-1.34-7.23Z" transform="translate(-6934.62 -7088.03)"/><path class="cls-7" d="M7366.87,7151.71s3.81-6.8-.95-1.21c0,0,3.16-7.14-1.38-.81,0,0,1-6-1-.63l-.81,2s-1.32-7.17-1.27,1.18c0,0-5.4,10.59-7.78,15.7-.5,1.08-6.27,1-12.31,1.63q-1,4.65-1.61,9.34c5.82-.56,16.07-1.5,18.26-2.7,2.51-1.38,7.51-19.78,8.16-20.93S7371.53,7146.69,7366.87,7151.71Z" transform="translate(-6934.62 -7088.03)"/><path class="cls-16" d="M7365.19,7159.11l1.3-3.92a38.48,38.48,0,0,0-5.15-2.67l-1.61,3.17C7361.59,7156.76,7363.4,7157.92,7365.19,7159.11Z" transform="translate(-6934.62 -7088.03)"/><path class="cls-13" d="M7366.67,7156.74l-6.39-2.45c-4-.61-5.48,11.36-7.42,13-1.62,1.37-13.1.64-15.51.67-.85,4,2.65,8.88,2.17,12.89,7.37-.13,16.42-1.41,18.66-2.54,3.58-1.81,8.68-14.67,9.41-16.89S7366.67,7156.74,7366.67,7156.74Z" transform="translate(-6934.62 -7088.03)"/><path class="cls-17" d="M7352.94,7179.64a12.94,12.94,0,0,0-1.47-5.85,25.2,25.2,0,0,0-4.71-5.66c-3.75.05-8-.18-9.41-.16-.85,4,2.65,8.88,2.17,12.89A97.61,97.61,0,0,0,7352.94,7179.64Z" transform="translate(-6934.62 -7088.03)"/><path class="cls-7" d="M7327.63,7169.6a10.76,10.76,0,0,0-10.79-1.41c-4.56,1.81-16.92,6.32-19,8.32s-2.36,23.94-2.68,25.23-2.3,7.69.84,1.61c0,0-2.22,7.84.87,1.18,0,0-1.27,6.69,1.41-.63,0,0-1.23,7.06,1.06.21l.72-2.1s3.19,6.55.91-1.48c0,0,2.36-11.65,3.28-17.21C7304.67,7181,7326.08,7177.4,7327.63,7169.6Z" transform="translate(-6934.62 -7088.03)"/><path class="cls-16" d="M7316.49,7204.73l-.16,3.5s14.61,5.34,27,.89l-.37-2.85Z" transform="translate(-6934.62 -7088.03)"/><path class="cls-16" d="M7295.59,7194.87c-.08,1.57-.14,3-.2,4.13a38.48,38.48,0,0,0,5.68,1.19c.11-.57.37-1.85.7-3.49C7299.68,7196.17,7297.63,7195.53,7295.59,7194.87Z" transform="translate(-6934.62 -7088.03)"/><path class="cls-13" d="M7324.11,7165.7s6.64,8,13.24,2.27a7.19,7.19,0,0,1,6.18,3.45c2,3.59,4.82,26.08-.47,36,0,0-10.5,3.36-26.45-1.7a12.14,12.14,0,0,1-3.29-8.32c.22-4.83,3.18-18.54,3.18-18.54s-9.81,2.71-11.24,4.81.36,14-3.66,14.52l-6.81-.64s-2.25-1.94-2.14-4.27,1.57-16.09,4.53-18.8S7319.85,7164,7324.11,7165.7Z" transform="translate(-6934.62 -7088.03)"/><path class="cls-17" d="M7329.64,7201.11c-5.16-1.67-10.37-4.16-13.66-8.61a12.59,12.59,0,0,1-1.59-2.88,72.77,72.77,0,0,0-1.07,7.79,12.14,12.14,0,0,0,3.29,8.32c16,5.06,26.45,1.7,26.45,1.7a28.62,28.62,0,0,0,2.66-10C7341.83,7201.51,7336.51,7203.33,7329.64,7201.11Z" transform="translate(-6934.62 -7088.03)"/><ellipse class="cls-12" cx="263.32" cy="194.32" rx="74.92" ry="12.21"/><path class="cls-18" d="M7215.21,7271l1,14.84,22.42-1.54s.31-4.9-11.42-6.3l-1.26-11.24Z" transform="translate(-6934.62 -7088.03)"/><path class="cls-19" d="M7227.1,7276.71l-1.11-9.94-10.77,4.24.51,7.3C7219.51,7277.76,7223.3,7277.22,7227.1,7276.71Z" transform="translate(-6934.62 -7088.03)"/><path class="cls-20" d="M7174,7175.44s-5.68,8.65-.46,17.77,26.92,30.07,29.89,38.39,11.62,44.18,11.62,44.18l13.24-1.94s-2.86-47.77-6.13-56.55c-6.47-17.37-21.31-38.86-21.31-38.86Z" transform="translate(-6934.62 -7088.03)"/><path class="cls-21" d="M7174,7175.44s-5.68,8.65-.46,17.77,26.92,30.07,29.89,38.39,11.62,44.18,11.62,44.18l13.24-1.94s-2.86-47.77-6.13-56.55c-6.47-17.37-21.31-38.86-21.31-38.86Z" transform="translate(-6934.62 -7088.03)"/><path class="cls-18" d="M7146.88,7245.8l-14.31,4.05,6.11,21.62s4.86-.7,3.82-12.47l10.74-3.54Z" transform="translate(-6934.62 -7088.03)"/><path class="cls-19" d="M7142.6,7255.3c.73,1,1.52,2,2.33,2.91l8.31-2.74-6.36-9.67-8.23,2.33C7140.09,7250.38,7140.93,7253,7142.6,7255.3Z" transform="translate(-6934.62 -7088.03)"/><path class="cls-22" d="M7170.38,7177.84s6.08,30.89-.59,44.37-29.58,24.28-29.58,24.28,2,9.79,9,11.37c2,.46,36.5-7.08,42.82-27.31,1.92-6.15,12.32-43.15,9.49-49C7196.5,7171.23,7170.38,7177.84,7170.38,7177.84Z" transform="translate(-6934.62 -7088.03)"/><path class="cls-21" d="M7200.89,7177.45l-2.63-.29c-4.5-2.72-11.94-2.68-18-2l-6.21-.69a14.49,14.49,0,0,0-.95,1.81c-1.68.34-2.71.6-2.71.6s.48,2.44,1,6.24a16.36,16.36,0,0,0,.73,5.84l0,.47c1.47.19,4.79.6,8.89.92l2.9.2a110.07,110.07,0,0,0,12.46.14c4.69-.26,8.88-1,11.35-2.52C7203.89,7181.79,7200.89,7177.45,7200.89,7177.45Z" transform="translate(-6934.62 -7088.03)"/><path class="cls-7" d="M7180.52,7117.11l1.27,14.94-4.83,2s9.78,8.73,17.73-.64l-2.09-3.06-.43-7Z" transform="translate(-6934.62 -7088.03)"/><path class="cls-23" d="M7181,7122.54l-.5-5.43,11.65,6.28.37,6C7189.27,7129.17,7183.58,7127.84,7181,7122.54Z" transform="translate(-6934.62 -7088.03)"/><path class="cls-6" d="M7178,7114.53s1.72,5,2.75,5.21-.44-5-.44-5Z" transform="translate(-6934.62 -7088.03)"/><path class="cls-7" d="M7200,7098.66s1.7,11.25,2,17.9-4,9.81-8,10.17c-4.78.42-12.89-2.74-13.46-8.2l-1.28-10s-2.1-8.1,3.06-11.6S7198.07,7093.11,7200,7098.66Z" transform="translate(-6934.62 -7088.03)"/><path class="cls-7" d="M7180.23,7111.07s-1.41-4.14-3.26-3-.59,9.13,3.32,8.12S7180.23,7111.07,7180.23,7111.07Z" transform="translate(-6934.62 -7088.03)"/><path class="cls-6" d="M7179.37,7094.87c-.14-.15-.82-.86-.94-1-1.28.2-4.72,1.28-5.21,4.35-.77,4.87,2.05,11.39,2.74,12.11,0,0,1.4-4.31,3.12-1.35l.6,3.55,1.16.06.45-5.15a16.67,16.67,0,0,0,2.22-2.31,36.44,36.44,0,0,0,.48-4.19C7181.59,7098.77,7181.56,7097.24,7179.37,7094.87Z" transform="translate(-6934.62 -7088.03)"/><path class="cls-6" d="M7178.76,7105.48s.94,13.61,2,15.63,5.72,9.42,16,6.87,5-14,5-14,0,5.38-.94,5.58c-1.25.28-.57-3.57-5.08-3.13-2.84.28-5.9-.32-6.63,4.68-.37,2.56-7.87-2.61-7.87-15.41" transform="translate(-6934.62 -7088.03)"/><path class="cls-6" d="M7181.76,7099.47s3.07,3.59,13,1.71l-2.82-1.71s9.56-1.45,11.86,1.37c0,0,1.09-10.46-10.16-12.46-13.91-2.48-16.9,9-16.9,9Z" transform="translate(-6934.62 -7088.03)"/><path class="cls-24" d="M7194.52,7107.11c.66,1.23,1.24,2.49,1.78,3.77s1,2.57,1.48,3.89l0,.14-.12.07q-1.44.81-2.92,1.55,1.35-1,2.74-1.84l-.07.21c-.59-1.26-1.12-2.54-1.62-3.83S7194.89,7108.45,7194.52,7107.11Z" transform="translate(-6934.62 -7088.03)"/><ellipse class="cls-25" cx="254.97" cy="21.75" rx="0.82" ry="1.82"/><ellipse class="cls-25" cx="264.39" cy="20.69" rx="0.82" ry="1.82"/><path class="cls-26" d="M7199.51,7119.57s-1.16,3.29-4.49,3a5.41,5.41,0,0,1-4.37-3.61Z" transform="translate(-6934.62 -7088.03)"/><path class="cls-27" d="M7191.72,7120l-.49.07a5.77,5.77,0,0,1-.58-1.18l8.87.65a5,5,0,0,1-2.57,2.7A5.57,5.57,0,0,0,7191.72,7120Z" transform="translate(-6934.62 -7088.03)"/><path class="cls-6" d="M7186.37,7105.54a2.3,2.3,0,0,1,.41-1.17,3,3,0,0,1,.89-.9,3.13,3.13,0,0,1,.67-.33,3,3,0,0,1,.78-.16,2.94,2.94,0,0,1,.8,0,3.11,3.11,0,0,1,.73.23,3.59,3.59,0,0,1,.59.37,2.35,2.35,0,0,1,.42.44,2.26,2.26,0,0,1,.42.78,2.32,2.32,0,0,1,.09.34l-.35,0c-.21,0-.48-.07-.78-.1-.15,0-.3,0-.45,0l-.45,0a7.34,7.34,0,0,0-.86,0,13.53,13.53,0,0,0-1.8.28C7186.9,7105.44,7186.37,7105.54,7186.37,7105.54Z" transform="translate(-6934.62 -7088.03)"/><path class="cls-6" d="M7195.59,7104.94a2.12,2.12,0,0,1,.29-1.09,2.59,2.59,0,0,1,.76-.88,2.68,2.68,0,0,1,1.34-.51,2.52,2.52,0,0,1,.77,0,2.76,2.76,0,0,1,.69.24,3.44,3.44,0,0,1,.53.38,2.27,2.27,0,0,1,.36.43,2,2,0,0,1,.33.75,2.09,2.09,0,0,1,.06.31l-.32,0c-.19,0-.43-.09-.71-.12s-.27-.05-.41-.06l-.4,0c-.13,0-.25,0-.37,0a2.78,2.78,0,0,0-.35,0,4.92,4.92,0,0,0-.75.11c-.27.05-.55.14-.82.2C7196.07,7104.83,7195.59,7104.94,7195.59,7104.94Z" transform="translate(-6934.62 -7088.03)"/><path class="cls-7" d="M7236.15,7162.59l4.81-2.47s-1.84-3.48,4.11-5.63,5.73,1.07,4.13,2.06c0,0,3.78,0,.69,2.65,0,0,3.79,1,.35,3.12,0,0,2.29.12,0,2.05s-7.33,4-8.83.59l-3.43,2.13Z" transform="translate(-6934.62 -7088.03)"/><path class="cls-28" d="M7207.63,7134.31c4.18,1.44,6.23,16.46,8.27,29.78l21.17-5.29s3.07,5.12,3.58,8.36c0,0-22.7,12.46-34.14,7.68s-8-30.22-8-30.22S7203.45,7132.87,7207.63,7134.31Z" transform="translate(-6934.62 -7088.03)"/><path class="cls-21" d="M7237.07,7158.8l-21.17,5.29c-1.2-7.81-2.4-16.2-4-22.1a55.74,55.74,0,0,1-10.3,7.93q-1.77,1.1-3.55,2.15c-.09,7.9,1.08,19.67,8.49,22.76,11.44,4.78,34.14-7.68,34.14-7.68C7240.15,7163.92,7237.07,7158.8,7237.07,7158.8Z" transform="translate(-6934.62 -7088.03)"/><path class="cls-29" d="M7237.76,7130.67s21.69,113.08,22.85,152.92l3.1-.36s-12-106.62-22.85-153.28Z" transform="translate(-6934.62 -7088.03)"/><path class="cls-7" d="M7241.43,7162.51s-1.79-3.71-.7-5.19c.87-1.18,6.89-3.43,5.68-1.57A11.24,11.24,0,0,1,7244,7158S7246.36,7162.06,7241.43,7162.51Z" transform="translate(-6934.62 -7088.03)"/><path class="cls-7" d="M7246.55,7156.24s-4,4,0,2.43c0,0-4,3.9.45,2,0,0-3.78,2.37.19,2,0,0-3.78,1.92.45,1.66s1.47-4.87,1.47-4.87Z" transform="translate(-6934.62 -7088.03)"/><path class="cls-10" d="M7185.7,7130.8s-9.36-4.1-22.93,2.73-9.17,56.68,14.33,46.95S7185.7,7130.8,7185.7,7130.8Z" transform="translate(-6934.62 -7088.03)"/><path class="cls-7" d="M7139.94,7190.72s-9.22,17.41-.68,5.63c0,0-5.29,16.56,1.54,1.2,0,0-4.27,14,2,.34,0,0-2.9,11.61,2.22-1,0,0,3.07,8.36,1-2.73S7139.94,7190.72,7139.94,7190.72Z" transform="translate(-6934.62 -7088.03)"/><path class="cls-28" d="M7195.78,7128.56l-16-.36.36,2.16s-10.78.54-14.73,3.23.54,16.08.54,16.08,2.51,19.13,5.39,37.09c0,0,29.46,4.22,37-1.53,0,0-1.08-29.28-2-37.18l1.26-13.74s-8.26-4.13-11.86-3.59Z" transform="translate(-6934.62 -7088.03)"/><path class="cls-21" d="M7166.22,7151.62c.71,5.31,2.8,20.6,5.13,35.14,0,0,29.46,4.22,37-1.53,0,0-.24-6.56-.59-14.31C7192.69,7168.75,7176.37,7163.37,7166.22,7151.62Z" transform="translate(-6934.62 -7088.03)"/><path class="cls-28" d="M7165.42,7133.59s-17.2,18-26.42,58l9,4.35s16.13-37.64,29.45-48.14S7165.42,7133.59,7165.42,7133.59Z" transform="translate(-6934.62 -7088.03)"/><path class="cls-18" d="M7169.06,7131.5s8.53,27.23-.3,42c0,0-1.07,4,1.22,5.63,0,0,17.67-7.45,5.64-48.52A7.79,7.79,0,0,0,7169.06,7131.5Z" transform="translate(-6934.62 -7088.03)"/><path class="cls-30" d="M7172.73,7153.49c.23,7-.62,14.4-4,20,0,0-1.07,4,1.22,5.63,0,0,10.27-4.36,9.8-24.66A21.42,21.42,0,0,1,7172.73,7153.49Z" transform="translate(-6934.62 -7088.03)"/><path class="cls-18" d="M7208.05,7176.89c5-7.12,4.47-21.2-2.39-44.74,0,0-3.1-3.63-6.66-1.36a96.57,96.57,0,0,1,2.49,9.95C7203.89,7149.68,7207.28,7165.31,7208.05,7176.89Z" transform="translate(-6934.62 -7088.03)"/><path class="cls-30" d="M7204.84,7155.08a173.89,173.89,0,0,1,3.22,21.81c3.2-4.61,4.12-12.16,2.51-23.28A15.24,15.24,0,0,1,7204.84,7155.08Z" transform="translate(-6934.62 -7088.03)"/><path class="cls-29" d="M7054,7100.83s4-4.13,10.4-.16,10.07,20.3-1.32,35.64Z" transform="translate(-6934.62 -7088.03)"/><path class="cls-31" d="M7045.78,7135.64l.59-13.9,10.87,5.91-.32,9.29,5.2,2.08s7.36,13.42-7.33,12.55a18.25,18.25,0,0,1-17.31-13.85Z" transform="translate(-6934.62 -7088.03)"/><path class="cls-8" d="M7046.67,7131.89l-.32-11.16,10.87,5.91-.22,9.23A26.69,26.69,0,0,1,7046.67,7131.89Z" transform="translate(-6934.62 -7088.03)"/><path class="cls-31" d="M7068.31,7115.4c-1-13.1-13.58-12.74-19.49-9.09.14,7.08-2.12,10.93-4.15,17.53C7054.89,7141.4,7069.94,7136,7068.31,7115.4Z" transform="translate(-6934.62 -7088.03)"/><path class="cls-29" d="M7050.78,7100.42a19.42,19.42,0,0,0,6.49,8.71c4.77,3.45,12.3.72,12.3.72S7067.41,7093.67,7050.78,7100.42Z" transform="translate(-6934.62 -7088.03)"/><path class="cls-29" d="M7046.59,7126.45a3.78,3.78,0,0,0,.31-2.46c-.27-2.39,1.12-6.54,1.38-8.06,1.86-1.2,9.39-6.14,5.81-13.07-4.16-8.05-14.93-1-16,7.07C7036.53,7120.76,7046.57,7128,7046.59,7126.45Z" transform="translate(-6934.62 -7088.03)"/><path class="cls-31" d="M7047.1,7115s-2.81-2.31-3.8,1.82,3,3.9,3,3.9Z" transform="translate(-6934.62 -7088.03)"/><path class="cls-29" d="M7050.73,7112.71l-4,21.29a46.67,46.67,0,0,1-.66-20.13C7048.06,7104.29,7050.73,7112.71,7050.73,7112.71Z" transform="translate(-6934.62 -7088.03)"/><path class="cls-29" d="M7043.47,7101.32s-1.5-7.81-9.57-5.12c-10.4,3.47-.1,17.56-8.09,21.45-6.44,3.14-7.26-4.29-7.26-4.29s-3.63,7.76,3.3,10.89c8.56,3.87,15.68-4,15.69-14.49,0-7.83,2.46-7.78,4.11-5.64S7043.47,7101.32,7043.47,7101.32Z" transform="translate(-6934.62 -7088.03)"/><path class="cls-32" d="M7059,7115.62l-1.09-.42c-.32-.1-.69-.24-1.08-.32-.19-.06-.4-.07-.6-.12a4,4,0,0,0-.61,0,3.41,3.41,0,0,0-1.15.17,3.28,3.28,0,0,0-.52.2,2.88,2.88,0,0,0-.46.25,3.89,3.89,0,0,0-.39.24l-.29.22-.28.19s0-.11.13-.31.1-.22.17-.35a3.63,3.63,0,0,1,.72-.85,2.38,2.38,0,0,1,.58-.39,2.46,2.46,0,0,1,.72-.26,3.38,3.38,0,0,1,.78-.09,3.9,3.9,0,0,1,1.47.32,4.36,4.36,0,0,1,1.08.66A3.57,3.57,0,0,1,7059,7115.62Z" transform="translate(-6934.62 -7088.03)"/><path class="cls-32" d="M7068.26,7116.48l-1-.46a5.82,5.82,0,0,0-2-.6,2.47,2.47,0,0,0-1,.12,3,3,0,0,0-.45.19,2.86,2.86,0,0,0-.4.23,6.12,6.12,0,0,0-.61.43l-.25.17s0-.11.09-.29a2.41,2.41,0,0,1,.37-.72,1.85,1.85,0,0,1,.36-.43,2.14,2.14,0,0,1,.52-.38,2.1,2.1,0,0,1,.67-.25,2.7,2.7,0,0,1,.74-.06,3.18,3.18,0,0,1,1.32.42,3.66,3.66,0,0,1,.91.71A3.09,3.09,0,0,1,7068.26,7116.48Z" transform="translate(-6934.62 -7088.03)"/><path class="cls-9" d="M7061.64,7117.79c.18.47.36.93.5,1.41s.3.95.43,1.43c.26,1,.49,1.93.67,2.9l0,.16-.11.09a1.37,1.37,0,1,1-.32-.38l-.08.25c-.27-1-.49-1.92-.69-2.9-.1-.49-.17-1-.25-1.47S7061.69,7118.29,7061.64,7117.79Z" transform="translate(-6934.62 -7088.03)"/><path class="cls-10" d="M7062.86,7118.82s.07.09.17.24a1.31,1.31,0,0,0,.19.27c.09.09.16.19.27.29a4.44,4.44,0,0,0,.35.31,3.25,3.25,0,0,0,.42.28,4.07,4.07,0,0,0,.47.23,2.34,2.34,0,0,0,.5.13,1.24,1.24,0,0,0,.48,0,1.09,1.09,0,0,0,.4-.13l.16-.12.12-.16a2.82,2.82,0,0,0,.18-.38,3.31,3.31,0,0,0,.12-.71c0-.18,0-.29,0-.29a2.86,2.86,0,0,1,.12.27,2.35,2.35,0,0,1,.19.79,1.94,1.94,0,0,1-.09.58l-.14.31a3.15,3.15,0,0,1-.25.28,1.52,1.52,0,0,1-.69.34,2,2,0,0,1-.75,0,2.6,2.6,0,0,1-1.25-.58,2.3,2.3,0,0,1-.44-.44,2.39,2.39,0,0,1-.3-.46,2.11,2.11,0,0,1-.16-.44,1.44,1.44,0,0,1-.06-.33C7062.86,7118.93,7062.86,7118.82,7062.86,7118.82Z" transform="translate(-6934.62 -7088.03)"/><path class="cls-10" d="M7054.25,7119s.07.09.17.24a1.31,1.31,0,0,0,.19.27c.09.09.16.19.27.29a4.44,4.44,0,0,0,.35.31,3.26,3.26,0,0,0,.42.28,4.07,4.07,0,0,0,.47.23,2.34,2.34,0,0,0,.5.13,1.23,1.23,0,0,0,.48,0,1.09,1.09,0,0,0,.4-.13l.16-.12.12-.16a2.83,2.83,0,0,0,.18-.38,3.31,3.31,0,0,0,.12-.71c0-.18,0-.29,0-.29a2.87,2.87,0,0,1,.12.27,2.35,2.35,0,0,1,.19.79,1.94,1.94,0,0,1-.09.58l-.14.31a3.17,3.17,0,0,1-.25.28,1.52,1.52,0,0,1-.69.34,2,2,0,0,1-.75,0,2.6,2.6,0,0,1-1.25-.58,2.3,2.3,0,0,1-.44-.44,2.39,2.39,0,0,1-.3-.46,2.11,2.11,0,0,1-.16-.44,1.44,1.44,0,0,1-.06-.33C7054.25,7119.14,7054.25,7119,7054.25,7119Z" transform="translate(-6934.62 -7088.03)"/><path class="cls-9" d="M7061.83,7126.2a10.74,10.74,0,0,1,2,1.1l.33.23-.35.23a14.65,14.65,0,0,1-1.3.75.77.77,0,1,1-.25-.41,14.65,14.65,0,0,1,1.26-.81l0,.46A10.74,10.74,0,0,1,7061.83,7126.2Z" transform="translate(-6934.62 -7088.03)"/><ellipse class="cls-12" cx="122.05" cy="192.01" rx="51.82" ry="9.9"/><path class="cls-33" d="M7045,7265.11l-9.49,8.82,3.25,9.81-10.66-11.2a132.24,132.24,0,0,0,12.84-11.81Z" transform="translate(-6934.62 -7088.03)"/><path class="cls-34" d="M7033.62,7267.87c2.17-2,4.75-4.43,7.35-7.13l4.07,4.37-6.29,5.85A33.82,33.82,0,0,0,7033.62,7267.87Z" transform="translate(-6934.62 -7088.03)"/><path class="cls-11" d="M7036.41,7273.73l-1.84-.27-3.45-4.53-3.76,4.14,11.82,12.25s.82-.3,1-1.9C7040.4,7281.31,7036.41,7273.73,7036.41,7273.73Z" transform="translate(-6934.62 -7088.03)"/><path class="cls-11" d="M7039,7279.15a11.92,11.92,0,0,1,1.21,4.25c-.17,1.6-1,1.9-1,1.9l-4.41-4.56C7036.16,7280.15,7037.55,7279.61,7039,7279.15Z" transform="translate(-6934.62 -7088.03)"/><polygon class="cls-18" points="105.4 196.56 104.56 197.27 92.74 185.03 93.63 184.06 105.4 196.56"/><polygon class="cls-11" points="102.23 186.99 103.83 184.36 100.67 183.08 98.91 185.98 102.23 186.99"/><line class="cls-35" x1="103.78" y1="189.68" x2="102.13" y2="189.96"/><line class="cls-35" x1="103.24" y1="188.39" x2="101.58" y2="188.66"/><line class="cls-35" x1="102.61" y1="187.08" x2="100.96" y2="187.36"/><path class="cls-10" d="M7046.37,7203.89s7,16.46,4.92,30.85-17.8,28.9-17.8,28.9,4.77,8.39,11.66,7.73c2-.19,27.64-17.9,27.33-38.38C7072.22,7215.82,7046.37,7203.89,7046.37,7203.89Z" transform="translate(-6934.62 -7088.03)"/><path class="cls-18" d="M7036.08,7177.6s-5.49,8.36-.45,17.17,26,29.07,28.89,37.11,11.23,42.7,11.23,42.7l12.8-1.87s-2.77-46.18-5.93-54.66c-6.26-16.79-20.6-37.56-20.6-37.56Z" transform="translate(-6934.62 -7088.03)"/><path class="cls-33" d="M7083.11,7265.32l2.67,12.68,10.08,2.27-15.09,3.37a132.25,132.25,0,0,0-3.5-17.09Z" transform="translate(-6934.62 -7088.03)"/><path class="cls-34" d="M7079.59,7276.53c-.58-2.88-1.35-6.36-2.32-10l5.84-1.23,1.77,8.4A33.82,33.82,0,0,0,7079.59,7276.53Z" transform="translate(-6934.62 -7088.03)"/><path class="cls-11" d="M7086.05,7277.15l-1.19,1.44-5.66.62,1.61,5.35,16.59-3.82s.17-.86-1.12-1.83C7094.6,7277.64,7086.05,7277.15,7086.05,7277.15Z" transform="translate(-6934.62 -7088.03)"/><path class="cls-11" d="M7092,7277.75a11.92,11.92,0,0,1,4.26,1.16c1.29,1,1.12,1.83,1.12,1.83l-6.18,1.42C7091.42,7280.68,7091.68,7279.21,7092,7277.75Z" transform="translate(-6934.62 -7088.03)"/><polygon class="cls-18" points="162.59 191.63 162.78 192.71 146.19 196.53 145.82 195.28 162.59 191.63"/><polygon class="cls-11" points="152.76 189.42 151.33 186.69 148.6 188.74 150.19 191.74 152.76 189.42"/><line class="cls-35" x1="155.87" y1="189.47" x2="155.25" y2="191.03"/><line class="cls-35" x1="154.48" y1="189.27" x2="153.86" y2="190.83"/><line class="cls-35" x1="153.04" y1="189.13" x2="152.42" y2="190.69"/><path class="cls-18" d="M7036.08,7177.6s-5.49,8.36-.45,17.17,26,29.07,28.89,37.11,11.23,42.7,11.23,42.7l12.8-1.87s-2.77-46.18-5.93-54.66c-6.26-16.79-20.6-37.56-20.6-37.56Z" transform="translate(-6934.62 -7088.03)"/><path class="cls-36" d="M7066.52,7187.35c-2.65-4.19-4.49-6.86-4.49-6.86l-26-2.9a18.32,18.32,0,0,0-2.53,10.45C7051.39,7192.28,7062.08,7189.27,7066.52,7187.35Z" transform="translate(-6934.62 -7088.03)"/><g class="cls-37"><path class="cls-38" d="M7043.06,7173.76s18.81,27.23,26.24,45,12.13,61.39,12.13,61.39" transform="translate(-6934.62 -7088.03)"/><path class="cls-38" d="M7046,7175.25s18.81,27.23,26.24,45,12.13,61.39,12.13,61.39" transform="translate(-6934.62 -7088.03)"/></g><path class="cls-31" d="M7058.75,7141.74s-2.08,6.57,4.68,11.55c12.51,9.22,19.58,8.06,21.87,5.38s1.14-27.41,1-29c-.16-2.55.25-6-1.32-3.79,0,0-.66-3.29-1.48-.66,0,0-.41-3.38-1.76-.07,0,0-.79-3.06-1.94-.18l-.49,3.62s-4.63-7.69-1,1.91c0,0-1,11.05-1.57,18C7076.6,7151.36,7059.8,7132,7058.75,7141.74Z" transform="translate(-6934.62 -7088.03)"/><path class="cls-39" d="M7060.26,7138.61s1.36-.62,6.44,2a35.62,35.62,0,0,1,9.28,7.55l1-15.47,10.4,1.24s1.49,25.12-3.47,26.86-14.85-1.61-21-8.66S7060.26,7138.61,7060.26,7138.61Z" transform="translate(-6934.62 -7088.03)"/><path class="cls-40" d="M7074,7146.1a31.91,31.91,0,0,0-7.33-5.5c-5.07-2.6-6.44-2-6.44-2s-3.59,6.44,2.6,13.49a28.56,28.56,0,0,0,10.83,7.54A80.33,80.33,0,0,0,7074,7146.1Z" transform="translate(-6934.62 -7088.03)"/><rect class="cls-20" x="7066.12" y="7125.12" width="5.35" height="9.28" rx="1.57" ry="1.57" transform="translate(-8826.89 4569.5) rotate(-72.05)"/><path class="cls-18" d="M7086,7126.55c3.63,1.18,2.77,4.85,1.34,9.26h0c-1.43,4.41-2.89,7.89-6.51,6.72l-9.66-3.13c-3.63-1.18-5.41-5.7-4-10.12h0c1.43-4.41,5.53-7,9.16-5.86Z" transform="translate(-6934.62 -7088.03)"/><path class="cls-31" d="M7081.78,7125.12s-.29-1.45-1-1.45-3.5,3.34-2.54,3.81,3.09-2.29,3.09-2.29Z" transform="translate(-6934.62 -7088.03)"/><path class="cls-31" d="M7084,7125s-.74-1.65-1.41-1.41-2.67,5-1.61,5.14,2.62-3.52,2.62-3.52Z" transform="translate(-6934.62 -7088.03)"/><path class="cls-31" d="M7085.54,7125.5s-.86-1.59-1.51-1.3-2.28,5.21-1.22,5.24,2.35-3.71,2.35-3.71Z" transform="translate(-6934.62 -7088.03)"/><path class="cls-31" d="M7087.12,7127.1s-.31-2.17-1.48-2.08c-.58,0-1.86,4.26-1,4.28s1.64-2.52,1.64-2.52Z" transform="translate(-6934.62 -7088.03)"/><path class="cls-31" d="M7049.24,7140.3a13.26,13.26,0,0,0-13.36-1.14c-5.51,2.48-22.5,10.38-24.91,13s-1.57,29.59-1.89,31.19-2.39,9.59,1.13,1.93c0,0-2.29,9.77,1.13,1.4,0,0-1.19,8.3,1.69-.85,0,0-1.11,8.75,1.31.2l.77-2.63s4.3,7.89,1-1.87c0,0,2.25-14.46,3.07-21.37C7019.58,7157.25,7047.77,7150,7049.24,7140.3Z" transform="translate(-6934.62 -7088.03)"/><path class="cls-39" d="M7061.87,7138.61l-4.37-1.81.17-1.65-13.37-1.65,0,2.72a26.65,26.65,0,0,0-13.12,4.51,153,153,0,0,0-20.68,9.94s-2.48,9.9-2.31,27.39l9.24.83,2.48-18.32s7-3.14,14.13-6.7c1.41,4.14,2.75,7.66,2.75,7.66l-.26.85a232.14,232.14,0,0,0-5.22,23.74c26,6.84,37.68-1.38,37.68-1.38-2.6-7.6-5.74-21.34-5.74-21.34C7077,7155.82,7064.4,7139.63,7061.87,7138.61Z" transform="translate(-6934.62 -7088.03)"/><g class="cls-41"><path class="cls-42" d="M7036.49,7162.37l.26-.85a35.28,35.28,0,0,1-1.91-5.46,46.94,46.94,0,0,0,18.39,13.74,48.64,48.64,0,0,0,12.24,3c.78,3.1,2,7.61,3.48,11.92,0,0-11.72,8.22-37.68,1.38A232.14,232.14,0,0,1,7036.49,7162.37Z" transform="translate(-6934.62 -7088.03)"/></g></svg>