<svg id="Layer_1" data-name="Layer 1" xmlns="http://www.w3.org/2000/svg" viewBox="0 0 365.17 209.87"><defs><style>.cls-1{fill:#006b60;}.cls-2{fill:#00877d;}.cls-3{fill:#57c487;}.cls-17,.cls-18,.cls-22,.cls-4{fill:#000e23;}.cls-4{opacity:0.15;}.cls-5{fill:#f9738a;}.cls-6{fill:#919fb0;}.cls-7{fill:#ffa4b9;}.cls-8{fill:#ff889e;}.cls-9{fill:#d05773;}.cls-10{fill:#b14461;}.cls-11{fill:#00314e;}.cls-12,.cls-15,.cls-32{fill:none;stroke-miterlimit:10;}.cls-12,.cls-32{stroke:#00314e;}.cls-12{stroke-width:0.56px;}.cls-13{fill:#ffc1ac;}.cls-14,.cls-20{fill:#e79280;}.cls-14{opacity:0.5;}.cls-15{stroke:#000e23;stroke-width:0.88px;}.cls-16,.cls-34{fill:#fff;}.cls-17{opacity:0.2;}.cls-19{fill:#652a2a;}.cls-21{fill:#1e2132;}.cls-22,.cls-26,.cls-33,.cls-34{opacity:0.1;}.cls-23{fill:#ffd7cc;}.cls-24,.cls-29{fill:#f89585;}.cls-24{opacity:0.3;}.cls-25{fill:#ffaa57;}.cls-27,.cls-33{fill:#002638;}.cls-28{fill:#d57a7a;}.cls-30{fill:#da7b7b;}.cls-31{fill:#672d2d;}.cls-32{stroke-linecap:round;stroke-width:0.55px;}.cls-35{fill:#74302b;}.cls-36{fill:#a1433a;}.cls-37{fill:#ffcf5c;}.cls-38{fill:#ff6015;opacity:0.6;}</style></defs><title>ludzie2</title><path class="cls-1" d="M7283.69,7094.89s-12.9,34.93-29.05,45.86c0,0,10.77,0,17.35-6.9,0,0-18.42,37.7-34.71,53.22l16.42-3.24s-13.6,32.84-32.75,47.23c0,0,79.76,22.47,136.6,7.51,0,0-33.95-30.46-43.52-52.33,0,0,2.84,1.12,16,.54,0,0-25.13-29.34-31.71-50.63a18.61,18.61,0,0,0,12.26,3.55S7287.28,7114.49,7283.69,7094.89Z" transform="translate(-7017.93 -7094.89)"/><path class="cls-1" d="M7069.42,7121.53s-7.67,35-19,43.93c0,0,7.85-.44,12.35-5.94,0,0-13.85,34-26.85,43.93l13.69-4.1s-4.64,25-18,36.71c0,0,57.15,13,97.94-.66,0,0-26.68-23.44-34.58-39.62,0,0,2.76,2.47,12.33,1.5,0,0-19.56-21.22-25.25-37.08,0,0,5.89,3.61,11.1,2.88C7093.17,7163.07,7072.86,7136.23,7069.42,7121.53Z" transform="translate(-7017.93 -7094.89)"/><path class="cls-2" d="M7193.93,7137.53s11.26,29.14,22.19,35.35a7.82,7.82,0,0,1-7.24-.15s8.17,11.61,19.4,19.91c-3.06,3.57-9.44,2-9.44,2l14.8,22.46-6.64-.26s10.9,17.1,16.2,20.46c0,0-41,5-78-1.35,0,0,13.92-18.19,18.58-33.19a22.73,22.73,0,0,1-15,2.86s13.48-19,16.29-33.45c0,0-4.08,2.3-7.79,1.29C7177.36,7173.51,7191.53,7150.53,7193.93,7137.53Z" transform="translate(-7017.93 -7094.89)"/><path class="cls-2" d="M7321.26,7122.47s8.57,39.59,19.9,47c0,0-5.46,4.6-10.15-.21,0,0,14.24,25.82,25.76,35.57-3.85,5.93-13.1,1.38-13.1,1.38s9.28,25.66,22.76,35.52c0,0-44.06,3.1-83.19-6,0,0,15.9-19.13,21.73-35.3,0,0-7.49,4.38-16.15,2.26,0,0,16.22-21.82,20-37.48a18.12,18.12,0,0,1-9.13,2.72S7319.43,7136.81,7321.26,7122.47Z" transform="translate(-7017.93 -7094.89)"/><path class="cls-3" d="M7326.7,7294c.06-.17.12-.34.17-.52C7326,7296.86,7326.28,7295.89,7326.7,7294Z" transform="translate(-7017.93 -7094.89)"/><path class="cls-3" d="M7017.94,7251.33c.17-4.6,1.93-9.74,5.92-12.78a33.4,33.4,0,0,1,10.93-5.43c7.78-2.45,16.28-3.19,24.39-4.21l2.42-.3c-.91-9.89,29.56-15.14,35.71-15.62,4.86-.39,9.77-.46,14.61-1l-1.65.2a172.92,172.92,0,0,1,24.85-1c4.06.11,8.12.29,12.17.44l4.43-.16c6.42-.21,12.85-.42,19.28-.39a52.56,52.56,0,0,1,17.84,2.78c5.44,2,11.57,4.64,14.7,9.47,13.91.76,18.48-.3,38.24-.3,9.74,0,23.37,1.14,30.63,7.43,3.69,3.2,6.19,8,6.08,12.66-.14,6-3.76,10.52-8.94,13.87-4.32,2.79-9.47,3.11-14.53,3.47-4.87.34-2.14.56-7,.78l-10.37.45a18.87,18.87,0,0,1,.57,3.54,23.08,23.08,0,0,1-.6,3.79,13.11,13.11,0,0,1-3.42,5.18,13.83,13.83,0,0,1-6.84,3.48,192.67,192.67,0,0,1-25.21,2.26c-18,.49-43.6-.4-61.55-1.18-15.35-.67-30.67-1.3-46-2.17-8.07-.46-16.14-.79-24.22-1.1-10.63-.4-21.7-.93-32-3.6S7017.53,7262.37,7017.94,7251.33Z" transform="translate(-7017.93 -7094.89)"/><path class="cls-3" d="M7374.89,7243.56c-9.8-7.76-28.2-9.17-41.34-9.17-26.67,0-32.83,1.31-51.61.38-4.23-6-8.11-7.19-15.46-9.64-7.67-2.56-15.87-3.39-24.07-3.43-8.67,0-21.73-1.82-30.39-1.56l-6,.2c-5.48-.19-11-.4-16.43-.54a255.08,255.08,0,0,0-33.53,1.19l2.22-.25c-6.53.73-13.15.82-19.71,1.29-8.29.6-49.42,7.07-48.19,19.27l-3.27.37c-10.95,1.25-22.4,2.17-32.91,5.19a46.88,46.88,0,0,0-14.75,6.7c-5.39,3.75-7.76,10.09-8,15.76-.55,13.62,13.54,22,27.56,25.34s28.82,3.94,43.16,4.44c10.9.38,21.79.79,32.68,1.35,20.69,1.07,41.38,1.85,62.09,2.67,24.23,1,58.8,2.06,83.07,1.46a283.81,283.81,0,0,0,34-2.79,15.33,15.33,0,0,0,2.15-.5c9-1.85,14-4.86,14.88-8.71a9.94,9.94,0,0,0-1.75-7.62l13.16-.52c6.59-.27,2.91-.54,9.48-1,6.82-.44,13.21-3.76,19-7.2,7-4.13,11.88-9.65,12.07-17.11C7383.25,7253.38,7379.87,7247.5,7374.89,7243.56Z" transform="translate(-7017.93 -7094.89)"/><path class="cls-4" d="M7031.4,7238.9c.4,9.51,46.56,15.34,103.11,13s102.07-11.91,101.67-21.43-46.56-15.34-103.11-13S7031,7229.39,7031.4,7238.9Z" transform="translate(-7017.93 -7094.89)"/><path class="cls-5" d="M7217.65,7232.94l-1.83-29.24s-39.24-53.42-49.33-79c0,0-26.43,44.34-57.09,68.32l.35,54Z" transform="translate(-7017.93 -7094.89)"/><polygon class="cls-6" points="219.09 126.26 218.3 132.54 216.43 132.42 215.74 125.58 219.09 126.26"/><path class="cls-7" d="M7094.72,7114s36.76,11,71.78,10.7c0,0-18.29,47.19-56,93.84l-.76,28.5-59.1-15.33-3.33-29.63S7084.19,7156.23,7094.72,7114Z" transform="translate(-7017.93 -7094.89)"/><polygon class="cls-8" points="92.58 123.62 91.82 152.12 24.41 136.79 29.39 107.16 92.58 123.62"/><path class="cls-9" d="M7190.42,7236.38s-24.8-70.07-23.93-111.71c0,0-9.54,76.07-31.3,118.15Z" transform="translate(-7017.93 -7094.89)"/><path class="cls-10" d="M7184.49,7216.65c3.4,11.94,5.93,19.73,5.93,19.73l-56.35,7.37a236.16,236.16,0,0,0,16.12-40.62C7161.41,7208.17,7172.86,7212.63,7184.49,7216.65Z" transform="translate(-7017.93 -7094.89)"/><polygon class="cls-6" points="64.46 145.72 65.32 153.12 67.36 152.98 68.11 144.91 64.46 145.72"/><polygon class="cls-6" points="10.14 133.1 11.01 140.5 13.04 140.36 13.79 132.29 10.14 133.1"/><path class="cls-11" d="M7082.37,7246c17.76-12.69,31.74-30.28,44-48.17a456.74,456.74,0,0,0,31.49-54.33c2.6-5.22,5.12-10.49,7.52-15.81.16-.35.9-2.79,1.29-2.92-.52.18.19.85.57,1.71,2.22,5.1,5.3,10,8,14.83q7.38,13.21,15.4,26.05c12.95,20.65,27.27,42.56,46.64,57.79.12.09.49-.07.37-.16-19.83-15.59-34.44-38.19-47.62-59.36-8.3-13.34-16.22-27-23.31-41-.06-.12-.34-.07-.39,0-13.8,32.15-31.7,63.81-53.59,91.11-9,11.18-18.91,21.75-30.6,30.1-.22.16.12.23.25.14Z" transform="translate(-7017.93 -7094.89)"/><path class="cls-12" d="M7028.21,7232.23s56.26-63.38,66.51-118.26" transform="translate(-7017.93 -7094.89)"/><path class="cls-4" d="M7082.15,7270.42c.25,5.86,25.46,9.59,56.32,8.32s55.67-7,55.43-12.9-25.46-9.59-56.32-8.32S7081.9,7264.56,7082.15,7270.42Z" transform="translate(-7017.93 -7094.89)"/><path class="cls-13" d="M7139.42,7222.25s5.22,13.57,5.67,15.8c.23,1.17,19.53-7.16,21.47-6.56s4.1,1.3,4,2.35-.34,4.25-4.85,2.12c0,0-14.31,12.23-22.51,10.59s-11.93-22.22-11.93-22.22Z" transform="translate(-7017.93 -7094.89)"/><path class="cls-14" d="M7140.81,7225.89c-.8-2.11-1.39-3.64-1.39-3.64l-8.2,2.09s.52,2.85,1.59,6.52A72.07,72.07,0,0,0,7140.81,7225.89Z" transform="translate(-7017.93 -7094.89)"/><line class="cls-15" x1="144.52" y1="139.06" x2="179.41" y2="131.57"/><path class="cls-16" d="M7188.85,7226.68a2.7,2.7,0,0,0,.45,3.47s4.81.11,5.37-.56.11-4.14-1.12-4.7S7188.85,7226.68,7188.85,7226.68Z" transform="translate(-7017.93 -7094.89)"/><path class="cls-13" d="M7158.88,7233.73s6.93-2.91,8.39-2.68,6.26,1.9-1,1.45l-1.34,2.91Z" transform="translate(-7017.93 -7094.89)"/><path class="cls-6" d="M7110.64,7245.66s-4.91,18.69,4.55,24.56,52.9,5.24,55.58-2.86-32.3-12.58-32.3-12.58l23.48,10.2s11,1.82,10.4-5.17-24.87-19.86-36.53-19S7110.64,7245.66,7110.64,7245.66Z" transform="translate(-7017.93 -7094.89)"/><path class="cls-17" d="M7172.34,7259.81c-.52-5.81-17.4-15.7-29.77-18.37.73,4.5-.39,8.78-2.22,12.91-.09.22-.18.44-.28.66,5.77.84,25.28,4,29.86,9.24A4.14,4.14,0,0,0,7172.34,7259.81Z" transform="translate(-7017.93 -7094.89)"/><path class="cls-18" d="M7120.23,7181.9s-5.91-3.47-9.48,2.68-.77,9.2-4.6,10.44-6.21,5.94-3.66,10.84,13,4.81,17.08.24S7120.23,7181.9,7120.23,7181.9Z" transform="translate(-7017.93 -7094.89)"/><path class="cls-13" d="M7115.85,7203l.79,10.49-5.94,2.49s13.17,6.4,20.43-1.2l-5.58-1.54v-8.59Z" transform="translate(-7017.93 -7094.89)"/><path class="cls-14" d="M7124.66,7213.06l.9.07v-8.49l-9.71-1.66.68,9C7119.25,7212.24,7121.94,7212.82,7124.66,7213.06Z" transform="translate(-7017.93 -7094.89)"/><path class="cls-18" d="M7110.37,7189.8s-1.2,12.55,6.08,16.73S7110.37,7189.8,7110.37,7189.8Z" transform="translate(-7017.93 -7094.89)"/><path class="cls-13" d="M7111.07,7196.09c1.09-1,2.29-.31,3.15.47-1.1-4.69-1.37-8.2,1.53-10.85,13.21-8.77,18.08,4.29,18.08,4.29s5.06,15.46-3,20.13c-7.54,4.35-15.91-1.37-15.87-7.58C7111.34,7204.39,7109.17,7197.77,7111.07,7196.09Z" transform="translate(-7017.93 -7094.89)"/><path class="cls-19" d="M7114.44,7206.15" transform="translate(-7017.93 -7094.89)"/><path class="cls-18" d="M7119.57,7184.57s1,4.53,10,5.31c0,0,5.63.13,5.62,8.86,0,6.41-1.7,9-1.7,9s3.87,3.45,10.4,1.74c7.68-2,10.05-7.95,7.17-9.43s-5.49-3-3.89-6.32c1.86-3.88-.92-8.77-7.85-7.6-4,.67-.25-4.68-6.71-7.66S7119.15,7176.69,7119.57,7184.57Z" transform="translate(-7017.93 -7094.89)"/><path class="cls-18" d="M7121,7185.75s.79,8.32-5.61,10.72l1.23,3.71s-2.33-.68-3.22-4.52l-3-5.86s1.34-11,10.55-7.93S7121,7185.75,7121,7185.75Z" transform="translate(-7017.93 -7094.89)"/><path class="cls-16" d="M7130.35,7205.91l-6.92.11S7126.45,7209.68,7130.35,7205.91Z" transform="translate(-7017.93 -7094.89)"/><path class="cls-20" d="M7113.64,7201.48a2.17,2.17,0,0,1-.33,0,1.18,1.18,0,0,1-.8-.44,1.17,1.17,0,0,1-.12-.29,1,1,0,0,1,0-.37,1.81,1.81,0,0,1,.33-.62,1.86,1.86,0,0,0,.31-.53,3.56,3.56,0,0,0,.07-.67,3.61,3.61,0,0,0,0-.66l0-.33-.1-.28,0-.14-.08-.1a1.14,1.14,0,0,0-.1-.12l-.09,0a.58.58,0,0,0-.44,0,1.37,1.37,0,0,0-.61.51l-.15.29a2.25,2.25,0,0,1,.07-.33,1.53,1.53,0,0,1,.19-.34,1.18,1.18,0,0,1,.39-.35.86.86,0,0,1,.68-.06l.2.09a1.26,1.26,0,0,1,.12.11.8.8,0,0,1,.13.15l.07.17c0,.12.1.24.14.36l.06.36a3.85,3.85,0,0,1,0,.76,3.72,3.72,0,0,1-.11.74,2.17,2.17,0,0,1-.4.65,2.28,2.28,0,0,0-.32.48.66.66,0,0,0,0,.21c0,.08,0,.22.06.24a1.16,1.16,0,0,0,.61.48Z" transform="translate(-7017.93 -7094.89)"/><path class="cls-18" d="M7125.92,7194.66s-.49,0-1.13-.07c-.32,0-.68,0-1.06,0a7.45,7.45,0,0,0-1.14.14,7.87,7.87,0,0,0-1.11.28l-.51.19c-.17.06-.32.14-.47.2-.3.12-.55.25-.74.33l-.31.12s0-.11.13-.3a2.94,2.94,0,0,1,.47-.73,2.65,2.65,0,0,1,.41-.42,4.35,4.35,0,0,1,.53-.4,4.66,4.66,0,0,1,.64-.32,5.25,5.25,0,0,1,.72-.21,4.54,4.54,0,0,1,.74-.07,3.72,3.72,0,0,1,.71.06,3.78,3.78,0,0,1,1.18.41A2.65,2.65,0,0,1,7125.92,7194.66Z" transform="translate(-7017.93 -7094.89)"/><path class="cls-18" d="M7134,7194.74l-.93-.15c-.26,0-.56-.06-.86-.09a6.17,6.17,0,0,0-.93,0,5.91,5.91,0,0,0-.91.12l-.43.11c-.14,0-.27.09-.4.12s-.47.15-.64.2l-.27.07a2.58,2.58,0,0,1,.12-.25,2.29,2.29,0,0,1,.43-.59,2,2,0,0,1,.37-.33,3,3,0,0,1,.47-.29,3.19,3.19,0,0,1,.57-.21,3.9,3.9,0,0,1,.62-.1,3.21,3.21,0,0,1,2.13.64A2.16,2.16,0,0,1,7134,7194.74Z" transform="translate(-7017.93 -7094.89)"/><path class="cls-21" d="M7121.24,7198.76l.18.19a1.52,1.52,0,0,0,.2.21c.09.07.15.15.26.22a2.16,2.16,0,0,0,1.52.45,2,2,0,0,0,1.35-.78,3.27,3.27,0,0,0,.33-.53l.12-.23a2.63,2.63,0,0,1,.06.26,1.08,1.08,0,0,1,0,.31,1.75,1.75,0,0,1-.05.41,1.89,1.89,0,0,1-.56.93,1.83,1.83,0,0,1-.53.35,2.55,2.55,0,0,1-.64.18,2.64,2.64,0,0,1-.66,0,2,2,0,0,1-1.36-1,1.73,1.73,0,0,1-.17-.39,1,1,0,0,1-.06-.3C7121.24,7198.86,7121.24,7198.76,7121.24,7198.76Z" transform="translate(-7017.93 -7094.89)"/><path class="cls-21" d="M7129.45,7198.41l.18.19a1.52,1.52,0,0,0,.2.21c.09.07.15.15.26.22a2.16,2.16,0,0,0,1.52.45,2,2,0,0,0,1.35-.78,3.26,3.26,0,0,0,.33-.53l.12-.23a2.63,2.63,0,0,1,.06.26,1.08,1.08,0,0,1,0,.31,1.76,1.76,0,0,1-.05.41,1.89,1.89,0,0,1-.56.93,1.83,1.83,0,0,1-.53.35,2.54,2.54,0,0,1-.64.18,2.64,2.64,0,0,1-.66,0,1.94,1.94,0,0,1-.59-.22,2,2,0,0,1-.76-.76,1.73,1.73,0,0,1-.17-.39,1,1,0,0,1-.06-.3C7129.45,7198.51,7129.45,7198.41,7129.45,7198.41Z" transform="translate(-7017.93 -7094.89)"/><path class="cls-20" d="M7128.08,7195.91q.74,1.51,1.33,3.08c.19.52.41,1,.59,1.57l.54,1.58.05.15-.12.07c-.76.46-1.52.93-2.32,1.34.68-.58,1.39-1.11,2.11-1.65l-.07.22-.6-1.56c-.2-.52-.37-1.05-.55-1.58Q7128.48,7197.55,7128.08,7195.91Z" transform="translate(-7017.93 -7094.89)"/><path class="cls-16" d="M7136.4,7234a5.67,5.67,0,0,0,.35-8.19,18.94,18.94,0,0,0,3.57-3.29s-1.94-6.56-11.33-8.5a10.32,10.32,0,0,1-7,4c-4.92.75-8.95-3.88-8.95-3.88s-6.11.75-8.95,4.92-2.53,10.44-2.53,10.44l8.12,2.24,1,11-.7,10.44s25.82,3.13,31.49-13.27Z" transform="translate(-7017.93 -7094.89)"/><path class="cls-22" d="M7124.5,7240.58c-4.85-.64-11.47-3.13-12.51-8l-1.34,10.29-.7,10.44s25.82,3.13,31.49-13.27l-.12-.14C7136,7241.57,7129.89,7241.29,7124.5,7240.58Z" transform="translate(-7017.93 -7094.89)"/><path class="cls-13" d="M7102.3,7229.7s-.6,40.26-.75,43.54c0,1-10.14,5.07-1,2.24,0,0-6.11,4.62,1.34.45,0,0-4.77,4.62,1.64.15,0,0-6,6.11,3.43-1.34,0,0,7.75,3,.3-1.19,0,0,4-29.07,5.22-41.45A64.77,64.77,0,0,1,7102.3,7229.7Z" transform="translate(-7017.93 -7094.89)"/><path class="cls-14" d="M7112.27,7233.7c.06-.56.11-1.1.16-1.61a64.77,64.77,0,0,1-10.14-2.39l0,2.09Q7107.26,7232.8,7112.27,7233.7Z" transform="translate(-7017.93 -7094.89)"/><path class="cls-4" d="M7234,7273c.4,5.14,21.64,7.7,47.44,5.72s46.4-7.74,46-12.88-21.64-7.7-47.44-5.72S7233.56,7267.82,7234,7273Z" transform="translate(-7017.93 -7094.89)"/><path class="cls-23" d="M7251.78,7215.95c-1.26.43-21.77,4.6-23.09,6.13s-2.77,3.29-2.09,4.09,2.55,3.42,5.23-.78c0,0,16.16-.63,24.38-2.19,2.76-.52,22.42-7,22.73-7.33,3.65-4-1.58-8.89-5.88-8.51C7272,7207.45,7253.24,7215.45,7251.78,7215.95Z" transform="translate(-7017.93 -7094.89)"/><line class="cls-15" x1="215.53" y1="127.09" x2="182.02" y2="139.34"/><path class="cls-23" d="M7236.38,7219.88s-7.42,1.23-8.53,2.2-4.29,4.95,1.63.69l2.68,1.75Z" transform="translate(-7017.93 -7094.89)"/><path class="cls-24" d="M7273.06,7207.35a40.27,40.27,0,0,0-4.21,1.56c.77,2,1.08,4.05,1.7,6.09a31.8,31.8,0,0,0,1.23,3.38c3.91-1.3,7-2.38,7.16-2.52C7282.59,7211.83,7277.36,7207,7273.06,7207.35Z" transform="translate(-7017.93 -7094.89)"/><path class="cls-16" d="M7207.26,7229.89a2.7,2.7,0,0,1,1.47,3.17s-4,2.66-4.84,2.39-2.3-3.44-1.56-4.57S7207.26,7229.89,7207.26,7229.89Z" transform="translate(-7017.93 -7094.89)"/><path class="cls-25" d="M7302.14,7207.85s7.53.87,10.56,3.66c2.8,2.58,4.34,13.23,4.34,13.23s-7.3,2.51-10.57,2.64l1.3,6.58s-.92,16.89-1.55,18.32c-.88,2-27.16-.68-30.69-9.49-.66-10.16,2.87-25.83,2.87-25.83l-4.42,1.55-3.53-11.7s9.86-4.49,16-3S7302.14,7207.85,7302.14,7207.85Z" transform="translate(-7017.93 -7094.89)"/><path class="cls-23" d="M7288.74,7204.33a5.94,5.94,0,0,0,6.05,7c5.43.07,6.68-3.65,6.68-3.65Z" transform="translate(-7017.93 -7094.89)"/><g class="cls-26"><path class="cls-27" d="M7307.44,7227.28h0l-.35-.17-.18.07c-4.29,1.48-8.31,3.58-12.51,5.29a97.19,97.19,0,0,1-12.5,3.89q-3.18.82-6.39,1.51a48.29,48.29,0,0,0,0,4.9c3.53,8.82,29.81,11.51,30.69,9.49.63-1.44,1.55-18.32,1.55-18.32l-1.3-6.58C7306.76,7227.36,7307.09,7227.33,7307.44,7227.28Z" transform="translate(-7017.93 -7094.89)"/></g><path class="cls-23" d="M7316.37,7225s3.89,36.71,4.34,40c0,0,10.57,3.76,1.25,1.77,0,0,6.5,4.41-1.3.93,0,0,5.17,4.17-1.62.3,0,0,6.5,5.54-3.54-1,0,0-7.45,3.68-.41-1.16,0,0-6.32-26.16-8.63-38.37A57.39,57.39,0,0,0,7316.37,7225Z" transform="translate(-7017.93 -7094.89)"/><path class="cls-14" d="M7312.45,7227.94a10.51,10.51,0,0,0,4.06-1.63l-.14-1.34a57.39,57.39,0,0,1-9.91,2.4c.11.56.22,1.14.34,1.75C7308.7,7228.78,7310.59,7228.41,7312.45,7227.94Z" transform="translate(-7017.93 -7094.89)"/><path class="cls-23" d="M7301,7194l-2.17,14.75s-4.17-1.27-8.85-3l2-10.25Z" transform="translate(-7017.93 -7094.89)"/><path class="cls-24" d="M7300,7201.28l.94-7.28-9,1.55-1.69,9.22.56.2C7294.11,7203.8,7297.1,7203.28,7300,7201.28Z" transform="translate(-7017.93 -7094.89)"/><path class="cls-23" d="M7303.61,7182.86s.39-4.34-5.37-7-11-3.28-13.46,3.76c-1.3,3.67-7.88,18.61,1.37,22.59C7297.34,7207,7303.39,7196,7303.61,7182.86Z" transform="translate(-7017.93 -7094.89)"/><path class="cls-23" d="M7301,7194.44s4.37,3.58,5.39-4.09c.73-5.51-6.48-1.6-5.9,4.07" transform="translate(-7017.93 -7094.89)"/><path class="cls-28" d="M7303.84,7173.2c-2.15,2.45-2.47,5.28-4.74,7.67l-.2.19h.53s-1.95,3.27-.8,5.2a7.38,7.38,0,0,0,1.83,2.35l-.72,3.44,2,.44,1.19-3.51a2.25,2.25,0,0,1,2.58-1.21s5-7.66-.52-11.15A9.1,9.1,0,0,0,7303.84,7173.2Z" transform="translate(-7017.93 -7094.89)"/><path class="cls-28" d="M7300,7180.9s-3.36,2.08-10.15.86l3.3-1.41a19,19,0,0,1-9.79-2s2.63-10,12.23-9c9.08.93,12.23,6.36,8.2,13.4Z" transform="translate(-7017.93 -7094.89)"/><path class="cls-29" d="M7286.91,7194.4q-.46-.45-.89-.93c-.28-.33-.58-.64-.84-1l-.08-.11.07-.12,1-1.89c.34-.62.7-1.24,1-1.86s.72-1.23,1.08-1.84.75-1.21,1.15-1.81c-.28.66-.57,1.31-.89,1.95s-.62,1.28-1,1.91-.66,1.26-1,1.89l-1,1.86,0-.23c.26.34.48.71.72,1.06S7286.7,7194,7286.91,7194.4Z" transform="translate(-7017.93 -7094.89)"/><path class="cls-21" d="M7283.72,7187s0-.09-.07-.24a.69.69,0,0,1,0-.29,1,1,0,0,1,.09-.42,1.07,1.07,0,0,1,.29-.44,1.28,1.28,0,0,1,.52-.31,1.77,1.77,0,0,1,.63-.1,2.48,2.48,0,0,1,.62.13,2.33,2.33,0,0,1,.55.3,1.87,1.87,0,0,1,.42.43,1.9,1.9,0,0,1,.36,1,1.68,1.68,0,0,1-.1.69,2.28,2.28,0,0,1-.1.23l-.09-.24a3.63,3.63,0,0,0-.23-.54,2.52,2.52,0,0,0-.47-.57,2.23,2.23,0,0,0-.31-.23,1.49,1.49,0,0,0-.36-.17,1.58,1.58,0,0,0-.37-.1,1.79,1.79,0,0,0-.35,0,1,1,0,0,0-.31.08.85.85,0,0,0-.26.17,1.11,1.11,0,0,0-.19.22.84.84,0,0,0-.13.24C7283.76,7186.9,7283.72,7187,7283.72,7187Z" transform="translate(-7017.93 -7094.89)"/><path class="cls-21" d="M7291.55,7188.53s0-.09-.07-.24a.69.69,0,0,1,0-.29,1,1,0,0,1,.09-.42,1.07,1.07,0,0,1,.29-.44,1.28,1.28,0,0,1,.52-.31,1.76,1.76,0,0,1,.63-.1,2.48,2.48,0,0,1,.62.13,2.33,2.33,0,0,1,.55.3,1.87,1.87,0,0,1,.42.43,1.9,1.9,0,0,1,.36,1,1.68,1.68,0,0,1-.1.69,2.29,2.29,0,0,1-.1.23l-.09-.24a3.62,3.62,0,0,0-.23-.54,2.53,2.53,0,0,0-.47-.57,2.22,2.22,0,0,0-.31-.23,1.48,1.48,0,0,0-.36-.17,1.58,1.58,0,0,0-.37-.1,1.79,1.79,0,0,0-.35,0,1,1,0,0,0-.31.08.85.85,0,0,0-.26.17,1.11,1.11,0,0,0-.19.22.84.84,0,0,0-.13.24C7291.59,7188.45,7291.55,7188.53,7291.55,7188.53Z" transform="translate(-7017.93 -7094.89)"/><path class="cls-28" d="M7297.28,7186.34s-3.3-1.39-5.48-.92c-.64,0-1.62-.42-.43-1.54C7292,7183.31,7296.89,7183.22,7297.28,7186.34Z" transform="translate(-7017.93 -7094.89)"/><path class="cls-28" d="M7283.65,7183.68s3-.36,4.7,1.31a1.74,1.74,0,0,0,.21-1.54C7288.24,7182.63,7284.45,7180.81,7283.65,7183.68Z" transform="translate(-7017.93 -7094.89)"/><path class="cls-29" d="M7305.2,7190.22a3.8,3.8,0,0,0-.27-.59.84.84,0,0,0-.39-.39c-.13,0-.28.05-.41.2l-.18.24a1.06,1.06,0,0,0-.17.26,5.46,5.46,0,0,0-.43,1.15,8.06,8.06,0,0,0-.26,1.24l-.06-.16a2,2,0,0,1,.33.5.94.94,0,0,1,.1.63.64.64,0,0,1-.45.42,1.79,1.79,0,0,1-.56.07,2.77,2.77,0,0,0,.5-.2.49.49,0,0,0,.26-.34c0-.27-.23-.58-.46-.79l-.06-.06v-.09a8.46,8.46,0,0,1,.21-1.33,4.46,4.46,0,0,1,.53-1.28,1.31,1.31,0,0,1,.2-.27,2.05,2.05,0,0,1,.24-.26,1.19,1.19,0,0,1,.33-.2.57.57,0,0,1,.43,0,.9.9,0,0,1,.44.58A2.42,2.42,0,0,1,7305.2,7190.22Z" transform="translate(-7017.93 -7094.89)"/><path class="cls-30" d="M7284.61,7195.14l8.89.73a4.17,4.17,0,0,1-4.59,3.13A4.71,4.71,0,0,1,7284.61,7195.14Z" transform="translate(-7017.93 -7094.89)"/><path class="cls-31" d="M7291.9,7196.67a2.61,2.61,0,0,1,1.1.37,4.59,4.59,0,0,0,.51-1.17l-8.89-.73a4.76,4.76,0,0,0,3,3.58A4,4,0,0,1,7291.9,7196.67Z" transform="translate(-7017.93 -7094.89)"/><path class="cls-23" d="M7245.68,7258.07l-2.69,12.81-10.18,2.3,15.24,3.4a133.56,133.56,0,0,1,3.54-17.26Z" transform="translate(-7017.93 -7094.89)"/><path class="cls-24" d="M7249.23,7269.39c.58-2.91,1.37-6.42,2.35-10.08l-5.9-1.25-1.79,8.49A34.17,34.17,0,0,1,7249.23,7269.39Z" transform="translate(-7017.93 -7094.89)"/><path class="cls-16" d="M7242.7,7270l1.2,1.45,5.72.63-1.62,5.4-16.75-3.86s-.17-.87,1.13-1.85C7234.07,7270.51,7242.7,7270,7242.7,7270Z" transform="translate(-7017.93 -7094.89)"/><path class="cls-16" d="M7236.68,7270.62a12,12,0,0,0-4.31,1.17c-1.3,1-1.13,1.85-1.13,1.85l6.24,1.44C7237.28,7273.59,7237,7272.1,7236.68,7270.62Z" transform="translate(-7017.93 -7094.89)"/><polygon class="cls-11" points="213.5 177.66 213.31 178.75 230.06 182.61 230.44 181.34 213.5 177.66"/><polygon class="cls-16" points="223.42 175.43 224.87 172.67 227.63 174.74 226.03 177.77 223.42 175.43"/><line class="cls-32" x1="220.29" y1="175.48" x2="220.91" y2="177.06"/><line class="cls-32" x1="221.69" y1="175.28" x2="222.31" y2="176.85"/><line class="cls-32" x1="223.15" y1="175.14" x2="223.77" y2="176.71"/><path class="cls-33" d="M7249.23,7269.39h0l.22-1.08v-.06l.23-1.11,0-.07.26-1.17h0l.28-1.22v0l.28-1.19,0-.15.28-1.17,0-.19.3-1.2,0-.13.34-1.28h0l-2.16-.46-3.74-.79-.31,1.49-1.8,8.57-.76-.57-1.34,2.54c-1.18.09-3,.26-4.79.52h0l-1,.16h-.06l-.26,0-.12,0-.24,0-.13,0-.28.06-.24.05-.16,0-.18,0-.14,0-.18.05-.12,0-.21.07-.07,0-.25.09-.08,0-.16.07-.08,0-.14.07-.06,0-.16.11a4.28,4.28,0,0,0-.42.36,3,3,0,0,0-.36.43l-.16,0-.08.46a1.24,1.24,0,0,0-.11.63l1.43.33,4.81,1.11h0l10.51,2.42,1.62-5.4-.89-.1C7248.88,7271.2,7249,7270.33,7249.23,7269.39Z" transform="translate(-7017.93 -7094.89)"/><path class="cls-23" d="M7260.25,7262.19l-2.69,12.81-10.18,2.3,15.24,3.4a133.58,133.58,0,0,1,3.54-17.26Z" transform="translate(-7017.93 -7094.89)"/><path class="cls-24" d="M7263.81,7273.51c.58-2.91,1.37-6.42,2.35-10.08l-5.9-1.25-1.79,8.49A34.17,34.17,0,0,1,7263.81,7273.51Z" transform="translate(-7017.93 -7094.89)"/><path class="cls-16" d="M7257.28,7274.14l1.2,1.45,5.72.63-1.62,5.4-16.75-3.86s-.17-.87,1.13-1.85C7248.64,7274.63,7257.28,7274.14,7257.28,7274.14Z" transform="translate(-7017.93 -7094.89)"/><path class="cls-16" d="M7251.25,7274.75a12,12,0,0,0-4.31,1.17c-1.3,1-1.13,1.85-1.13,1.85l6.24,1.44C7251.85,7277.71,7251.59,7276.22,7251.25,7274.75Z" transform="translate(-7017.93 -7094.89)"/><polygon class="cls-11" points="228.07 181.78 227.88 182.88 244.63 186.74 245.01 185.47 228.07 181.78"/><polygon class="cls-16" points="238 179.55 239.44 176.79 242.2 178.86 240.6 181.89 238 179.55"/><line class="cls-32" x1="234.86" y1="179.6" x2="235.48" y2="181.18"/><line class="cls-32" x1="236.26" y1="179.4" x2="236.88" y2="180.97"/><line class="cls-32" x1="237.72" y1="179.26" x2="238.34" y2="180.83"/><path class="cls-27" d="M7279.78,7241.42s-17.94-21.16-28-19.65c-3.84.58-9.17,44.19-9.17,44.19l7.35,2.16,6.51-29.46s16.11,27.9,30.73,29.29S7279.78,7241.42,7279.78,7241.42Z" transform="translate(-7017.93 -7094.89)"/><path class="cls-11" d="M7305.48,7252.35s-6,1.9-12.55-2.73c-.62-6-12.1-30.24-19.83-29.57s-15.88,50.65-15.88,50.65l8.7,2.11,8.64-31.45s.56,22.72,10.48,26.62,15.44.27,18.68-4.14S7305.48,7252.35,7305.48,7252.35Z" transform="translate(-7017.93 -7094.89)"/><ellipse class="cls-34" cx="194.29" cy="188.87" rx="32.43" ry="8.34"/><polygon class="cls-35" points="218.1 187.36 173.11 183.62 172.18 190.18 217.63 190.18 218.1 187.36"/><polygon class="cls-36" points="177.71 193.99 215.01 186.21 214.26 180.84 177.44 191.68 177.71 193.99"/><path class="cls-37" d="M7212.45,7283s14.61,1.6,19.12-12.41c0,0-5.16,5.21-7.3,4.81,0,0,8.81-8.41,3.65-18.62s-16.33-8.61-15-18.62c0,0-12.46,5.41-7.52,16.62s-.43,13-.43,13,4.94-7.21-4.73-11.21c0,0,2.36,5.61-3.65,10.61C7192.89,7270.18,7197.19,7282.56,7212.45,7283Z" transform="translate(-7017.93 -7094.89)"/><path class="cls-38" d="M7210.73,7281.35a28.87,28.87,0,0,0,8.38-2.8l-4.51-.2s7.95-5.81,6.45-10.81-7.52-5.61-7.09-9.41c0,0-4,1.58-2.79,8.21.64,3.6-2.15,6.41-2.15,6.41s-4.73,1-7.73-2.6c0,0-3.65,3,1.93,7.61C7203.21,7277.75,7203.64,7280.75,7210.73,7281.35Z" transform="translate(-7017.93 -7094.89)"/></svg>