<svg xmlns="http://www.w3.org/2000/svg" viewBox="0 0 259.69 204.98"><defs><style>.cls-1{isolation:isolate;}.cls-2{fill:#9c632e;}.cls-3{fill:#faebe1;}.cls-4{opacity:0.2;}.cls-4,.cls-5{mix-blend-mode:overlay;}.cls-5{opacity:0.51;}.cls-6{fill:#4d3e34;}</style></defs><title>sarna</title><g class="cls-1"><g id="Layer_1" data-name="Layer 1"><g id="_Group_" data-name="&lt;Group&gt;"><g id="_Group_2" data-name="&lt;Group&gt;"><path id="_Path_" data-name="&lt;Path&gt;" class="cls-2" d="M7153,7140.25s-29.52-.66-30.5,45.26c0,0,.33,4.59,2.3,15.41,0,0,4.59,3.28,8.2-6.89s14.76-23.2,14.76-23.2Z" transform="translate(-7122.51 -7097.95)"/><path id="_Path_2" data-name="&lt;Path&gt;" class="cls-3" d="M7136.48,7168.89c-8.36,6.93-11.3,21.82-11.2,32,0,.08,0,.16,0,.24,1.26.52,4.81,1.09,7.73-7.13,3.61-10.17,14.76-23.2,14.76-23.2l1.09-6.35C7144.3,7164.92,7139.92,7166,7136.48,7168.89Z" transform="translate(-7122.51 -7097.95)"/><path id="_Path_3" data-name="&lt;Path&gt;" class="cls-3" d="M7179.9,7185.51l-4.26,15.41c6.23,8.53,18,14.1,18,14.1,21,7.87,58.38,11.81,58.38,11.81l-3.94-14.43C7199.91,7207.16,7179.9,7185.51,7179.9,7185.51Z" transform="translate(-7122.51 -7097.95)"/><path id="_Path_4" data-name="&lt;Path&gt;" class="cls-4" d="M7193.68,7215c-8.53-2.77-18-14.1-18-14.1l-1.64,6.89c-1.31,24.27-14.43,39.36-14.43,39.36a105.07,105.07,0,0,1,8.51,51.19,4.16,4.16,0,0,0,4.15,4.57h4.43a4.17,4.17,0,0,0,4.15-4.54l-4.19-47.28C7183.84,7244.55,7193.68,7215,7193.68,7215Z" transform="translate(-7122.51 -7097.95)"/><path id="_Path_5" data-name="&lt;Path&gt;" class="cls-4" d="M7274.35,7221.92l-4.59,33.78,2,43.17a4.26,4.26,0,0,0,4.26,4.06h2.55a4.26,4.26,0,0,0,4.17-5.12c-4.22-20.69-.55-76.87-.55-76.87Z" transform="translate(-7122.51 -7097.95)"/><circle id="_Path_6" data-name="&lt;Path&gt;" class="cls-5" cx="225.81" cy="50.34" r="2.56"/><path id="_Path_7" data-name="&lt;Path&gt;" class="cls-2" d="M7374.36,7166.75s2.94-4.66,6.18-2.9.72,4.87.72,4.87S7376.85,7171.11,7374.36,7166.75Z" transform="translate(-7122.51 -7097.95)"/><path id="_Path_8" data-name="&lt;Path&gt;" class="cls-5" d="M7374.36,7166.75s2.94-4.66,6.18-2.9.72,4.87.72,4.87S7376.85,7171.11,7374.36,7166.75Z" transform="translate(-7122.51 -7097.95)"/></g><path id="_Path_9" data-name="&lt;Path&gt;" class="cls-2" d="M7153,7140.25s-29.52-.66-30.5,45.26c0,0,.33,4.59,2.3,15.41,0,0,4.59,3.28,8.2-6.89s14.76-23.2,14.76-23.2Z" transform="translate(-7122.51 -7097.95)"/><path id="_Path_10" data-name="&lt;Path&gt;" class="cls-3" d="M7136.48,7168.89c-8.36,6.93-11.3,21.82-11.2,32,0,.08,0,.16,0,.24,1.26.52,4.81,1.09,7.73-7.13,3.61-10.17,14.76-23.2,14.76-23.2l1.09-6.35C7144.3,7164.92,7139.92,7166,7136.48,7168.89Z" transform="translate(-7122.51 -7097.95)"/><path id="_Path_11" data-name="&lt;Path&gt;" class="cls-2" d="M7137.12,7298.34c1.05-10.38,3.09-36.05-.51-52.49,0,0,11.15-18.37,10.49-42,0,0-19-42,0-62.31s47.2-7.22,68.84,0,36.73,8.53,47.23,7.87,26.24,12.46,31.48,12.46,18-14.91,21.23-18.84-13-13.87-4.72-37.72c5.12.1,7.52,2.78,7.52,2.78s2.46-7.21,5-10.17c0,0,13.61,1.64,16.23,32.47,0,0,13.56,4.52,18.71,17.07a32.72,32.72,0,0,0,9.36,13.07c3.84,3.15,8.64,6.46,13.26,7.95-2,9.18-20.33,9.79-34.11,9.14l-13.77-.66s-28.86,36.73-51.16,43.95c0,0-3.68,56.18.55,76.87a4.26,4.26,0,0,1-4.17,5.12h-2.55a4.26,4.26,0,0,1-4.26-4.06l-2-43.17s-5.22,26.9-3.49,42.46a4.27,4.27,0,0,1-4.23,4.76h-2a4.25,4.25,0,0,1-4.26-4.31c.19-14.25.44-59.66-3.76-71.78,0,0-37.39-3.94-58.38-11.81,0,0-7.26,21.77-13.88,32.07a16.65,16.65,0,0,0-2.6,10.48l3.62,40.81a4.17,4.17,0,0,1-4.15,4.54h-4.43a4.16,4.16,0,0,1-4.15-4.57,105.07,105.07,0,0,0-8.51-51.19s13.12-15.09,14.43-39.36c0,0-3.86,24.25-22.18,37.89a11.89,11.89,0,0,0-4.86,10.38l3.1,42.36a4.17,4.17,0,0,1-4.16,4.47h-4.64A4.16,4.16,0,0,1,7137.12,7298.34Z" transform="translate(-7122.51 -7097.95)"/><path id="_Path_12" data-name="&lt;Path&gt;" class="cls-3" d="M7179.9,7185.51l-4.26,15.41c6.23,8.53,18,14.1,18,14.1,21,7.87,58.38,11.81,58.38,11.81l-3.94-14.43C7199.91,7207.16,7179.9,7185.51,7179.9,7185.51Z" transform="translate(-7122.51 -7097.95)"/><path id="_Path_13" data-name="&lt;Path&gt;" class="cls-4" d="M7193.68,7215c-8.53-2.77-18-14.1-18-14.1l-1.64,6.89c-1.31,24.27-14.43,39.36-14.43,39.36a105.07,105.07,0,0,1,8.51,51.19,4.16,4.16,0,0,0,4.15,4.57h4.43a4.17,4.17,0,0,0,4.15-4.54l-4.19-47.28C7183.84,7244.55,7193.68,7215,7193.68,7215Z" transform="translate(-7122.51 -7097.95)"/><path id="_Path_14" data-name="&lt;Path&gt;" class="cls-4" d="M7274.35,7221.92l-4.59,33.78,2,43.17a4.26,4.26,0,0,0,4.26,4.06h2.55a4.26,4.26,0,0,0,4.17-5.12c-4.22-20.69-.55-76.87-.55-76.87Z" transform="translate(-7122.51 -7097.95)"/><circle id="_Path_15" data-name="&lt;Path&gt;" class="cls-5" cx="224.08" cy="58.68" r="2.56"/><path id="_Path_16" data-name="&lt;Path&gt;" class="cls-2" d="M7374.36,7166.75s2.94-4.66,6.18-2.9.72,4.87.72,4.87S7376.85,7171.11,7374.36,7166.75Z" transform="translate(-7122.51 -7097.95)"/><path id="_Path_17" data-name="&lt;Path&gt;" class="cls-5" d="M7375.69,7168.37a2.14,2.14,0,0,1-.1-3.14c1.16-1.18,3-2.45,5-1.39,3.24,1.76.72,4.87.72,4.87S7378.16,7170.4,7375.69,7168.37Z" transform="translate(-7122.51 -7097.95)"/><path id="_Path_18" data-name="&lt;Path&gt;" class="cls-6" d="M7137.49,7294.45c-.13,1.46-.26,2.77-.37,3.89a4.16,4.16,0,0,0,4.15,4.58h4.64a4.17,4.17,0,0,0,4.16-4.47l-.29-4Z" transform="translate(-7122.51 -7097.95)"/><path id="_Path_19" data-name="&lt;Path&gt;" class="cls-6" d="M7168.37,7294.45c-.08,1.47-.18,2.78-.3,3.89a4.16,4.16,0,0,0,4.15,4.58h4.43a4.17,4.17,0,0,0,4.15-4.54l-.35-3.94Z" transform="translate(-7122.51 -7097.95)"/><path id="_Path_20" data-name="&lt;Path&gt;" class="cls-6" d="M7255.86,7294.45c0,1.58,0,3,0,4.16a4.25,4.25,0,0,0,4.26,4.31h2a4.24,4.24,0,0,0,4.24-4.69c-.13-1.2-.23-2.47-.29-3.79Z" transform="translate(-7122.51 -7097.95)"/><path id="_Path_21" data-name="&lt;Path&gt;" class="cls-6" d="M7271.59,7294.45l.21,4.42a4.26,4.26,0,0,0,4.26,4.06h2.54a4.26,4.26,0,0,0,4.19-5.08c-.21-1-.41-2.18-.58-3.39Z" transform="translate(-7122.51 -7097.95)"/><ellipse id="_Path_22" data-name="&lt;Path&gt;" class="cls-4" cx="45.7" cy="44.2" rx="5.52" ry="3.58"/><ellipse id="_Path_23" data-name="&lt;Path&gt;" class="cls-4" cx="57.69" cy="38.44" rx="3.58" ry="2.18"/><ellipse id="_Path_24" data-name="&lt;Path&gt;" class="cls-4" cx="65.61" cy="48.03" rx="2.76" ry="2.31"/><ellipse id="_Path_25" data-name="&lt;Path&gt;" class="cls-4" cx="7153.91" cy="7139.78" rx="3.66" ry="2.31" transform="translate(-9290.12 -3865.1) rotate(-22.2)"/><ellipse id="_Path_26" data-name="&lt;Path&gt;" class="cls-4" cx="74.28" cy="39.53" rx="1.97" ry="1.09"/><ellipse id="_Path_27" data-name="&lt;Path&gt;" class="cls-4" cx="82.06" cy="49.18" rx="2.07" ry="1.15"/><ellipse id="_Path_28" data-name="&lt;Path&gt;" class="cls-4" cx="53.49" cy="56.17" rx="2.27" ry="1.38"/><ellipse id="_Path_29" data-name="&lt;Path&gt;" class="cls-4" cx="42.45" cy="34.89" rx="2.27" ry="1.38"/><path id="_Path_30" data-name="&lt;Path&gt;" class="cls-4" d="M7318.72,7137.91c-7.85-13.3,0-29.79,0-29.79s-2.4-2.68-7.52-2.78c-8.28,23.85,8,33.79,4.72,37.72A21.15,21.15,0,0,0,7318.72,7137.91Z" transform="translate(-7122.51 -7097.95)"/></g></g></g></svg>